<?xml version="1.0" encoding="UTF-8" standalone="no"?><!DOCTYPE svg PUBLIC "-//W3C//DTD SVG 1.1//EN" "http://www.w3.org/Graphics/SVG/1.1/DTD/svg11.dtd"><svg width="100%" height="100%" viewBox="0 0 1236 1280" version="1.1" xmlns="http://www.w3.org/2000/svg" xmlns:xlink="http://www.w3.org/1999/xlink" xml:space="preserve" xmlns:serif="http://www.serif.com/" style="fill-rule:evenodd;clip-rule:evenodd;stroke-linejoin:round;stroke-miterlimit:2;"><path d="M10.494,10.868l0,1.966l1.967,0l-0,-1.966l-1.967,0Zm1213.05,0l0,1.966l1.967,0l-0,-1.966l-1.967,0Zm-1040.03,33.423l-0,1.966l-9.83,-0l-0,1.966l-7.865,-0l0,1.966l-5.898,-0l0,1.966l-3.932,-0l0,1.966l-3.932,-0l0,1.966l-3.932,-0l0,1.966l-3.932,-0l0,1.966l-3.932,0l-0,1.966l-1.966,0l-0,1.966l-3.932,0l-0,1.966l-1.966,0l-0,1.966l-1.966,0l-0,1.966l-1.966,0l-0,1.966l-3.932,0l-0,1.966l-1.966,0l-0,3.932l-3.932,0l-0,1.966l-1.966,0l-0,3.932l-1.967,0l0,1.966l-1.966,0l0,3.933l-1.966,-0l0,1.966l-1.966,-0l0,3.932l-1.966,-0l0,3.932l-1.966,-0l0,5.898l-1.966,-0l0,1.966l-1.966,-0l0,3.932l-1.966,-0l0,7.864l-1.966,0l0,7.864l-1.966,0l0,13.763l-1.966,-0l0,55.049l1.966,-0l0,70.777l1.966,-0l0,47.185l-1.966,-0l0,21.626l1.966,0l0,90.438l1.966,-0l0,-3.932l1.966,-0l0,-9.83l1.966,-0l0,1.966l1.966,-0l0,3.932l1.966,-0l0,7.864l1.966,-0l0,11.796l-1.966,0l0,1.966l1.966,0l0,1.966l3.932,0l0,-5.898l-1.966,0l0,-17.694l1.966,-0l0,-3.932l3.933,-0l-0,-5.898l-7.865,-0l0,-1.966l-1.966,-0l0,-33.423l-1.966,-0l0,-5.898l1.966,-0l0,-1.966l-1.966,-0l0,-17.695l-1.966,0l0,-1.966l1.966,0l0,-5.898l-1.966,0l0,-19.66l1.966,-0l0,-1.966l-1.966,-0l0,-9.83l-1.966,-0l0,-1.966l1.966,-0l0,-7.864l-1.966,-0l0,-1.967l3.932,0l0,-3.932l-1.966,0l0,-7.864l-1.966,0l0,-13.762l-1.966,-0l0,-3.932l1.966,-0l0,-3.932l-1.966,-0l0,-7.864l3.932,-0l0,-1.966l-1.966,-0l0,-1.966l-1.966,-0l0,-3.932l1.966,-0l0,-1.966l-1.966,-0l0,-3.933l1.966,0l0,-3.932l-1.966,0l0,-5.898l1.966,0l0,1.966l1.966,0l0,-5.898l-3.932,0l0,-3.932l3.932,0l0,-7.864l-3.932,-0l0,-5.898l3.932,-0l0,-7.864l-1.966,-0l0,-3.932l-1.966,-0l0,-1.966l1.966,-0l0,1.966l1.966,-0l0,-1.966l-1.966,-0l0,-19.661l-1.966,0l0,-1.966l1.966,0l0,-3.932l-1.966,0l0,-1.966l1.966,0l0,-39.321l1.966,0l0,-7.864l1.966,0l0,-7.864l1.966,0l0,-7.864l1.966,-0l0,-1.966l1.966,-0l0,-1.966l-1.966,-0l0,-1.966l1.966,-0l0,-1.966l1.966,-0l0,-3.932l1.966,-0l0,-1.966l1.967,-0l-0,-3.932l1.966,-0l-0,-3.933l1.966,0l-0,-1.966l1.966,0l-0,-1.966l1.966,0l-0,-1.966l1.966,0l-0,-1.966l1.966,0l-0,-1.966l3.932,0l-0,-1.966l1.966,0l-0,-1.966l1.966,0l-0,-1.966l3.932,0l-0,-1.966l1.966,0l-0,-1.966l3.932,0l0,-1.966l3.932,0l0,-1.966l3.932,0l0,-1.966l3.932,-0l0,-1.966l5.898,-0l0,-1.966l3.932,-0l0,-1.966l5.899,-0l-0,-1.966l5.898,-0l-0,-1.966l55.049,-0l-0,1.966l13.762,-0l-0,-1.966l-1.966,-0l-0,-1.966l-19.66,-0l-0,-1.966l-43.253,-0Zm72.743,3.932l0,3.932l15.728,-0l0,1.966l17.695,-0l-0,1.966l9.83,-0l-0,-3.932l-9.83,-0l-0,-1.966l-19.661,-0l0,-1.966l-13.762,-0Zm55.049,5.898l0,1.966l7.864,-0l0,1.966l3.932,-0l0,-1.966l1.966,-0l0,-1.966l-13.762,-0Zm19.661,-0l-0,3.932l9.83,-0l-0,-3.932l-9.83,-0Zm15.728,1.966l-0,1.966l1.966,-0l-0,-1.966l-1.966,-0Zm3.932,-0l-0,1.966l1.966,-0l-0,1.966l11.796,0l0,-1.966l-1.966,-0l0,-1.966l-11.796,-0Zm31.457,1.966l-0,3.932l5.898,0l-0,1.966l15.728,0l-0,1.966l7.864,0l0,-3.932l-7.864,0l-0,-1.966l-17.694,0l-0,-1.966l-3.932,-0Zm39.32,5.898l0,1.966l1.966,0l0,1.966l19.661,0l-0,1.966l11.796,0l-0,-1.966l-1.966,0l-0,-1.966l-19.661,0l0,-1.966l-11.796,0Zm43.253,3.932l0,3.932l11.796,0l0,1.966l17.695,0l-0,1.966l9.83,0l-0,-3.932l-9.83,0l-0,-1.966l-19.661,0l0,-1.966l-9.83,0Zm-133.69,1.966l-0,1.966l1.966,0l-0,-1.966l-1.966,0Zm9.83,0l-0,3.932l1.966,0l-0,-3.932l-1.966,0Zm-182.842,1.966l0,1.966l1.966,0l0,-1.966l-1.966,0Zm355.853,1.966l0,1.966l3.932,0l0,1.966l25.559,0l-0,1.966l17.694,0l-0,-1.966l-1.966,0l-0,-1.966l-29.491,0l0,-1.966l-15.728,0Zm-363.717,1.966l0,1.966l1.966,0l0,-1.966l-1.966,0Zm243.789,1.966l-0,1.966l3.932,0l-0,-1.966l-3.932,0Zm176.943,0l0,3.932l15.728,0l0,1.966l15.729,0l-0,1.966l9.83,0l-0,-3.932l-11.796,0l-0,-1.966l-19.661,0l0,-1.966l-9.83,0Zm51.117,5.898l0,1.966l3.932,0l0,1.967l7.864,-0l0,-3.933l-11.796,0Zm-237.89,1.966l-0,1.967l1.966,-0l-0,-1.967l-1.966,0Zm255.584,0l0,1.967l9.831,-0l-0,1.966l11.796,-0l-0,-3.933l-21.627,0Zm-243.788,1.967l-0,1.966l-1.966,-0l-0,3.932l3.932,-0l-0,1.966l-1.966,-0l-0,1.966l-1.966,-0l-0,-1.966l-1.966,-0l-0,-1.966l-1.966,-0l-0,-1.966l-1.966,-0l-0,1.966l-1.966,-0l-0,-1.966l-1.966,-0l-0,-1.966l-1.966,-0l-0,9.83l1.966,-0l-0,1.966l1.966,-0l-0,3.932l1.966,-0l-0,1.966l3.932,-0l-0,1.966l9.83,-0l-0,-1.966l3.932,-0l-0,-1.966l1.966,-0l0,-1.966l1.966,-0l0,-3.932l1.966,-0l0,-11.796l-3.932,-0l0,3.932l-1.966,-0l-0,1.966l-1.966,-0l-0,-3.932l-1.966,-0l-0,-1.966l-5.898,-0Zm279.177,-0l0,3.932l11.796,-0l0,-1.966l-5.898,-0l0,-1.966l-5.898,-0Zm17.694,1.966l0,3.932l9.831,-0l-0,1.966l5.898,-0l-0,-3.932l-7.864,-0l-0,-1.966l-7.865,-0Zm-292.939,1.966l-0,1.966l-1.966,-0l-0,-1.966l1.966,-0Zm235.924,1.966l0,1.966l1.966,-0l0,-1.966l-1.966,-0Zm84.54,-0l-0,1.966l3.932,-0l0,1.966l7.864,-0l0,-3.932l-11.796,-0Zm17.694,1.966l0,1.966l7.864,-0l0,-1.966l-7.864,-0Zm9.83,-0l0,3.932l13.763,-0l-0,-1.966l-1.966,-0l-0,-1.966l-11.797,-0Zm-123.86,1.966l0,1.966l-1.966,-0l0,1.966l-1.966,-0l0,7.864l1.966,-0l0,-3.932l1.966,-0l0,13.762l-3.932,0l0,3.932l1.966,0l0,3.932l1.966,0l0,1.966l1.966,0l0,1.966l3.932,0l0,1.966l3.932,0l0,1.966l3.932,0l0,-1.966l1.966,0l0,1.966l3.932,0l0,-1.966l3.933,0l-0,-1.966l1.966,0l-0,-1.966l1.966,0l-0,-1.966l1.966,0l-0,-3.932l-5.898,0l-0,-15.728l-1.966,-0l-0,-1.966l-3.933,-0l0,3.932l1.966,-0l0,3.932l1.967,0l-0,1.966l-1.967,0l0,5.898l-1.966,0l0,1.966l-1.966,0l0,1.966l-7.864,0l0,-1.966l-1.966,0l0,-1.966l-1.966,0l0,-15.728l-3.932,-0l0,-1.966l1.966,-0l0,-5.898l-1.966,-0Zm21.627,-0l-0,3.932l1.966,-0l-0,1.966l3.932,-0l-0,-1.966l-1.966,-0l-0,-1.966l-1.966,-0l-0,-1.966l-1.966,-0Zm127.792,-0l-0,3.932l9.83,-0l0,-1.966l-5.898,-0l0,-1.966l-3.932,-0Zm-139.589,3.932l0,1.966l1.966,-0l0,1.966l1.966,-0l0,-3.932l-3.932,-0Zm165.147,-0l0,1.966l1.966,-0l0,1.966l5.899,-0l-0,-3.932l-7.865,-0Zm21.627,1.966l-0,1.966l1.966,-0l-0,1.966l5.898,-0l-0,-3.932l-7.864,-0Zm-153.351,1.966l-0,1.966l-3.932,-0l-0,9.83l7.864,0l0,-1.966l3.932,0l0,-1.966l1.966,0l0,-3.932l-1.966,-0l0,-1.966l-5.898,-0l-0,-1.966l-1.966,-0Zm171.045,-0l0,1.966l3.932,-0l0,-1.966l-3.932,-0Zm5.898,-0l0,1.966l1.966,-0l0,1.966l7.864,-0l0,-3.932l-9.83,-0Zm25.559,1.966l-0,3.932l7.864,-0l-0,-1.966l-5.898,-0l-0,-1.966l-1.966,-0Zm15.728,1.966l0,3.932l3.932,0l0,-3.932l-3.932,-0Zm5.898,1.966l0,3.932l7.864,0l0,-3.932l-7.864,-0Zm19.661,1.966l-0,1.966l1.966,0l-0,1.966l7.864,0l-0,-3.932l-9.83,0Zm11.796,1.966l-0,1.966l9.83,0l-0,-1.966l-9.83,0Zm11.796,0l-0,3.932l33.423,0l-0,-1.966l-1.966,0l-0,-1.966l-31.457,0Zm-86.506,1.966l0,1.966l-1.966,0l0,1.966l1.966,0l0,1.966l7.865,0l-0,1.966l1.966,0l-0,9.83l-5.899,0l0,1.966l-3.932,0l0,-1.966l1.966,0l0,-1.966l3.932,0l0,-1.966l-5.898,0l0,1.966l-1.966,0l0,5.899l-1.966,-0l0,-3.933l-1.966,0l0,-1.966l-3.932,0l0,7.865l1.966,-0l0,3.932l1.966,-0l0,1.966l5.898,-0l0,1.966l3.932,-0l0,-1.966l1.966,-0l0,-1.966l1.967,-0l-0,-1.966l1.966,-0l-0,-1.966l1.966,-0l-0,-3.933l1.966,0l-0,-13.762l-1.966,0l-0,-3.932l-5.899,0l0,-1.966l-5.898,0Zm133.691,1.966l-0,1.966l3.932,0l-0,-1.966l-3.932,0Zm-703.841,1.966l-0,1.966l-1.966,0l-0,1.966l1.966,0l-0,1.966l3.932,0l-0,-1.966l23.592,0l0,1.966l1.966,0l0,-1.966l3.932,0l0,1.966l15.728,0l0,1.966l29.491,0l0,1.966l1.966,0l0,-1.966l1.966,0l0,1.966l23.593,0l-0,1.966l21.626,0l-0,1.966l27.524,0l0,1.966l19.661,0l-0,1.967l19.66,-0l0,1.966l23.593,-0l-0,3.932l-1.966,-0l-0,-1.966l-3.932,-0l-0,1.966l-7.865,-0l0,1.966l1.966,-0l0,1.966l-1.966,-0l0,-1.966l-1.966,-0l0,-3.932l-21.626,-0l-0,-1.966l-1.966,-0l-0,1.966l-7.864,-0l-0,-1.966l-1.966,-0l-0,1.966l1.966,-0l-0,1.966l1.966,-0l-0,1.966l-3.932,-0l-0,1.966l-3.932,-0l-0,1.966l7.864,-0l-0,-1.966l5.898,-0l-0,3.932l17.694,-0l0,-1.966l5.898,-0l0,1.966l3.932,-0l0,1.966l1.967,-0l-0,1.966l17.694,-0l-0,1.966l7.864,-0l-0,-1.966l1.966,-0l0,1.966l15.728,-0l0,1.966l3.932,-0l0,-1.966l1.966,-0l0,-1.966l-7.864,-0l0,-1.966l-3.932,-0l0,1.966l-1.966,-0l0,-5.898l-1.966,-0l0,-1.966l1.966,-0l0,-1.966l-5.898,-0l0,-1.966l-3.932,-0l-0,1.966l1.966,-0l0,1.966l-1.966,-0l-0,5.898l-1.966,-0l-0,-3.932l-3.932,-0l-0,-3.932l1.966,-0l-0,1.966l1.966,-0l-0,-3.932l-7.864,-0l-0,1.966l-1.966,-0l-0,-3.932l27.524,-0l0,1.966l27.525,-0l-0,1.966l1.966,-0l-0,-1.966l1.966,-0l-0,1.966l3.932,-0l-0,-1.966l1.966,-0l-0,1.966l21.626,-0l0,-1.966l1.966,-0l0,-1.966l-5.898,-0l0,1.966l-1.966,-0l0,-1.966l-15.728,-0l-0,-1.966l-15.728,-0l-0,-1.966l-5.898,-0l-0,1.966l-7.865,-0l0,-1.966l-11.796,-0l0,-1.967l-5.898,0l0,1.967l-1.966,-0l0,-1.967l-15.728,0l-0,-1.966l-1.966,0l-0,1.966l-1.966,0l-0,-1.966l-19.661,0l0,-1.966l-1.966,0l0,1.966l-3.932,0l0,-1.966l-13.762,0l-0,-1.966l-7.864,0l-0,1.966l-1.966,0l-0,-1.966l-11.796,0l-0,-1.966l-1.967,0l0,1.966l-3.932,0l0,-1.966l-15.728,0l0,-1.966l-3.932,0l0,1.966l-5.898,0l-0,-1.966l-19.66,0l-0,-1.966l-3.933,0l0,1.966l-7.864,0l0,-1.966l-15.728,0l0,-1.966l-3.932,0l-0,1.966l-5.898,0l-0,-1.966l-7.864,0l-0,1.966l-7.864,0l-0,-1.966l-33.423,0l-0,-1.966l-15.728,0l-0,1.966l-1.966,0l-0,-1.966l-1.966,0Zm617.335,0l0,3.932l3.932,0l0,-3.932l-3.932,0Zm94.37,0l0,1.966l1.966,0l0,1.966l3.932,0l0,1.966l3.932,0l0,1.966l3.932,0l0,1.966l3.932,0l0,1.966l3.932,0l0,1.966l1.966,0l0,1.966l1.967,0l-0,1.967l3.932,-0l-0,3.932l1.966,-0l-0,1.966l1.966,-0l-0,3.932l1.966,-0l-0,1.966l1.966,-0l-0,1.966l1.966,-0l-0,1.966l1.966,-0l-0,3.932l1.966,-0l-0,3.932l1.966,-0l-0,5.898l1.966,0l-0,5.898l1.966,0l-0,3.932l1.966,0l0,7.864l1.966,0l0,-1.966l1.966,0l0,-5.898l-1.966,0l0,-3.932l-1.966,0l0,-5.898l-1.966,0l-0,-3.932l-1.966,-0l-0,-5.898l-1.966,-0l-0,-1.966l-1.966,-0l-0,-1.966l-1.966,-0l-0,-5.898l-1.966,-0l-0,-1.966l-1.966,-0l-0,-1.966l-1.966,-0l-0,-1.966l-1.966,-0l-0,-1.966l-1.966,-0l-0,-1.966l-1.966,-0l-0,-1.967l-1.966,0l-0,-1.966l-1.966,0l-0,-1.966l-3.933,0l0,-1.966l-1.966,0l0,-1.966l-3.932,0l0,-1.966l-1.966,0l0,-1.966l-3.932,0l0,-1.966l-5.898,0l0,-1.966l-3.932,0Zm-316.532,1.966l0,1.966l1.966,0l0,-1.966l-1.966,0Zm231.992,0l0,1.966l1.966,0l0,1.966l3.933,0l-0,-1.966l1.966,0l-0,-1.966l-7.865,0Zm-257.55,1.966l-0,1.966l-1.966,0l-0,-1.966l1.966,0Zm17.694,0l-0,1.966l3.932,0l-0,-1.966l-3.932,0Zm253.619,0l-0,1.966l1.966,0l-0,-1.966l-1.966,0Zm13.762,0l-0,1.966l-1.966,0l-0,1.966l5.898,0l0,-3.932l-3.932,0Zm-662.555,1.966l0,1.966l1.966,0l0,1.966l-5.898,0l0,1.966l-1.966,0l0,7.865l-1.966,-0l0,7.864l3.932,-0l0,-11.797l1.966,0l0,-1.966l3.932,0l0,-1.966l1.966,0l0,-1.966l1.967,0l-0,-3.932l-1.967,0l0,1.966l-1.966,0l0,-1.966l-1.966,0Zm678.283,0l0,3.932l1.966,0l0,-3.932l-1.966,0Zm13.763,1.966l-0,1.966l3.932,0l-0,1.966l13.762,0l-0,-1.966l-5.898,0l-0,-1.966l-1.966,0l-0,1.966l-5.898,0l-0,-1.966l-3.932,0Zm-682.215,1.966l-0,3.932l1.966,0l-0,-1.966l1.966,0l-0,-1.966l-3.932,0Zm55.049,0l-0,1.966l-3.932,0l-0,1.966l3.932,0l-0,3.933l7.864,-0l-0,-1.967l3.932,0l-0,1.967l3.932,-0l-0,-5.899l-3.932,0l-0,1.966l-1.966,0l-0,-1.966l-1.966,0l-0,-1.966l-7.864,0Zm648.792,0l-0,1.966l1.966,0l-0,-1.966l-1.966,0Zm5.898,0l0,3.932l1.966,0l0,-3.932l-1.966,0Zm-635.03,1.966l0,1.966l-1.966,0l-0,1.966l3.932,0l0,-3.932l-1.966,0Zm638.962,0l0,3.932l7.864,0l0,-1.966l-3.932,0l0,-1.966l-3.932,0Zm-654.69,1.966l-0,1.966l-1.966,0l-0,-1.966l1.966,0Zm64.879,0l-0,1.966l-9.83,0l-0,1.967l-1.966,-0l-0,-1.967l-5.898,0l-0,3.933l5.898,-0l-0,3.932l-1.966,-0l-0,1.966l11.796,-0l-0,1.966l27.524,-0l0,-1.966l-7.864,-0l0,-1.966l-9.83,-0l0,-1.966l-1.966,-0l0,-1.966l-3.932,-0l-0,-5.899l-1.966,0Zm576.049,0l-0,3.933l1.966,-0l-0,-3.933l-1.966,0Zm-703.841,1.966l-0,1.967l-1.967,-0l0,1.966l1.967,-0l-0,1.966l1.966,-0l-0,-5.899l-1.966,0Zm47.184,0l0,3.933l1.966,-0l0,-3.933l-1.966,0Zm55.049,0l0,1.967l1.966,-0l0,-1.967l-1.966,0Zm-94.369,1.967l-0,3.932l3.932,-0l-0,-3.932l-3.932,-0Zm9.83,-0l-0,3.932l9.83,-0l0,-1.966l-5.898,-0l-0,-1.966l-3.932,-0Zm25.558,-0l0,3.932l1.966,-0l0,-3.932l-1.966,-0Zm82.574,-0l-0,1.966l-1.966,-0l-0,-1.966l1.966,-0Zm17.694,-0l0,1.966l-1.966,-0l0,1.966l5.898,-0l0,-1.966l-1.966,-0l0,-1.966l-1.966,-0Zm-90.437,1.966l-0,1.966l7.864,-0l-0,-1.966l-7.864,-0Zm43.252,-0l0,1.966l3.932,-0l0,-1.966l-3.932,-0Zm25.559,-0l-0,1.966l-1.966,-0l-0,-1.966l1.966,-0Zm31.456,-0l0,3.932l3.932,-0l0,1.966l-1.966,-0l0,3.932l1.966,-0l0,-1.966l1.967,-0l-0,-3.932l1.966,-0l-0,1.966l7.864,-0l-0,-1.966l-1.966,-0l-0,-1.966l-3.932,-0l-0,-1.966l-3.932,-0l-0,1.966l-3.933,-0l0,-1.966l-1.966,-0Zm-47.184,1.966l-0,1.966l5.898,-0l-0,-1.966l-5.898,-0Zm21.626,-0l-0,1.966l-1.966,-0l-0,-1.966l1.966,-0Zm-133.691,1.966l0,3.932l1.966,-0l0,3.932l3.933,-0l-0,-1.966l-1.967,-0l0,-5.898l-3.932,-0Zm322.431,-0l-0,1.966l1.966,-0l-0,-1.966l-1.966,-0Zm7.864,-0l-0,1.966l5.898,-0l-0,-1.966l-5.898,-0Zm15.728,-0l-0,1.966l1.966,-0l0,-1.966l-1.966,-0Zm-90.438,1.966l0,3.932l1.966,-0l0,-3.932l-1.966,-0Zm5.898,-0l0,1.966l1.966,-0l0,-1.966l-1.966,-0Zm94.37,-0l0,1.966l1.966,-0l0,-1.966l-1.966,-0Zm13.762,-0l0,1.966l5.899,-0l-0,-1.966l-5.899,-0Zm21.627,1.966l-0,1.966l1.966,-0l-0,-1.966l-1.966,-0Zm-171.045,1.966l-0,1.966l-1.966,-0l-0,-1.966l1.966,-0Zm5.898,-0l-0,1.966l-1.966,-0l-0,-1.966l1.966,-0Zm174.977,-0l0,1.966l1.966,-0l0,-1.966l-1.966,-0Zm-171.045,1.966l-0,1.966l-1.966,-0l-0,-1.966l1.966,-0Zm3.932,-0l-0,-1.966l1.966,-0l-0,1.966l1.966,-0l-0,1.966l-1.966,-0l-0,-1.966l-1.966,-0Zm11.796,-0l0,1.966l-1.966,-0l0,-1.966l1.966,-0Zm174.977,-0l0,1.966l3.932,-0l0,-1.966l-3.932,-0Zm13.763,-0l-0,1.966l1.966,-0l-0,-1.966l-1.966,-0Zm-442.359,1.966l0,11.796l7.864,0l0,-1.966l-1.966,-0l0,-1.966l-1.966,-0l0,-7.864l-3.932,-0Zm450.223,-0l-0,1.966l5.898,-0l-0,-1.966l-5.898,-0Zm-440.393,1.966l0,1.966l1.966,-0l0,-1.966l-1.966,-0Zm273.28,-0l-0,1.966l1.966,-0l-0,-1.966l-1.966,-0Zm82.573,-0l0,3.932l1.966,-0l0,-3.932l-1.966,-0Zm112.064,-0l0,1.966l3.932,-0l0,-1.966l-3.932,-0Zm11.797,-0l-0,1.966l3.932,-0l-0,-1.966l-3.932,-0Zm-483.646,1.966l0,1.966l1.966,-0l0,-1.966l-1.966,-0Zm281.144,-0l-0,1.966l3.932,-0l-0,-1.966l-3.932,-0Zm216.264,-0l-0,1.966l3.932,-0l-0,1.966l3.932,-0l-0,-1.966l3.932,-0l0,-1.966l-11.796,-0Zm15.728,1.966l0,1.966l1.966,-0l0,-1.966l-1.966,-0Zm5.898,-0l0,1.966l3.932,-0l0,1.966l11.797,-0l-0,1.966l19.66,0l-0,1.966l21.626,0l0,1.966l23.593,0l-0,1.966l29.49,0l0,1.966l27.525,0l-0,1.966l7.864,0l-0,1.966l1.966,0l-0,1.966l3.932,0l0,5.898l1.966,0l0,5.899l3.932,-0l0,-5.899l-1.966,0l0,-3.932l-1.966,0l0,-5.898l-1.966,0l0,-1.966l-1.966,0l0,-1.966l-3.932,0l-0,-1.966l-13.762,0l-0,-1.966l-23.593,0l0,-1.966l-21.626,0l-0,-1.966l-21.627,-0l0,-1.966l-23.592,-0l-0,-1.966l-1.966,-0l-0,1.966l-1.966,-0l-0,-1.966l-37.355,-0Zm-522.966,7.864l0,1.966l3.932,0l0,-1.966l-3.932,0Zm5.898,0l0,3.932l1.966,0l0,-3.932l-1.966,0Zm524.932,0l0,1.966l1.966,0l0,-1.966l-1.966,0Zm29.491,1.966l-0,1.966l3.932,0l-0,-1.966l-3.932,0Zm-562.287,1.966l0,1.966l1.966,0l0,1.966l-1.966,0l0,3.932l3.932,0l0,5.898l3.932,0l0,-5.898l-1.966,0l0,-1.966l-1.966,0l0,-1.966l1.966,0l0,-3.932l-5.898,0Zm554.423,0l-0,1.966l-1.966,0l-0,1.966l-1.966,0l-0,3.932l3.932,0l-0,-1.966l1.966,0l-0,1.966l5.898,0l-0,1.966l1.966,0l-0,-1.966l3.932,0l0,1.966l5.898,0l0,-1.966l7.864,0l0,1.966l13.763,0l-0,1.966l1.966,0l-0,-1.966l1.966,0l-0,-1.966l-7.865,0l0,-1.966l1.967,0l-0,-3.932l-5.899,0l0,1.966l-1.966,0l0,-1.966l-5.898,0l0,-1.966l-7.864,0l0,5.898l-3.932,0l0,-1.966l-11.796,0l-0,-3.932l-1.966,0Zm27.524,3.932l0,1.966l-1.966,0l0,-1.966l1.966,0Zm39.321,0l0,1.966l1.966,0l0,-1.966l-1.966,0Zm-13.762,1.966l-0,1.966l1.966,0l-0,-1.966l-1.966,0Zm3.932,0l-0,1.966l3.932,0l-0,-1.966l-3.932,0Zm3.932,3.932l-0,1.966l3.932,0l-0,-1.966l-3.932,0Zm-613.404,5.898l0,3.933l1.966,-0l0,-3.933l-1.966,0Zm778.551,0l0,43.253l1.966,0l0,-1.966l1.966,0l0,-39.321l-1.966,0l0,-1.966l-1.966,0Zm-778.551,5.899l0,3.932l-1.966,-0l0,7.864l1.966,-0l0,1.966l3.932,-0l0,-13.762l-3.932,-0Zm674.351,-0l0,1.966l1.966,-0l0,5.898l-1.966,-0l0,19.66l3.932,0l0,-21.626l1.966,-0l0,-1.966l-1.966,-0l0,-1.966l1.966,-0l0,-1.966l-5.898,-0Zm53.083,1.966l0,3.932l3.932,-0l0,5.898l1.966,-0l0,-1.966l1.966,-0l0,-1.966l-1.966,-0l0,-1.966l-1.966,-0l0,-1.966l-1.966,-0l0,-1.966l-1.966,-0Zm27.525,1.966l-0,1.966l1.966,-0l-0,-1.966l-1.966,-0Zm-1.966,1.966l-0,3.932l5.898,-0l-0,-1.966l-3.932,-0l-0,-1.966l-1.966,-0Zm-1.966,3.932l-0,1.966l1.966,-0l-0,-1.966l-1.966,-0Zm-752.993,3.932l0,5.898l1.966,-0l0,3.932l3.932,-0l0,-7.864l-3.932,-0l0,-1.966l-1.966,-0Zm662.555,-0l-0,3.932l1.966,-0l-0,-3.932l-1.966,-0Zm90.438,1.966l-0,1.966l1.966,-0l-0,-1.966l-1.966,-0Zm-23.593,1.966l0,3.932l1.966,-0l0,-3.932l-1.966,-0Zm5.898,-0l0,1.966l1.966,-0l0,1.966l1.966,-0l0,-3.932l-3.932,-0Zm29.491,-0l-0,1.966l1.966,-0l-0,-1.966l-1.966,-0Zm-754.959,1.966l0,1.966l3.933,-0l-0,-1.966l-3.933,-0Zm322.431,-0l-0,1.966l1.966,-0l-0,-1.966l-1.966,-0Zm391.241,-0l-0,1.966l1.966,-0l0,-1.966l-1.966,-0Zm29.491,-0l-0,3.932l1.966,-0l-0,-1.966l1.966,-0l-0,3.932l3.932,0l-0,-3.932l-1.966,-0l-0,-1.966l-5.898,-0Zm-745.129,1.966l0,5.898l1.966,0l0,1.966l1.966,0l0,1.966l1.967,0l-0,-3.932l-1.967,0l0,-3.932l-1.966,-0l0,-1.966l-1.966,-0Zm733.332,-0l0,1.966l1.966,-0l0,-1.966l-1.966,-0Zm-741.196,1.966l0,37.355l1.966,-0l0,-15.729l1.966,0l0,-3.932l-1.966,0l0,-7.864l3.932,0l0,-1.966l-1.966,0l0,-1.966l1.966,0l0,-3.932l-3.932,0l0,-1.966l-1.966,-0Zm721.536,-0l-0,5.898l1.966,0l-0,1.966l1.966,0l0,1.966l-1.966,0l-0,3.932l3.932,0l0,-7.864l-1.966,0l0,-3.932l-1.966,0l-0,-1.966l-1.966,-0Zm21.626,1.966l0,3.932l3.932,0l0,-3.932l-3.932,0Zm-55.049,1.966l0,3.932l1.966,0l0,-3.932l-1.966,0Zm-11.796,1.966l0,9.83l-1.966,0l0,5.898l3.932,0l0,-15.728l-1.966,0Zm15.728,1.966l0,1.966l3.932,0l0,-1.966l-3.932,0Zm-7.864,1.966l0,1.966l1.966,0l0,-1.966l-1.966,0Zm90.438,0l-0,1.966l1.966,0l-0,-1.966l-1.966,0Zm-766.755,1.966l0,1.966l1.966,0l0,1.966l1.966,0l0,-3.932l-3.932,0Zm672.385,0l0,1.966l3.932,0l0,-1.966l-3.932,0Zm62.913,0l0,5.898l1.966,0l0,-5.898l-1.966,0Zm-739.23,1.966l0,3.932l1.966,0l0,-3.932l-1.966,0Zm656.657,1.966l-0,5.898l1.966,0l-0,-5.898l-1.966,0Zm23.592,0l0,1.966l1.966,0l0,-1.966l-1.966,0Zm5.898,1.966l0,1.966l1.966,0l0,1.966l1.966,0l0,-3.932l-3.932,0Zm47.185,0l0,1.966l1.966,0l0,-1.966l-1.966,0Zm-57.015,3.932l0,3.932l1.966,0l0,-1.966l1.966,0l0,1.966l1.966,0l0,-3.932l-5.898,0Zm98.302,1.966l0,11.797l1.966,-0l0,-3.932l1.966,-0l0,-7.865l-3.932,0Zm-119.928,3.933l-0,7.864l3.932,-0l-0,-7.864l-3.932,-0Zm19.66,1.966l0,1.966l5.898,-0l0,-1.966l-5.898,-0Zm-5.898,7.864l-0,1.966l3.932,-0l0,-1.966l-3.932,-0Zm-672.385,1.966l0,13.762l1.966,-0l0,-13.762l-1.966,-0Zm658.623,-0l-0,5.898l1.966,-0l-0,-1.966l1.966,-0l-0,-1.966l-1.966,-0l-0,-1.966l-1.966,-0Zm117.962,3.932l-0,3.932l-1.966,-0l-0,5.898l3.932,-0l0,-9.83l-1.966,-0Zm-104.2,1.966l-0,3.932l-1.966,-0l-0,1.966l3.932,-0l0,-5.898l-1.966,-0Zm11.796,3.932l0,1.966l1.966,-0l0,-1.966l-1.966,-0Zm-19.66,3.932l-0,1.966l1.966,0l-0,-1.966l-1.966,-0Zm53.083,-0l-0,1.966l1.966,0l-0,-1.966l-1.966,-0Zm-51.117,3.932l-0,1.966l-7.864,0l-0,1.966l3.932,0l-0,1.966l-5.898,0l-0,11.796l-1.966,0l-0,3.932l3.932,0l-0,5.899l1.966,-0l-0,1.966l-1.966,-0l-0,-1.966l-1.966,-0l-0,-3.932l-1.966,-0l-0,9.83l1.966,-0l-0,-1.966l1.966,-0l-0,3.932l1.966,-0l-0,1.966l3.932,-0l-0,-1.966l-1.966,-0l-0,-3.932l1.966,-0l-0,-3.932l-1.966,-0l-0,-1.966l3.932,-0l-0,-1.966l-1.966,-0l-0,-1.967l1.966,0l-0,-3.932l-1.966,0l-0,-3.932l-3.932,0l-0,-1.966l-1.966,0l-0,-1.966l1.966,0l-0,-1.966l1.966,0l-0,3.932l1.966,0l-0,1.966l3.932,0l-0,-3.932l3.932,0l-0,-1.966l-5.898,0l-0,-1.966l-1.966,0l-0,-1.966l3.932,0l-0,-3.932l-1.966,0Zm3.932,0l-0,3.932l3.932,0l0,-3.932l-3.932,0Zm21.626,0l0,1.966l1.966,0l0,1.966l1.966,0l0,-1.966l-1.966,0l0,-1.966l-1.966,0Zm7.865,0l-0,1.966l1.966,0l-0,-1.966l-1.966,0Zm15.728,0l-0,1.966l-1.966,0l-0,3.932l1.966,0l-0,-1.966l1.966,0l-0,-3.932l-1.966,0Zm-715.638,1.966l0,25.559l1.966,-0l0,-13.763l1.966,0l0,-3.932l-1.966,0l0,-3.932l1.966,0l0,-1.966l-1.966,0l0,-1.966l-1.966,0Zm682.215,0l0,1.966l3.932,0l0,-1.966l-3.932,0Zm17.695,1.966l-0,1.966l1.966,0l-0,-1.966l-1.966,0Zm-9.831,1.966l0,1.966l1.966,0l0,-1.966l-1.966,0Zm84.54,0l-0,1.966l-1.966,0l-0,9.83l3.932,0l-0,-11.796l-1.966,0Zm-855.226,3.932l-0,1.966l-1.966,0l-0,5.898l5.898,0l-0,3.932l3.932,0l-0,-1.966l1.966,0l-0,-5.898l-1.966,0l-0,-1.966l-3.932,0l-0,-1.966l-3.932,0Zm784.449,0l-0,1.966l1.966,0l-0,-1.966l-1.966,0Zm7.864,0l-0,3.932l1.966,0l-0,-3.932l-1.966,0Zm-703.842,1.966l0,1.966l1.966,0l0,-1.966l-1.966,0Zm674.351,1.966l0,5.898l1.966,0l0,1.966l1.966,0l0,-3.932l-1.966,0l0,-1.966l1.966,0l0,-1.966l-3.932,0Zm-19.66,1.966l-0,3.932l-1.966,0l-0,1.966l-1.966,0l-0,-7.864l1.966,0l-0,1.966l1.966,0Zm11.796,0l0,1.966l3.932,0l0,-1.966l-3.932,0Zm13.762,0l0,5.898l1.966,0l0,-1.966l1.966,0l0,-3.932l-3.932,0Zm27.525,0l-0,1.966l1.966,0l-0,-1.966l-1.966,0Zm-47.185,1.966l-0,5.899l3.932,-0l-0,-5.899l-3.932,0Zm-658.623,1.966l0,5.899l1.966,-0l0,-1.966l1.967,-0l-0,-3.933l-3.933,0Zm721.536,3.933l0,1.966l1.966,-0l0,-1.966l-1.966,-0Zm25.559,-0l-0,3.932l3.932,-0l-0,-1.966l-1.966,-0l-0,-1.966l-1.966,-0Zm15.728,-0l-0,7.864l-1.966,-0l-0,11.796l-1.966,-0l-0,7.864l3.932,0l-0,-13.762l1.966,-0l-0,-13.762l-1.966,-0Zm-104.2,1.966l-0,3.932l1.966,-0l-0,-3.932l-1.966,-0Zm5.898,-0l0,1.966l3.932,-0l0,-1.966l-3.932,-0Zm53.083,-0l0,1.966l1.966,-0l0,-1.966l-1.966,-0Zm7.864,1.966l0,1.966l1.966,-0l0,-1.966l-1.966,-0Zm-735.298,1.966l0,13.762l1.966,-0l0,-13.762l-1.966,-0Zm672.385,-0l-0,3.932l1.966,-0l0,-3.932l-1.966,-0Zm66.845,-0l0,1.966l1.966,-0l0,1.966l1.966,-0l0,-3.932l-3.932,-0Zm5.898,1.966l0,1.966l1.966,-0l0,-1.966l-1.966,-0Zm-739.23,1.966l0,1.966l5.898,-0l0,1.966l1.967,-0l-0,-3.932l-7.865,-0Zm745.128,-0l0,3.932l1.967,-0l-0,-3.932l-1.967,-0Zm-98.301,1.966l-0,13.762l1.966,0l-0,-1.966l1.966,-0l-0,-11.796l-3.932,-0Zm13.762,-0l-0,15.728l1.966,0l-0,-3.932l1.966,-0l-0,-11.796l-3.932,-0Zm-7.864,3.932l-0,5.898l1.966,-0l-0,-1.966l1.966,-0l-0,-3.932l-3.932,-0Zm-770.687,1.966l0,1.966l-1.966,-0l0,1.966l-1.966,-0l0,1.966l1.966,-0l0,1.966l1.966,0l0,-1.966l5.898,-0l0,1.966l3.932,0l0,-5.898l-1.966,-0l0,-1.966l-7.864,-0Zm33.423,-0l-0,1.966l-1.966,-0l-0,1.966l-1.966,-0l-0,3.932l3.932,0l-0,1.966l5.898,0l-0,-1.966l1.966,0l-0,-5.898l-1.966,-0l-0,-1.966l-5.898,-0Zm798.211,-0l-0,5.898l5.898,-0l0,-1.966l1.966,-0l0,-1.966l-1.966,-0l0,-1.966l-5.898,-0Zm-766.755,1.966l0,1.966l-1.966,-0l0,3.932l-1.966,0l0,3.932l7.864,0l0,-1.966l3.933,0l-0,-1.966l-1.967,0l0,-5.898l-5.898,-0Zm806.076,-0l-0,3.932l1.966,-0l-0,-3.932l-1.966,-0Zm-758.891,1.966l0,17.694l1.966,0l0,-7.864l1.966,0l0,3.932l1.966,0l0,-3.932l-1.966,0l0,-1.966l-1.966,0l0,-1.966l1.966,0l0,-1.966l1.966,0l0,-3.932l-1.966,-0l0,1.966l-1.966,-0l0,-1.966l-1.966,-0Zm762.823,-0l-0,1.966l3.932,-0l-0,-1.966l-3.932,-0Zm-752.993,7.864l0,1.966l1.966,0l0,-1.966l-1.966,0Zm756.925,0l-0,1.966l-1.966,0l-0,15.728l-1.966,0l-0,15.729l-1.966,-0l-0,-1.966l-3.932,-0l-0,1.966l1.966,-0l-0,1.966l1.966,-0l-0,17.694l-3.932,0l-0,1.966l1.966,0l-0,1.966l-3.932,0l-0,-3.932l-1.966,0l-0,-1.966l1.966,0l-0,-1.966l-5.899,0l0,3.932l3.933,0l-0,3.932l-1.967,0l0,1.966l-1.966,0l0,9.83l3.933,0l-0,-3.932l-1.967,0l0,-1.966l1.967,0l-0,-1.966l3.932,0l-0,5.898l1.966,0l-0,-5.898l3.932,0l-0,-11.796l1.966,0l-0,-19.66l1.966,-0l-0,-9.831l1.966,0l-0,-13.762l1.966,0l-0,-5.898l-3.932,0Zm-110.098,3.932l-0,1.966l1.966,0l-0,-1.966l-1.966,0Zm7.864,0l-0,3.932l3.932,0l-0,-3.932l-3.932,0Zm-11.796,1.966l-0,1.966l-1.966,0l-0,5.898l1.966,0l-0,1.966l1.966,0l-0,-9.83l-1.966,0Zm-644.861,1.966l0,3.932l1.966,0l0,-3.932l-1.966,0Zm648.793,0l-0,1.966l1.966,0l-0,1.966l-1.966,0l-0,3.932l3.932,0l-0,-7.864l-3.932,0Zm53.083,0l-0,1.966l1.966,0l-0,-1.966l-1.966,0Zm-11.797,1.966l0,1.966l-1.966,0l0,1.966l-1.966,0l0,1.966l1.966,0l0,1.966l5.899,0l-0,-3.932l1.966,0l-0,-1.966l-1.966,0l-0,-1.966l-3.933,0Zm-694.011,1.966l0,3.932l-3.932,0l0,3.932l3.932,0l0,1.966l1.966,0l0,-9.83l-1.966,0Zm660.589,0l-0,7.864l1.966,0l-0,-7.864l-1.966,0Zm53.083,0l-0,1.966l-1.966,0l-0,1.966l1.966,0l-0,3.932l1.966,0l-0,1.966l1.966,0l-0,-3.932l1.966,0l-0,-5.898l-5.898,0Zm21.626,0l0,1.966l-1.966,0l0,1.966l-1.966,0l0,3.932l1.966,0l0,1.966l1.966,0l0,-1.966l1.966,0l0,-1.966l1.966,0l0,-5.898l-3.932,0Zm-88.471,3.932l-0,1.966l1.966,0l-0,-1.966l-1.966,0Zm3.932,1.966l-0,3.932l-1.966,0l-0,3.933l3.932,-0l-0,1.966l1.966,-0l-0,3.932l1.966,-0l-0,-11.797l-1.966,0l-0,-1.966l-3.932,0Zm17.694,0l-0,1.966l1.966,0l0,1.966l1.966,0l0,-3.932l-3.932,0Zm-751.026,1.966l-0,1.966l-3.932,0l-0,5.899l3.932,-0l-0,-1.966l1.966,-0l-0,-1.966l3.932,-0l-0,1.966l1.966,-0l-0,-3.933l-3.932,0l-0,-1.966l-3.932,0Zm-70.778,1.966l0,9.831l1.966,-0l0,-9.831l-1.966,0Zm153.351,1.967l0,5.898l1.966,-0l0,-5.898l-1.966,-0Zm654.691,-0l-0,1.966l-1.966,-0l-0,-1.966l1.966,-0Zm3.932,-0l-0,3.932l3.932,-0l-0,-3.932l-3.932,-0Zm-13.762,1.966l-0,1.966l3.932,-0l-0,1.966l-3.932,-0l-0,1.966l-1.966,-0l-0,3.932l3.932,-0l-0,-1.966l1.966,-0l-0,-1.966l1.966,-0l-0,1.966l3.932,-0l-0,-1.966l-1.966,-0l-0,-3.932l-3.932,-0l-0,-1.966l-3.932,-0Zm-640.929,3.932l0,1.966l1.966,-0l0,-1.966l-1.966,-0Zm654.691,1.966l-0,1.966l1.966,-0l-0,-1.966l-1.966,-0Zm7.864,-0l-0,1.966l1.966,-0l-0,-1.966l-1.966,-0Zm-666.487,1.966l0,1.966l3.932,-0l0,-1.966l-3.932,-0Zm652.725,1.966l-0,1.966l-1.966,-0l-0,1.966l-1.966,-0l-0,-1.966l-5.898,-0l-0,1.966l3.932,-0l-0,3.932l1.966,-0l-0,-1.966l5.898,-0l-0,-3.932l1.966,-0l-0,-1.966l-3.932,-0Zm57.015,-0l-0,1.966l-1.966,-0l-0,3.932l1.966,-0l-0,1.966l5.898,-0l-0,-7.864l-5.898,-0Zm39.321,-0l-0,1.966l1.966,-0l-0,-1.966l-1.966,-0Zm-902.412,1.966l0,7.864l1.966,-0l0,1.966l1.967,-0l-0,-1.966l1.966,-0l-0,-1.966l-1.966,-0l-0,-5.898l-3.933,-0Zm153.351,-0l0,7.864l1.966,-0l0,-7.864l-1.966,-0Zm745.128,3.932l0,3.932l3.933,-0l-0,1.966l5.898,-0l-0,-5.898l-5.898,-0l-0,1.966l1.966,-0l-0,1.966l-1.966,-0l-0,-1.966l-1.967,-0l0,-1.966l-1.966,-0Zm-102.233,1.966l-0,5.898l-1.967,0l0,5.898l1.967,0l-0,7.864l-1.967,0l0,13.763l-1.966,-0l0,5.898l-1.966,-0l0,3.932l1.966,-0l0,5.898l-1.966,-0l0,15.728l-1.966,0l0,3.932l1.966,0l0,1.966l-1.966,0l0,5.898l1.966,0l0,1.966l-1.966,0l0,3.932l-1.966,0l0,23.593l-1.966,-0l0,19.66l-1.966,0l0,15.729l-1.966,-0l0,15.728l-1.966,-0l0,3.932l1.966,-0l0,3.932l-1.966,0l0,7.864l1.966,0l0,1.966l5.898,0l0,-1.966l-1.966,0l0,-1.966l1.966,0l0,-1.966l1.966,0l0,-1.966l3.932,0l0,-3.932l1.966,-0l0,-3.932l1.967,-0l-0,9.83l-1.967,0l0,11.796l-1.966,0l0,9.831l-1.966,-0l0,-1.967l-3.932,0l0,1.967l-1.966,-0l0,-3.933l-1.966,0l0,-1.966l1.966,0l0,-3.932l1.966,0l0,-3.932l-7.864,0l0,3.932l-1.966,0l0,9.831l-9.83,-0l-0,1.966l-3.932,-0l-0,1.966l-1.966,-0l-0,-1.966l-3.932,-0l-0,1.966l-7.864,-0l-0,-1.966l-23.593,-0l0,1.966l-1.966,-0l0,-1.966l-31.456,-0l-0,1.966l-3.933,-0l0,-1.966l-5.898,-0l0,1.966l-31.456,-0l-0,1.966l-1.966,-0l-0,-1.966l-1.966,-0l-0,1.966l-13.763,-0l0,-1.966l-9.83,-0l0,1.966l-1.966,-0l0,-1.966l-3.932,-0l0,1.966l-27.524,-0l-0,1.966l-55.049,-0l-0,1.966l-5.899,-0l0,-1.966l-5.898,-0l0,1.966l-51.117,-0l0,1.966l-1.966,-0l0,-1.966l-5.898,-0l0,1.966l-27.524,-0l-0,1.966l-13.763,-0l0,1.966l-3.932,-0l0,-3.932l-1.966,-0l0,3.932l-1.966,-0l0,-3.932l-5.898,-0l0,1.966l-9.83,-0l-0,-1.966l-3.932,-0l-0,3.932l-1.966,-0l-0,-1.966l-11.796,-0l-0,1.966l-1.966,-0l-0,-1.966l-21.627,-0l0,5.898l-9.83,-0l0,1.966l1.966,-0l0,3.932l-1.966,-0l0,-1.966l-1.966,-0l-0,-3.932l-1.966,-0l-0,-1.966l7.864,-0l0,-3.932l-17.694,-0l-0,1.966l-1.966,-0l-0,1.966l-1.966,-0l-0,1.966l-13.763,-0l0,-1.966l-47.184,-0l-0,1.966l-49.151,-0l-0,1.966l-21.627,-0l0,1.966l-5.898,-0l0,-1.966l-1.966,-0l0,1.966l-7.864,-0l-0,1.966l-3.932,-0l-0,-1.966l-1.966,-0l-0,1.966l-9.83,-0l-0,-1.966l-1.966,-0l-0,-3.932l-1.966,-0l-0,-1.966l1.966,-0l-0,-1.966l-5.899,-0l0,5.898l1.966,-0l0,1.966l-1.966,-0l0,-1.966l-1.966,-0l0,-1.966l-3.932,-0l0,11.796l1.966,0l0,1.966l-1.966,0l0,-1.966l-1.966,0l0,-3.932l-1.966,0l0,-1.966l1.966,-0l0,-1.966l-3.932,-0l0,-3.932l-1.966,-0l0,-1.966l-1.966,-0l0,-1.966l1.966,-0l0,1.966l1.966,-0l0,1.966l1.966,-0l0,-1.966l1.966,-0l0,-21.627l-1.966,0l0,-1.966l1.966,0l0,-1.966l-1.966,0l0,-1.966l-1.966,0l0,5.898l1.966,0l0,5.899l-1.966,-0l0,3.932l-1.966,-0l0,1.966l1.966,-0l0,1.966l1.966,-0l0,1.966l-3.932,-0l0,1.966l-1.966,-0l0,-1.966l-1.966,-0l0,3.932l-1.966,-0l0,1.966l3.932,-0l0,1.966l-1.966,-0l0,1.966l-1.966,-0l0,-3.932l-1.966,-0l0,-1.966l-1.966,-0l-0,-1.966l-3.932,-0l-0,1.966l1.966,-0l-0,1.966l1.966,-0l-0,1.966l1.966,-0l0,1.966l1.966,-0l0,3.932l-1.966,-0l0,3.932l-1.966,0l-0,3.932l-1.966,0l-0,1.966l-1.966,0l-0,1.966l-9.83,0l-0,-1.966l-1.966,0l-0,1.966l-5.898,0l-0,1.966l-5.899,0l0,-1.966l1.967,0l-0,-5.898l-1.967,0l0,-1.966l-1.966,0l0,5.898l-1.966,0l0,-3.932l-1.966,0l0,1.966l-7.864,0l0,-1.966l-1.966,0l0,1.966l-1.966,0l0,-3.932l1.966,0l0,-19.66l-1.966,-0l0,-3.932l-3.932,-0l0,-1.966l-11.796,-0l-0,-1.966l-1.966,-0l-0,1.966l-1.966,-0l-0,1.966l-5.898,-0l-0,-1.966l-3.932,-0l-0,3.932l1.966,-0l-0,1.966l-1.966,-0l-0,5.898l-1.966,-0l-0,-1.966l-3.933,-0l0,-3.932l-3.932,-0l0,3.932l1.966,-0l0,1.966l1.966,-0l0,1.966l1.967,-0l-0,3.932l1.966,-0l-0,1.966l1.966,-0l-0,3.932l-1.966,0l-0,-1.966l-1.966,-0l-0,-1.966l-1.967,-0l0,1.966l-5.898,-0l0,1.966l-1.966,0l0,-3.932l3.932,-0l0,-1.966l-3.932,-0l0,-1.966l-1.966,-0l0,-3.932l-1.966,-0l0,5.898l-1.966,-0l0,-1.966l-3.932,-0l0,3.932l1.966,-0l0,3.932l-1.966,0l0,-1.966l-3.932,-0l0,-3.932l1.966,-0l0,-1.966l-1.966,-0l0,-5.898l-1.966,-0l0,-3.932l-3.932,-0l-0,-1.966l-1.966,-0l-0,-3.932l-3.932,-0l-0,-1.966l1.966,-0l-0,-3.933l-3.932,0l-0,1.967l-1.966,-0l-0,-5.899l-1.966,0l-0,-1.966l-1.966,0l-0,-1.966l-1.966,0l-0,-3.932l1.966,0l-0,-3.932l1.966,0l-0,3.932l1.966,0l-0,-5.898l-5.898,0l-0,-5.898l-1.966,0l-0,-1.966l-1.966,-0l-0,-1.966l1.966,-0l-0,1.966l1.966,-0l-0,-1.966l5.898,-0l-0,-1.966l-3.932,-0l-0,-1.966l-3.932,-0l-0,-3.932l-1.966,-0l-0,-3.932l1.966,-0l-0,1.966l1.966,-0l-0,-1.966l-1.966,-0l-0,-1.966l1.966,-0l-0,-5.898l-1.966,-0l-0,-5.899l-1.966,0l-0,-3.932l1.966,0l-0,-3.932l-1.966,0l-0,-1.966l-1.966,0l-0,5.898l-1.966,0l-0,1.966l1.966,0l-0,9.831l1.966,-0l-0,3.932l-1.966,-0l-0,-3.932l-3.933,-0l0,-7.865l-1.966,0l0,-13.762l1.966,0l0,-1.966l-1.966,0l0,-9.83l3.933,-0l-0,3.932l3.932,0l-0,3.932l-3.932,0l-0,3.932l3.932,0l-0,1.966l3.932,0l-0,-3.932l-1.966,0l-0,-1.966l1.966,0l-0,-5.898l1.966,0l-0,-1.966l-3.932,-0l-0,3.932l-1.966,0l-0,-1.966l-1.966,0l-0,-3.932l5.898,-0l-0,-1.966l-5.898,-0l-0,-1.966l1.966,-0l-0,-1.966l-1.966,-0l-0,-1.966l-3.933,-0l0,1.966l-1.966,-0l0,1.966l-1.966,-0l0,-1.966l-1.966,-0l0,-1.966l-1.966,-0l0,-3.932l-1.966,-0l0,-1.966l3.932,-0l0,-3.932l-1.966,-0l0,-1.966l-3.932,-0l0,-1.966l-1.966,-0l0,-1.967l1.966,0l0,-1.966l1.966,0l0,-3.932l7.864,0l0,-3.932l-3.932,0l0,-1.966l-5.898,0l0,-1.966l-1.966,0l0,-1.966l-1.966,0l0,-3.932l-1.966,0l0,39.321l1.966,-0l0,1.966l3.932,-0l0,1.966l3.932,-0l0,3.932l1.966,0l0,35.389l9.831,-0l-0,1.966l-5.899,-0l0,3.932l1.966,-0l0,5.898l1.967,-0l-0,3.932l-1.967,-0l0,7.864l1.967,0l-0,1.966l-1.967,0l0,3.932l1.967,0l-0,3.932l-1.967,0l0,3.932l-1.966,0l0,-1.966l-1.966,0l0,-1.966l1.966,0l0,-3.932l-1.966,0l0,-3.932l1.966,0l0,-1.966l-1.966,0l0,-21.626l-1.966,-0l0,-1.966l-1.966,-0l0,-1.966l-3.932,-0l0,-1.966l-3.932,-0l0,5.898l1.966,-0l0,68.811l1.966,0l0,31.457l-1.966,-0l0,41.286l1.966,0l0,7.865l1.966,-0l0,17.694l1.966,-0l0,17.694l1.966,0l0,21.627l1.966,-0l0,23.592l1.966,0l0,43.253l1.966,-0l0,7.864l1.967,0l-0,33.423l1.966,-0l-0,27.524l1.966,0l-0,27.525l1.966,-0l-0,25.558l1.966,0l-0,19.661l1.966,-0l-0,21.626l1.966,-0l-0,68.811l1.966,0l-0,86.506l1.966,-0l-0,13.762l1.966,0l-0,9.83l1.966,0l-0,3.932l1.966,0l-0,3.933l1.966,-0l-0,5.898l1.966,-0l-0,5.898l1.966,-0l0,3.932l1.966,-0l0,1.966l1.966,-0l0,5.898l1.966,-0l0,1.966l1.966,0l0,3.932l1.966,0l0,1.966l1.966,0l0,3.932l1.966,0l0,3.932l1.966,0l0,1.966l1.966,0l0,1.966l1.966,0l0,3.932l1.966,0l0,1.966l1.966,0l0,1.967l1.967,-0l-0,1.966l1.966,-0l-0,1.966l1.966,-0l-0,1.966l1.966,-0l-0,1.966l3.932,-0l-0,1.966l1.966,-0l-0,1.966l1.966,-0l-0,1.966l3.932,-0l-0,1.966l1.966,-0l-0,1.966l5.898,-0l-0,1.966l3.932,-0l0,1.966l7.864,-0l0,1.966l5.898,-0l0,1.966l21.627,-0l-0,1.966l47.185,0l-0,-1.966l19.66,-0l0,-1.966l9.83,-0l0,-1.966l25.559,-0l-0,-1.966l11.796,-0l-0,-1.966l9.83,-0l0,-1.966l7.864,-0l0,-1.966l3.932,-0l0,-1.966l7.864,-0l0,-1.966l9.831,-0l-0,-1.966l7.864,-0l-0,-1.966l7.864,-0l-0,-1.966l5.898,-0l0,-1.966l19.66,-0l0,-1.966l9.831,-0l-0,1.966l35.388,-0l0,1.966l15.729,-0l-0,1.966l15.728,-0l-0,-1.966l7.864,-0l0,-1.966l9.83,-0l0,-1.966l7.864,-0l0,-1.967l5.898,0l0,-1.966l9.831,0l-0,-1.966l3.932,0l-0,-1.966l11.796,0l-0,-1.966l9.83,0l0,-1.966l9.83,0l0,-1.966l7.864,0l0,-1.966l5.899,0l-0,-1.966l7.864,0l-0,-1.966l7.864,0l-0,-1.966l7.864,0l0,-1.966l5.898,0l0,-1.966l5.898,0l0,-1.966l7.864,-0l0,-1.966l11.797,-0l-0,-1.966l9.83,-0l-0,-1.966l13.762,-0l0,-1.966l7.864,-0l0,-1.966l13.762,-0l0,-1.966l9.831,-0l-0,-1.966l9.83,-0l-0,-1.966l9.83,-0l0,-1.966l5.898,-0l0,-1.966l9.83,-0l0,-1.966l11.797,-0l-0,-1.966l9.83,-0l-0,-1.967l7.864,0l-0,-1.966l7.864,0l0,-1.966l7.864,0l0,-1.966l9.83,0l0,-1.966l9.831,0l-0,-1.966l7.864,0l-0,-1.966l5.898,0l-0,-1.966l9.83,0l0,-1.966l9.83,0l0,-1.966l9.83,0l0,-1.966l9.831,0l-0,-1.966l3.932,0l-0,-1.966l11.796,0l-0,-1.966l9.83,0l0,-1.966l9.83,-0l0,-1.966l9.83,-0l0,-1.966l7.865,-0l-0,-1.966l17.694,-0l-0,-1.966l9.83,-0l0,-1.966l7.864,-0l0,-1.966l7.864,-0l0,-1.966l3.932,-0l0,-1.966l7.865,-0l-0,-1.966l7.864,-0l-0,-1.966l5.898,-0l-0,-1.966l9.83,-0l0,-1.966l9.83,-0l0,-1.967l15.729,0l-0,-1.966l17.694,0l-0,-1.966l9.83,0l0,-1.966l5.898,0l0,-1.966l3.932,0l0,-1.966l5.898,0l0,-1.966l3.932,0l0,-1.966l5.899,0l-0,-1.966l5.898,0l-0,-1.966l3.932,0l-0,-1.966l11.796,0l-0,-1.966l15.728,0l0,-1.966l15.729,0l-0,-1.966l13.762,0l-0,-1.966l5.898,-0l-0,-1.966l9.83,-0l0,-1.966l5.898,-0l0,-1.966l5.898,-0l0,-1.966l3.932,-0l0,-1.966l3.933,-0l-0,-1.966l1.966,-0l-0,-1.966l3.932,-0l-0,-1.966l1.966,-0l-0,-1.966l1.966,-0l-0,-1.966l1.966,-0l-0,-1.966l1.966,-0l-0,-1.966l1.966,-0l-0,-3.933l1.966,0l-0,-1.966l1.966,0l-0,-3.932l1.966,0l-0,-5.898l1.966,0l-0,-11.796l1.966,0l-0,-35.389l-1.966,0l-0,-7.864l-1.966,0l-0,-1.966l-1.966,0l-0,5.898l1.966,0l-0,17.695l1.966,-0l-0,3.932l-1.966,-0l-0,17.694l-1.966,0l-0,3.932l-1.966,0l-0,7.864l-3.932,0l-0,1.966l-1.966,0l-0,5.898l-1.966,0l-0,1.966l-3.932,0l-0,1.966l-3.932,0l-0,3.933l-5.899,-0l0,1.966l-3.932,-0l0,1.966l-5.898,-0l0,1.966l-9.83,-0l0,3.932l-15.728,-0l-0,1.966l-5.898,-0l-0,1.966l-19.661,-0l0,3.932l-13.762,-0l0,1.966l-9.83,-0l-0,1.966l-7.864,-0l-0,1.966l-7.864,-0l-0,1.966l-1.967,0l0,1.966l-3.932,0l0,-1.966l-3.932,0l0,1.966l-3.932,0l0,-5.898l1.966,-0l0,-3.932l1.966,-0l0,-19.661l-1.966,0l0,-5.898l-3.932,0l0,3.932l1.966,0l0,13.763l-1.966,-0l0,3.932l-1.966,-0l0,3.932l-1.966,-0l0,1.966l-1.966,-0l0,1.966l-1.966,-0l0,1.966l-1.966,-0l0,1.966l-1.966,0l0,1.966l-5.898,0l-0,1.966l-5.898,0l-0,1.966l-7.864,0l-0,-1.966l-1.966,0l-0,-3.932l-3.932,0l-0,1.966l-1.967,0l0,5.898l-3.932,0l0,1.966l-13.762,0l0,1.966l-7.864,0l0,1.966l-11.796,0l-0,1.966l-5.898,0l-0,1.966l-9.831,0l0,1.966l-9.83,0l0,1.966l-9.83,0l0,1.966l-9.83,0l-0,1.966l-7.864,0l-0,1.967l-9.83,-0l-0,1.966l-7.865,-0l0,1.966l-11.796,-0l0,1.966l-7.864,-0l0,1.966l-7.864,-0l-0,1.966l-9.83,-0l-0,1.966l-9.83,-0l-0,1.966l-1.966,-0l-0,-1.966l-1.967,-0l0,1.966l-7.864,-0l0,1.966l-9.83,-0l0,1.966l-7.864,-0l-0,1.966l-11.796,-0l-0,1.966l-7.864,-0l-0,1.966l-9.831,-0l0,1.966l-13.762,0l0,1.966l-5.898,0l0,1.966l-1.966,0l0,-1.966l-1.966,0l-0,1.966l-5.898,0l-0,1.966l-13.762,0l-0,1.966l-5.899,0l0,1.966l-7.864,0l0,1.966l-11.796,0l0,1.966l-11.796,0l-0,1.966l-9.83,0l-0,1.966l-9.83,0l-0,1.966l-7.865,0l0,1.966l-1.966,0l0,-1.966l-3.932,0l0,1.966l-5.898,0l0,1.966l-1.966,0l0,-1.966l-3.932,0l0,1.966l-7.864,0l-0,1.966l-5.898,0l-0,1.967l-15.729,-0l0,1.966l-5.898,-0l0,1.966l-7.864,-0l0,1.966l-1.966,-0l0,-1.966l-1.966,-0l0,1.966l-5.898,-0l0,1.966l-9.83,-0l-0,1.966l-1.966,-0l-0,-1.966l-1.966,-0l-0,1.966l-5.898,-0l-0,1.966l-11.797,-0l0,1.966l-7.864,-0l0,1.966l-1.966,-0l0,-1.966l-3.932,-0l0,1.966l-5.898,-0l0,1.966l-7.864,-0l-0,1.966l-9.83,-0l-0,1.966l-1.966,-0l-0,-1.966l-1.966,-0l-0,1.966l-5.898,-0l-0,1.966l-13.763,-0l0,1.966l-5.898,0l0,1.966l-1.966,0l0,-1.966l-3.932,0l0,1.966l-9.83,0l-0,1.966l-5.898,0l-0,1.966l-9.83,0l-0,1.966l-1.966,0l-0,-1.966l-1.966,0l-0,1.966l-5.899,0l0,1.966l-19.66,0l0,-1.966l-9.83,0l-0,-1.966l-5.898,0l-0,-1.966l-9.83,0l-0,-1.966l-1.967,0l0,-1.966l-1.966,0l0,-1.966l-1.966,-0l0,-1.966l-1.966,-0l0,-1.966l-1.966,-0l0,-5.898l-1.966,-0l0,-3.932l-1.966,-0l0,-3.932l-1.966,-0l0,-3.932l-1.966,-0l0,-7.865l-1.966,0l0,-7.864l-1.966,0l0,-11.796l-1.966,0l0,-9.83l-1.966,-0l0,-7.864l-1.966,-0l0,-9.83l-1.966,-0l-0,-9.831l-1.966,0l-0,-13.762l-1.966,0l-0,-7.864l-1.966,-0l-0,-9.83l-1.966,-0l-0,-9.83l-1.966,-0l-0,-9.831l-1.966,0l-0,-9.83l-1.966,0l-0,-13.762l-1.966,-0l-0,-9.83l-1.966,-0l-0,-11.796l-1.966,-0l-0,-11.797l-1.966,0l-0,-11.796l-1.966,0l-0,-5.898l-1.967,-0l0,-13.762l-1.966,-0l0,-13.763l-1.966,0l0,-9.83l-1.966,0l0,-9.83l-1.966,0l0,-11.796l-1.966,-0l0,-9.83l-1.966,-0l0,-13.763l-1.966,0l0,-11.796l-1.966,0l0,-9.83l-1.966,-0l0,-11.796l-1.966,-0l0,-9.83l-1.966,-0l0,-13.763l-1.966,0l0,-13.762l-1.966,0l0,-9.83l-1.966,-0l-0,-13.762l-1.966,-0l-0,-9.831l-1.966,0l-0,-11.796l-1.966,0l-0,-9.83l-1.966,0l-0,-13.762l-1.966,-0l-0,-9.83l-1.966,-0l-0,-9.831l-1.966,0l-0,-11.796l-1.966,0l-0,-13.762l-1.966,-0l-0,-17.694l5.898,-0l-0,-1.966l35.388,-0l0,-1.967l33.423,0l0,-1.966l45.219,0l-0,1.966l1.966,0l-0,-1.966l-1.966,0l-0,-1.966l15.728,0l0,1.966l1.966,0l0,1.966l11.796,0l0,-3.932l-7.864,0l0,1.966l-3.932,0l0,-1.966l-1.966,0l0,-1.966l9.83,0l0,-1.966l1.966,0l0,1.966l1.966,0l0,1.966l3.933,0l-0,-1.966l21.626,0l-0,-1.966l1.966,0l-0,1.966l3.932,0l0,-1.966l35.389,0l-0,-1.966l9.83,0l-0,-1.966l5.898,0l0,1.966l7.864,0l0,-1.966l1.966,0l0,3.932l1.966,0l0,-3.932l-1.966,0l0,-1.966l3.932,0l0,3.932l1.966,0l0,-1.966l31.457,0l-0,-1.966l1.966,0l-0,1.966l1.966,0l0,-1.966l25.558,0l0,-1.966l41.287,0l0,-1.966l31.457,0l-0,-1.966l45.219,0l-0,-1.966l27.524,0l0,-1.966l1.966,0l0,-1.966l1.966,-0l0,1.966l23.593,0l-0,-1.966l25.558,-0l0,-1.966l13.763,-0l-0,1.966l1.966,-0l-0,1.966l1.966,0l-0,3.932l1.966,0l-0,1.966l1.966,0l-0,1.966l1.966,0l-0,-5.898l-1.966,0l-0,-1.966l1.966,0l-0,1.966l3.932,0l-0,-1.966l1.966,0l-0,1.966l15.728,0l0,-1.966l3.932,0l0,-1.966l25.559,-0l-0,-1.966l5.898,-0l-0,-1.966l9.83,-0l-0,-1.966l1.966,-0l-0,1.966l1.966,-0l0,-1.966l1.966,-0l0,-3.932l21.626,-0l0,-1.966l27.525,-0l0,1.966l7.864,-0l0,1.966l3.932,-0l0,-3.932l-1.966,-0l0,-1.966l-1.966,-0l0,-5.898l1.966,-0l0,-1.966l1.966,-0l0,1.966l3.932,-0l0,-9.831l1.966,0l0,-5.898l1.966,0l0,-9.83l-3.932,0l0,5.898l-7.864,0l0,3.932l-5.898,0l0,-1.966l-1.966,0l0,1.966l-11.796,0l-0,-1.966l-5.898,0l-0,3.932l-9.831,0l0,-3.932l-3.932,0l0,3.932l-9.83,0l0,-13.762l-1.966,0l0,-3.932l-1.966,0l0,-7.864l15.728,-0l0,-1.966l9.831,-0l-0,-3.932l-21.627,-0l0,1.966l-1.966,-0l0,-1.966l-7.864,-0l0,7.864l1.966,-0l0,1.966l1.966,-0l0,5.898l1.966,0l0,15.728l-1.966,0l0,-1.966l-5.898,0l-0,1.966l-1.966,0l-0,-3.932l-5.898,0l-0,5.898l-1.966,0l-0,-1.966l-5.898,0l-0,1.966l-7.864,0l-0,-1.966l-15.729,0l0,1.966l-13.762,0l-0,-3.932l-1.966,0l-0,3.932l-3.932,0l-0,-1.966l-1.966,0l-0,1.966l-11.796,0l-0,1.966l-1.966,0l-0,-1.966l-9.831,0l0,1.966l-1.966,0l0,-1.966l-9.83,0l0,1.966l-39.321,0l0,1.966l-1.966,0l0,-1.966l-7.864,0l0,1.966l-13.762,0l-0,1.967l-7.864,-0l-0,-1.967l-5.898,0l-0,1.967l-11.797,-0l0,1.966l-3.932,-0l0,-1.966l-1.966,-0l0,1.966l-23.592,-0l-0,1.966l-19.66,-0l-0,1.966l-1.966,-0l-0,-1.966l-9.831,-0l0,1.966l-3.932,-0l0,-1.966l-5.898,-0l0,-1.966l-1.966,-0l0,1.966l1.966,-0l0,1.966l-27.524,-0l-0,1.966l-1.966,-0l-0,-1.966l-1.966,-0l-0,-1.966l-1.966,-0l-0,1.966l-7.865,-0l0,3.932l-1.966,-0l0,-1.966l-1.966,-0l0,-1.966l-7.864,-0l0,1.966l1.966,-0l0,1.966l-5.898,-0l0,-1.966l-19.66,-0l-0,-1.966l-1.966,-0l-0,1.966l-5.898,-0l-0,1.966l-3.933,-0l0,-1.966l-1.966,-0l0,1.966l-17.694,-0l0,-1.966l-3.932,-0l0,1.966l-5.898,-0l-0,1.966l-1.966,-0l-0,-1.966l-5.898,-0l-0,1.966l-3.932,-0l-0,-1.966l-3.932,-0l-0,1.966l-17.695,-0l0,1.966l-1.966,-0l0,-1.966l-1.966,-0l0,1.966l-1.966,-0l0,-1.966l-1.966,-0l0,1.966l-1.966,-0l0,-1.966l-3.932,-0l0,1.966l-17.694,-0l-0,1.966l-3.932,-0l-0,-1.966l-5.898,-0l-0,1.966l-39.321,-0l-0,1.966l-29.491,-0l0,1.966l-3.932,-0l0,-1.966l-3.932,-0l0,1.966l-13.762,-0l-0,-1.966l-1.966,-0l-0,1.966l-13.763,-0l0,1.966l-19.66,-0l0,1.966l-9.83,-0l-0,-1.966l-1.966,-0l-0,1.966l-27.525,-0l0,1.966l-9.83,-0l0,1.966l-1.966,0l0,-1.966l-3.932,-0l0,1.966l-5.898,0l-0,-1.966l-7.864,-0l-0,1.966l-1.966,0l-0,-1.966l-3.932,-0l-0,1.966l-5.898,0l-0,-1.966l-1.966,-0l-0,1.966l-5.899,0l0,-1.966l-3.932,-0l0,1.966l-9.83,0l0,-3.932l-1.966,-0l0,3.932l-3.932,0l0,1.966l-1.966,0l0,-1.966l-5.898,0l-0,1.966l-1.966,0l-0,-1.966l-5.898,0l-0,1.966l-15.729,0l0,-3.932l-1.966,-0l0,-1.966l1.966,-0l0,-7.864l-1.966,-0l0,-5.898l-3.932,-0l0,11.796l1.966,-0l0,5.898l-3.932,0l0,1.966l-11.796,0l0,-1.966l-5.898,0l-0,1.966l-17.694,0l-0,-1.966l-3.932,0l-0,1.966l1.966,0l-0,1.966l-3.932,0l-0,-1.966l-27.525,0l0,1.966l-1.966,0l-0,-1.966l-7.864,0l-0,-1.966l-3.932,0l-0,-1.966l-3.932,-0l-0,5.898l-3.932,0l-0,-11.796l-1.966,-0l-0,-7.864l1.966,-0l-0,-3.932l1.966,-0l-0,-1.966l1.966,-0l-0,-3.932l7.864,-0l-0,-1.966l27.524,-0l0,-1.967l1.966,0l0,1.967l13.763,-0l-0,-1.967l27.524,0l0,-1.966l1.966,0l0,1.966l3.932,0l0,-1.966l1.966,0l0,1.966l1.966,0l0,-1.966l1.966,0l0,-5.898l33.423,0l0,-1.966l15.728,0l0,-1.966l1.966,0l0,-1.966l1.966,0l0,1.966l15.729,0l-0,-1.966l1.966,0l-0,1.966l1.966,0l-0,-1.966l49.151,0l-0,-1.966l51.117,0l-0,-1.966l43.252,0l0,-1.966l5.899,0l-0,-1.966l1.966,0l-0,1.966l11.796,0l-0,-1.966l9.83,0l0,1.966l1.966,0l0,-1.966l1.966,0l0,1.966l5.898,0l0,-1.966l1.966,0l0,1.966l7.864,0l0,-1.966l27.525,0l-0,-1.966l5.898,0l0,1.966l5.898,0l0,-1.966l31.457,0l-0,-1.966l1.966,-0l-0,1.966l7.864,0l-0,-1.966l1.966,-0l-0,1.966l1.966,0l0,-1.966l47.185,-0l-0,-1.966l55.049,-0l-0,-1.966l47.185,-0l-0,-1.966l1.966,-0l-0,1.966l3.932,-0l-0,-1.966l17.694,-0l0,1.966l1.966,-0l0,1.966l3.932,-0l0,-3.932l17.695,-0l-0,-1.966l21.626,-0l0,3.932l15.728,-0l0,-3.932l-3.932,-0l0,-1.966l39.321,-0l0,3.932l5.898,-0l0,-3.932l1.966,-0l0,-1.966l33.423,-0l-0,-1.966l1.966,-0l-0,1.966l1.966,-0l-0,3.932l3.932,-0l0,-1.966l1.966,-0l0,-1.966l1.966,-0l0,1.966l5.898,-0l0,-1.966l1.966,-0l0,-1.966l1.966,-0l0,-1.966l1.966,-0l0,1.966l1.966,-0l0,1.966l25.559,-0l-0,-1.966l1.966,-0l-0,1.966l3.932,-0l-0,-1.966l1.966,-0l0,-1.966l1.966,-0l0,-1.966l19.66,-0l0,-1.966l1.966,-0l0,1.966l11.797,-0l-0,-1.966l27.524,-0l0,-1.966l1.966,-0l0,-13.763l1.966,0l0,-17.694l1.966,-0l0,-13.762l1.966,-0l0,-21.627l-1.966,0l0,1.966l-1.966,0l0,5.898l-1.966,0l0,11.797l-1.966,-0l0,19.66l-1.966,0l0,3.932l-1.966,0l0,5.898l-1.966,0l0,3.932l-1.966,0l0,1.966l-1.966,0l0,1.966l-3.932,0l-0,1.966l-1.966,0l-0,1.966l-19.66,0l-0,1.967l-1.966,-0l-0,1.966l-11.797,-0l0,-1.966l-7.864,-0l0,1.966l-3.932,-0l0,1.966l-3.932,-0l-0,1.966l-1.966,-0l-0,-1.966l-5.898,-0l-0,1.966l-1.966,-0l-0,-1.966l-1.966,-0l-0,-1.966l-1.966,-0l-0,-1.966l-3.932,-0l-0,-1.967l-1.966,0l-0,-3.932l-1.966,0l-0,-3.932l-1.966,0l-0,-11.796l1.966,0l-0,-31.456l-1.966,-0l-0,-1.967l1.966,0l-0,-7.864l1.966,0l-0,-9.83l1.966,0l-0,-17.694l1.966,-0l-0,-11.796l-1.966,-0l-0,-3.933l3.932,0l-0,-1.966l-1.966,0l-0,-1.966l1.966,0l-0,-7.864l-1.966,0l-0,-1.966l1.966,0l-0,-25.558l1.966,-0l-0,-3.932l-3.932,-0l-0,3.932l-1.966,-0l-0,1.966l1.966,-0l-0,5.898l-1.966,-0l-0,-5.898l-3.932,-0l-0,-1.966l1.966,-0l-0,-1.966l1.966,-0l-0,-1.966l-1.966,-0l-0,-1.966l1.966,-0l-0,-3.932l-1.966,-0l-0,-3.933l1.966,0l-0,-1.966l-3.932,0l-0,-1.966l1.966,0l-0,-3.932l-3.932,0l-0,-1.966l3.932,0l-0,1.966l1.966,0l-0,-3.932l-1.966,0l-0,-1.966l-1.966,0l-0,-1.966l1.966,0l-0,-1.966l3.932,0l-0,-1.966l-3.932,0l-0,-1.966l-3.932,0l-0,-1.966l1.966,0l-0,-7.864l-3.932,-0Zm7.864,-0l-0,1.966l3.932,-0l-0,-1.966l-3.932,-0Zm-804.11,3.932l0,1.966l1.966,0l0,-1.966l-1.966,-0Zm153.351,1.966l0,5.898l-1.966,0l0,3.932l1.966,0l0,3.932l-1.966,0l0,3.932l1.966,0l0,1.966l3.932,0l0,-1.966l-1.966,0l0,-3.932l1.966,0l0,-1.966l-1.966,0l0,-11.796l-1.966,0Zm648.793,0l-0,3.932l3.932,0l-0,-1.966l-1.966,0l-0,-1.966l-1.966,0Zm84.539,0l0,1.966l1.966,0l0,-1.966l-1.966,0Zm-886.683,1.966l0,1.966l1.966,0l0,3.932l-1.966,0l0,9.83l3.933,0l-0,-1.966l1.966,0l-0,-1.966l-1.966,0l-0,-5.898l1.966,0l-0,-3.932l-3.933,0l0,-1.966l-1.966,0Zm163.182,0l-0,3.932l1.966,0l-0,-3.932l-1.966,0Zm721.535,0l0,1.966l1.966,0l0,1.966l1.966,0l0,-1.966l-1.966,0l0,-1.966l-1.966,0Zm-74.709,5.898l-0,3.932l1.966,0l-0,-3.932l-1.966,0Zm19.66,1.966l0,1.966l-1.966,0l0,1.966l3.932,0l0,-3.932l-1.966,0Zm62.913,5.898l0,1.966l1.966,0l0,-1.966l-1.966,0Zm-892.581,3.932l0,5.898l3.933,0l-0,1.967l1.966,-0l-0,-1.967l1.966,0l-0,-1.966l-3.932,0l-0,-1.966l-1.967,0l0,-1.966l-1.966,0Zm5.899,0l-0,1.966l1.966,0l-0,-1.966l-1.966,0Zm888.648,1.966l0,3.932l1.966,0l0,1.967l1.966,-0l0,7.864l-1.966,-0l0,1.966l-1.966,-0l0,1.966l5.898,-0l0,1.966l3.933,-0l-0,-1.966l1.966,-0l-0,-7.864l1.966,-0l-0,-1.966l-1.966,-0l-0,-3.933l1.966,0l-0,-1.966l-3.932,0l-0,1.966l-1.966,0l-0,-1.966l-3.933,0l0,1.966l-1.966,0l0,-3.932l-1.966,0Zm-741.196,5.899l0,7.864l1.966,-0l0,-3.932l3.932,-0l0,3.932l-1.966,-0l0,5.898l1.966,-0l0,1.966l1.966,-0l0,-11.796l-1.966,-0l0,-3.932l-5.898,-0Zm654.691,-0l-0,5.898l1.966,-0l-0,-5.898l-1.966,-0Zm86.505,1.966l0,3.932l1.966,-0l0,-3.932l-1.966,-0Zm-745.128,1.966l0,1.966l1.966,-0l0,-1.966l-1.966,-0Zm752.993,5.898l-0,1.966l-1.967,-0l0,-1.966l1.967,-0Zm-898.479,1.966l-0,23.592l-1.967,0l0,5.898l1.967,0l-0,3.932l1.966,0l-0,-5.898l3.932,0l-0,-1.966l-1.966,0l-0,-1.966l-1.966,0l-0,-19.66l1.966,-0l-0,-3.932l-3.932,-0Zm890.614,1.966l0,1.966l-1.966,-0l0,1.966l3.932,-0l0,-3.932l-1.966,-0Zm-882.75,1.966l-0,1.966l3.932,-0l-0,-1.966l-3.932,-0Zm141.554,-0l0,1.966l1.966,-0l0,-1.966l-1.966,-0Zm745.128,-0l0,13.762l-3.932,0l0,3.932l1.966,0l0,1.966l-1.966,0l0,1.966l1.966,0l0,3.932l-1.966,0l0,3.932l-1.966,0l0,1.966l1.966,0l0,9.831l-3.932,-0l0,3.932l1.966,-0l0,3.932l-1.966,-0l0,3.932l1.966,-0l0,7.864l-1.966,-0l0,3.932l1.966,0l0,3.932l1.966,0l0,-5.898l1.966,0l0,-23.592l1.966,-0l0,-11.797l1.966,0l0,-9.83l1.967,0l-0,-1.966l-1.967,0l0,-13.762l1.967,-0l-0,-1.966l-3.933,-0Zm-878.818,1.966l-0,1.966l3.932,-0l-0,-1.966l-3.932,-0Zm7.864,-0l-0,1.966l1.966,-0l-0,-1.966l-1.966,-0Zm131.724,-0l0,3.932l3.933,-0l-0,-1.966l-1.967,-0l0,-1.966l-1.966,-0Zm-133.69,1.966l-0,1.966l-5.898,-0l-0,1.966l-1.966,-0l-0,1.966l19.66,0l0,-3.932l-9.83,-0l-0,-1.966l-1.966,-0Zm865.056,-0l0,5.898l3.932,0l0,1.966l1.966,0l0,-7.864l-5.898,-0Zm-86.505,7.864l-1.966,0l-0,-7.864l1.966,-0l-0,7.864Zm-819.838,-3.932l0,3.932l1.966,0l0,-3.932l-1.966,-0Zm27.525,-0l-0,1.966l1.966,0l-0,-1.966l-1.966,-0Zm3.932,1.966l-0,1.966l-1.966,0l-0,3.932l-1.966,0l-0,5.898l3.932,0l-0,5.898l1.966,0l-0,1.966l-1.966,0l-0,1.966l-1.966,0l-0,-3.932l-3.932,0l-0,3.932l3.932,0l-0,7.865l3.932,-0l-0,1.966l-1.966,-0l-0,5.898l1.966,-0l-0,7.864l3.932,-0l-0,-19.661l-1.966,0l-0,-1.966l1.966,0l-0,-5.898l-1.966,0l-0,-15.728l-1.966,0l-0,-1.966l-1.966,0Zm133.69,1.966l0,3.932l1.966,0l0,-3.932l-1.966,0Zm11.796,0l0,3.932l1.967,0l-0,-3.932l-1.967,0Zm642.895,3.932l-0,3.932l-1.966,0l-0,-3.932l1.966,0Zm94.369,0l0,1.966l-1.966,0l0,-1.966l1.966,0Zm-741.196,1.966l0,5.898l1.966,0l0,-1.966l1.966,0l0,-3.932l-3.932,0Zm644.861,7.864l-0,-1.966l3.932,0l-0,1.966l-3.932,0Zm-640.929,1.966l0,1.966l1.967,0l-0,-1.966l-1.967,0Zm-11.796,3.932l0,5.899l1.966,-0l0,-5.899l-1.966,0Zm-94.37,1.966l0,1.966l-1.966,0l0,3.933l11.797,-0l-0,1.966l1.966,-0l-0,1.966l-1.966,-0l-0,-1.966l-7.864,-0l-0,1.966l-3.933,-0l0,-1.966l-3.932,-0l0,3.932l-1.966,-0l0,-5.898l3.932,-0l0,-3.933l-3.932,0l0,1.967l-1.966,-0l0,3.932l-1.966,-0l0,1.966l-1.966,-0l0,-5.898l-1.966,-0l0,-1.967l-3.932,0l0,3.933l3.932,-0l0,3.932l-1.966,-0l0,1.966l1.966,-0l0,1.966l1.966,-0l0,1.966l3.932,-0l0,-3.932l1.966,-0l0,5.898l-1.966,-0l0,3.932l5.898,-0l0,1.966l7.865,-0l-0,1.966l1.966,-0l-0,-3.932l-3.932,-0l-0,-1.966l-1.967,-0l0,-1.966l-3.932,-0l0,-3.932l3.932,-0l0,3.932l9.831,-0l-0,-5.898l3.932,-0l-0,5.898l-1.966,-0l-0,1.966l-3.932,-0l-0,3.932l3.932,-0l-0,-1.966l1.966,-0l-0,-1.966l1.966,-0l-0,3.932l1.966,-0l-0,3.932l1.966,-0l-0,-3.932l9.83,-0l0,-3.932l-13.762,-0l-0,-1.966l15.728,-0l0,1.966l3.932,-0l0,-1.966l-1.966,-0l0,-5.898l-3.932,-0l0,1.966l-7.864,-0l-0,-3.932l-1.966,-0l-0,1.966l-1.966,-0l-0,-5.898l1.966,-0l-0,-3.933l-3.932,0l-0,1.967l-1.966,-0l-0,-1.967l-1.966,0l-0,-1.966l-3.932,0l-0,1.966l-3.932,0l-0,-1.966l-3.933,0Zm78.642,0l-0,3.933l1.966,-0l-0,-3.933l-1.966,0Zm664.521,0l-0,1.966l-1.966,0l-0,-1.966l1.966,0Zm-644.861,3.933l0,1.966l1.966,-0l0,-1.966l-1.966,-0Zm638.962,-0l0,-1.967l3.933,0l-0,1.967l5.898,-0l-0,7.864l-1.966,-0l-0,11.796l-1.966,-0l-0,1.966l-3.933,-0l0,-5.898l-1.966,-0l0,-1.966l1.966,-0l0,-1.966l-1.966,-0l0,-1.966l-1.966,-0l0,-1.966l1.966,-0l0,-1.966l-1.966,-0l0,-1.966l3.932,-0l0,-3.932l-1.966,-0Zm-794.279,1.966l0,3.932l7.865,-0l-0,-3.932l-1.966,-0l-0,1.966l-3.933,-0l0,-1.966l-1.966,-0Zm149.419,1.966l0,1.966l-1.966,-0l0,3.932l-3.932,-0l0,1.966l-1.966,-0l0,1.966l1.966,-0l0,1.966l1.966,-0l0,-1.966l1.966,-0l0,-1.966l1.966,-0l0,3.932l1.966,-0l0,1.966l-1.966,-0l0,5.898l1.966,-0l0,3.932l1.966,0l0,-3.932l1.966,-0l0,-3.932l-1.966,-0l0,-5.898l1.966,-0l0,-3.932l-3.932,-0l0,-5.898l-1.966,-0Zm11.796,-0l0,1.966l1.966,-0l0,-1.966l-1.966,-0Zm-131.724,1.966l-0,1.966l1.966,-0l-0,1.966l1.966,-0l0,-3.932l-3.932,-0Zm7.864,3.932l0,5.898l3.932,-0l0,1.966l-1.966,-0l0,1.966l1.966,-0l0,1.966l1.966,-0l0,-1.966l3.932,-0l0,-1.966l-1.966,-0l0,-1.966l-1.966,-0l0,-3.932l-1.966,-0l0,-1.966l-3.932,-0Zm758.89,-0l0,1.966l1.967,-0l-0,-1.966l-1.967,-0Zm-766.754,3.932l-0,3.932l-1.966,-0l-0,3.932l3.932,-0l-0,-7.864l-1.966,-0Zm129.758,-0l0,1.966l3.932,-0l0,1.966l1.967,-0l-0,-1.966l-1.967,-0l0,-1.966l-3.932,-0Zm-125.826,1.966l0,1.966l1.966,-0l0,-1.966l-1.966,-0Zm17.694,-0l0,-1.966l1.966,-0l0,1.966l-1.966,-0Zm88.472,-0l0,1.966l3.932,-0l0,-1.966l-3.932,-0Zm15.728,-0l0,1.966l1.966,-0l0,-1.966l-1.966,-0Zm-21.626,3.932l-0,3.932l1.966,-0l-0,1.966l1.966,0l-0,-5.898l-3.932,-0Zm25.558,-0l0,7.864l3.932,0l0,-7.864l-3.932,-0Zm635.03,-0l0,1.966l-1.966,-0l0,-1.966l1.966,-0Zm-749.06,1.966l0,1.966l1.966,-0l0,-1.966l-1.966,-0Zm11.796,-0l0,1.966l1.967,-0l-0,-1.966l-1.967,-0Zm7.865,-0l-0,1.966l5.898,-0l-0,-1.966l-5.898,-0Zm78.641,1.966l0,3.932l5.898,0l0,-3.932l-5.898,-0Zm658.623,-0l-0,1.966l-1.966,0l-0,-1.966l1.966,-0Zm-756.925,1.966l0,1.966l1.966,0l0,-1.966l-1.966,0Zm84.54,0l-0,1.966l1.966,0l-0,-1.966l-1.966,0Zm-58.981,1.966l-0,1.966l1.966,0l-0,-1.966l-1.966,0Zm94.37,0l-0,1.966l1.966,0l-0,-1.966l-1.966,0Zm635.03,7.864l-1.966,0l-0,-9.83l1.966,0l-0,9.83Zm-741.196,-5.898l-0,1.966l1.966,0l-0,-1.966l-1.966,0Zm58.981,0l-0,3.932l3.932,0l-0,-1.966l-1.966,0l-0,-1.966l-1.966,0Zm7.864,0l-0,3.932l1.966,0l-0,-3.932l-1.966,0Zm29.49,0l0,9.83l-1.966,0l0,-1.966l-1.966,0l0,7.864l1.966,0l0,-3.932l5.898,0l0,1.966l1.966,0l0,-1.966l-1.966,0l0,-3.932l-1.966,0l0,-5.898l1.966,0l0,-1.966l-3.932,0Zm-129.758,1.966l-0,1.966l1.966,0l-0,-1.966l-1.966,0Zm29.49,0l0,1.966l1.966,0l0,-1.966l-1.966,0Zm80.608,0l-0,1.966l1.966,0l-0,-1.966l-1.966,0Zm15.728,0l0,3.932l1.966,0l0,-3.932l-1.966,0Zm-127.792,1.966l-0,1.966l1.966,0l-0,-1.966l-1.966,0Zm68.811,0l0,1.966l1.966,0l0,-1.966l-1.966,0Zm37.355,0l-0,5.898l3.932,0l-0,-5.898l-3.932,0Zm764.788,0l0,3.932l1.966,0l0,-3.932l-1.966,0Zm-849.328,1.966l0,1.966l1.966,0l0,-1.966l-1.966,0Zm29.491,0l-0,3.932l1.966,0l-0,-3.932l-1.966,0Zm45.219,0l-0,1.966l1.966,0l-0,-1.966l-1.966,0Zm15.728,0l-0,1.966l1.966,0l-0,-1.966l-1.966,0Zm-19.66,1.966l-0,3.932l1.966,0l-0,-3.932l-1.966,0Zm-96.336,1.966l-0,1.966l3.932,0l-0,3.932l1.966,0l-0,3.932l-3.932,0l-0,-1.966l-1.966,0l-0,-1.966l-5.898,0l-0,1.966l3.932,0l-0,1.966l1.966,0l-0,3.933l-3.932,-0l-0,5.898l1.966,-0l-0,-1.966l3.932,-0l-0,5.898l-1.966,-0l-0,1.966l1.966,-0l-0,1.966l-3.932,-0l-0,1.966l1.966,-0l-0,1.966l3.932,-0l-0,1.966l3.932,-0l-0,-1.966l3.932,-0l-0,-1.966l1.966,-0l0,1.966l1.966,-0l0,-1.966l7.864,-0l0,1.966l3.932,-0l0,-3.932l3.932,-0l0,-1.966l1.966,-0l0,-1.966l1.966,-0l0,-1.966l-1.966,-0l0,-1.966l1.966,-0l0,-5.898l-1.966,-0l0,-3.933l-3.932,0l0,1.967l-17.694,-0l-0,3.932l9.83,-0l0,1.966l-7.864,-0l0,1.966l-1.966,-0l-0,-3.932l-1.966,-0l-0,-3.932l-1.966,-0l-0,-3.933l1.966,0l-0,-3.932l-1.966,0l-0,-1.966l-1.966,0l-0,-1.966l-5.898,0Zm143.52,0l0,3.932l1.967,0l-0,-3.932l-1.967,0Zm636.997,0l-0,1.966l-1.966,0l-0,-1.966l1.966,0Zm-725.468,1.966l-0,1.966l1.966,0l-0,-1.966l-1.966,0Zm15.728,0l0,1.966l-1.966,0l0,3.932l1.966,0l0,-1.966l1.966,0l0,-1.966l1.966,0l0,-1.966l-3.932,0Zm9.83,0l0,3.932l1.966,0l0,-1.966l1.966,0l0,-1.966l-3.932,0Zm19.661,0l-0,3.932l3.932,0l-0,-1.966l1.966,0l-0,5.898l1.966,0l-0,-1.966l1.966,0l-0,-1.966l1.966,0l-0,-1.966l-3.932,0l-0,-1.966l-7.864,0Zm13.762,0l-0,1.966l3.932,0l-0,-1.966l-3.932,0Zm-74.709,1.966l-0,3.932l-1.967,0l0,1.966l3.933,0l-0,-5.898l-1.966,0Zm21.626,1.966l-0,3.932l1.966,0l-0,-3.932l-1.966,0Zm13.762,0l0,3.932l-1.966,0l0,1.967l1.966,-0l0,1.966l3.932,-0l0,-7.865l-3.932,0Zm11.796,0l0,1.966l1.966,0l0,-1.966l-1.966,0Zm7.865,0l-0,3.932l1.966,0l-0,-1.966l1.966,0l-0,-1.966l-3.932,0Zm45.218,0l0,1.966l1.966,0l0,-1.966l-1.966,0Zm640.929,0l-0,1.966l-1.966,0l-0,-1.966l1.966,0Zm-737.264,1.966l-0,7.865l1.966,-0l-0,-7.865l-1.966,0Zm21.626,0l-0,3.933l1.966,-0l0,-3.933l-1.966,0Zm70.777,0l0,1.966l1.966,0l0,-1.966l-1.966,0Zm-88.471,1.966l-0,1.967l3.932,-0l-0,-1.967l-3.932,0Zm5.898,0l-0,3.933l-1.966,-0l-0,1.966l3.932,-0l-0,-5.899l-1.966,0Zm35.388,0l0,1.967l-1.966,-0l0,1.966l1.966,-0l0,3.932l1.966,-0l0,-7.865l-1.966,0Zm690.08,0l-0,9.831l-1.967,-0l0,-3.932l-3.932,-0l0,-1.966l1.966,-0l0,-3.933l3.933,0Zm-719.57,1.967l-0,1.966l3.932,-0l-0,-1.966l-3.932,-0Zm23.592,-0l0,1.966l1.966,-0l0,-1.966l-1.966,-0Zm49.151,-0l0,1.966l1.966,-0l0,-1.966l-1.966,-0Zm3.932,-0l0,5.898l1.966,-0l0,-1.966l1.966,-0l0,-1.966l-1.966,-0l0,-1.966l-1.966,-0Zm-129.758,3.932l-0,1.966l-3.932,-0l-0,-1.966l3.932,-0Zm25.558,-0l0,1.966l-5.898,-0l0,-1.966l5.898,-0Zm39.321,-0l0,1.966l1.966,-0l0,-1.966l-1.966,-0Zm60.947,1.966l0,3.932l1.966,-0l0,-3.932l-1.966,-0Zm-110.098,1.966l0,1.966l-1.966,-0l0,-1.966l1.966,-0Zm9.83,-0l0,1.966l-3.932,-0l0,-1.966l3.932,-0Zm33.423,-0l-0,3.932l3.932,-0l0,-1.966l-1.966,-0l0,-1.966l-1.966,-0Zm17.694,-0l0,1.966l1.966,-0l0,-1.966l-1.966,-0Zm23.593,-0l-0,1.966l1.966,-0l-0,-1.966l-1.966,-0Zm29.49,-0l0,17.694l3.932,-0l0,-1.966l-1.966,-0l0,-7.864l1.966,-0l0,-3.932l-1.966,-0l0,-3.932l-1.966,-0Zm-129.758,1.966l-0,1.966l-1.966,-0l-0,-1.966l1.966,-0Zm5.898,3.932l-1.966,-0l-0,-5.898l1.966,-0l-0,5.898Zm43.253,-3.932l-0,1.966l1.966,-0l-0,-1.966l-1.966,-0Zm17.694,-0l0,1.966l1.966,-0l0,-1.966l-1.966,-0Zm58.981,1.966l0,1.966l1.966,-0l0,-1.966l-1.966,-0Zm-115.996,1.966l0,1.966l-1.966,-0l0,-1.966l1.966,-0Zm9.83,-0l0,1.966l-1.966,-0l0,-1.966l1.966,-0Zm754.959,-0l-0,1.966l-3.933,-0l0,-1.966l3.933,-0Zm-774.619,1.966l-0,-1.966l3.932,-0l-0,1.966l-3.932,-0Zm-17.694,1.966l-0,1.966l3.932,-0l-0,1.966l-3.932,-0l-0,-1.966l-1.966,-0l-0,-1.966l1.966,-0Zm15.728,-0l-0,-1.966l1.966,-0l-0,1.966l-1.966,-0Zm768.72,-0l0,-1.966l3.932,-0l0,1.966l-3.932,-0Zm-648.792,1.966l0,3.932l1.966,-0l0,-3.932l-1.966,-0Zm289.008,-0l-0,1.966l-1.966,-0l-0,3.932l3.932,-0l-0,-5.898l-1.966,-0Zm-281.144,3.932l0,3.932l1.966,0l0,-3.932l-1.966,-0Zm277.212,3.932l-0,5.898l1.966,0l-0,1.966l3.932,0l-0,-3.932l-1.966,0l-0,-1.966l-1.966,0l-0,-1.966l-1.966,0Zm-418.766,3.932l-0,1.966l-1.966,0l-0,-1.966l1.966,0Zm13.762,3.932l-0,1.966l-1.966,0l-0,3.932l1.966,0l-0,-1.966l1.966,0l-0,3.932l1.966,0l-0,1.966l-1.966,0l-0,1.966l3.932,0l-0,-3.932l1.966,0l-0,3.932l1.966,0l0,-3.932l-1.966,0l-0,-1.966l-1.966,0l-0,-1.966l1.966,0l-0,-1.966l-1.966,0l-0,-1.966l-5.898,0Zm3.932,1.966l-0,1.966l-1.966,0l-0,-1.966l1.966,0Zm-9.83,3.932l-0,3.932l1.966,0l-0,-3.932l-1.966,0Zm147.453,1.966l-0,3.932l1.966,0l-0,-3.932l-1.966,0Zm-143.521,1.966l-0,3.932l1.966,0l-0,-3.932l-1.966,0Zm766.754,1.966l0,1.966l1.966,0l0,-1.966l-1.966,0Zm-774.618,1.966l-0,3.933l-1.966,-0l-0,-3.933l1.966,0Zm15.728,0l-0,1.966l1.966,0l-0,-1.966l-1.966,0Zm-23.592,1.966l-0,1.967l-1.967,-0l0,-1.967l1.967,0Zm159.249,0l-0,3.933l3.932,-0l-0,-1.966l-1.966,-0l-0,-1.967l-1.966,0Zm-147.453,1.967l-0,1.966l-1.966,-0l-0,-1.966l1.966,-0Zm11.796,-0l-0,5.898l3.932,-0l0,1.966l3.932,-0l0,-1.966l-1.966,-0l0,-1.966l-1.966,-0l0,-1.966l-1.966,-0l-0,-1.966l-1.966,-0Zm37.355,-0l-0,1.966l3.932,-0l-0,-1.966l-3.932,-0Zm-64.88,1.966l0,-1.966l1.966,-0l0,1.966l-1.966,-0Zm772.653,-0l0,1.966l3.932,-0l0,3.932l-1.966,-0l0,-1.966l-1.966,-0l0,-1.966l-1.966,-0l0,-1.966l1.966,-0Zm-754.958,1.966l-0,1.966l-1.966,-0l-0,-1.966l1.966,-0Zm35.388,-0l0,1.966l1.966,-0l0,-1.966l-1.966,-0Zm80.608,-0l-0,1.966l1.966,-0l-0,-1.966l-1.966,-0Zm635.03,-0l-0,1.966l1.966,-0l0,1.966l-1.966,-0l-0,-1.966l-1.966,-0l-0,-1.966l1.966,-0Zm23.592,-0l0,5.898l-3.932,-0l0,-3.932l1.966,-0l0,-1.966l1.966,-0Zm3.933,-0l-0,1.966l-1.967,-0l0,-1.966l1.967,-0Zm-792.313,3.932l-0,1.966l-1.967,-0l0,-1.966l1.967,-0Zm19.66,-0l-0,3.932l1.966,-0l-0,-1.966l1.966,-0l-0,3.932l-1.966,-0l-0,1.966l-1.966,-0l-0,-1.966l-1.966,-0l-0,-3.932l-1.966,-0l-0,-1.966l3.932,-0Zm33.423,-0l-0,1.966l1.966,-0l-0,-1.966l-1.966,-0Zm29.49,-0l0,3.932l1.966,-0l0,15.728l-1.966,0l0,1.966l-1.966,0l0,1.966l-15.728,0l-0,-1.966l-1.966,0l-0,-1.966l-1.966,0l-0,-15.728l1.966,-0l-0,-1.966l3.932,-0l-0,-1.966l15.728,-0Zm695.977,-0l0,1.966l-1.966,-0l0,-1.966l1.966,-0Zm-3.932,1.966l0,1.966l-1.966,-0l0,-1.966l1.966,-0Zm-774.618,3.932l-0,1.966l-1.967,-0l0,-1.966l1.967,-0Zm857.192,-0l-0,1.966l3.932,-0l-0,1.966l13.762,-0l0,-3.932l-17.694,-0Zm-831.634,1.966l-0,1.966l-1.966,-0l-0,-1.966l1.966,-0Zm9.83,-0l0,1.966l1.966,-0l0,-1.966l-1.966,-0Zm347.989,-0l-0,1.966l-1.966,-0l-0,-1.966l1.966,-0Zm19.66,-0l0,1.966l-1.966,-0l0,-1.966l1.966,-0Zm334.226,-0l0,1.966l13.763,-0l-0,-1.966l-13.763,-0Zm-401.071,1.966l-0,1.966l1.966,-0l-0,1.966l-3.932,-0l-0,-1.966l-3.932,-0l-0,-1.966l5.898,-0Zm21.626,-0l0,1.966l-1.966,-0l0,-1.966l1.966,-0Zm336.193,-0l-0,1.966l11.796,-0l-0,-1.966l-11.796,-0Zm-646.827,1.966l0,1.966l3.932,-0l0,-1.966l-3.932,-0Zm9.831,-0l-0,1.966l-1.966,-0l-0,-1.966l1.966,-0Zm106.166,-0l-0,3.932l1.966,-0l-0,-3.932l-1.966,-0Zm485.611,-0l-0,1.966l9.83,-0l-0,-1.966l-9.83,-0Zm-324.396,1.966l-0,1.966l-1.966,-0l-0,-1.966l1.966,-0Zm3.932,-0l-0,1.966l-1.966,-0l-0,-1.966l1.966,-0Zm27.524,-0l0,1.966l-1.966,-0l0,-1.966l1.966,-0Zm17.695,-0l-0,1.966l-3.932,-0l-0,-1.966l3.932,-0Zm39.32,-0l0,1.966l-1.966,-0l0,-1.966l1.966,-0Zm328.329,-0l-0,3.932l1.966,-0l-0,-3.932l-1.966,-0Zm21.626,-0l-0,1.966l11.796,-0l0,-1.966l-11.796,-0Zm-422.698,1.966l-0,1.966l-1.966,-0l-0,-1.966l1.966,-0Zm21.626,-0l0,1.966l-3.932,-0l0,-1.966l3.932,-0Zm-41.286,1.966l-0,-1.966l1.966,-0l-0,1.966l-1.966,-0Zm196.603,-0l0,1.966l1.966,0l0,-1.966l-1.966,-0Zm127.793,-0l-0,3.932l3.932,0l-0,-3.932l-3.932,-0Zm-595.71,1.966l0,1.966l-1.966,0l0,-1.966l1.966,0Zm76.676,0l-0,1.966l-1.966,0l-0,1.966l5.898,0l-0,-1.966l-1.966,0l-0,-1.966l-1.966,0Zm43.253,0l-0,1.966l3.932,0l-0,1.966l-3.932,0l-0,-1.966l-1.966,0l-0,-1.966l1.966,0Zm5.898,0l-0,1.966l-1.966,0l-0,-1.966l1.966,0Zm157.283,0l-0,1.966l-3.932,0l-0,-1.966l3.932,0Zm259.517,0l-0,3.932l13.762,0l-0,-3.932l-13.762,0Zm21.626,0l0,1.966l9.83,0l0,-1.966l-9.83,0Zm-568.185,1.966l0,1.966l-1.966,0l0,-1.966l1.966,0Zm7.865,0l-0,1.966l1.966,0l-0,1.966l-3.933,0l0,-3.932l1.967,0Zm7.864,0l-0,1.966l-1.966,0l-0,-1.966l1.966,0Zm92.403,0l0,1.966l-1.966,0l0,-1.966l1.966,0Zm389.276,0l-0,1.966l-41.287,0l0,3.932l15.728,0l0,-1.966l47.185,0l0,-3.932l-21.626,0Zm23.592,0l0,1.966l17.695,0l-0,-1.966l-17.695,0Zm-456.12,1.966l-0,1.966l3.932,0l-0,-1.966l-3.932,0Zm5.898,0l-0,1.966l1.966,0l-0,-1.966l-1.966,0Zm27.524,1.966l0,1.966l-1.966,0l0,-1.966l1.966,0Zm308.668,0l0,3.932l27.525,0l-0,-1.966l13.762,0l-0,-1.966l-41.287,0Zm43.253,0l-0,1.966l1.966,0l-0,-1.966l-1.966,0Zm-346.023,1.966l0,1.966l-1.966,0l0,-1.966l1.966,0Zm147.453,0l0,1.966l1.966,0l0,-1.966l-1.966,0Zm119.928,0l0,3.932l11.797,0l-0,-3.932l-11.797,0Zm13.763,0l-0,3.932l3.932,0l-0,-3.932l-3.932,0Zm5.898,0l-0,1.966l13.762,0l0,-1.966l-13.762,0Zm-68.812,1.966l0,3.932l17.695,0l-0,-3.932l-17.695,0Zm19.661,0l-0,1.966l9.83,0l0,-1.966l-9.83,0Zm-60.947,1.966l-0,3.932l13.762,0l-0,-3.932l-13.762,0Zm17.694,0l0,1.966l7.864,0l0,-1.966l-7.864,0Zm-66.845,1.966l-0,1.966l-1.966,0l-0,1.966l11.796,0l-0,-3.932l-9.83,0Zm11.796,0l-0,3.932l5.898,0l0,-1.966l19.66,0l0,-1.966l-25.558,0Zm556.389,0l-0,1.966l1.966,0l-0,-1.966l-1.966,0Zm-589.812,1.966l0,1.966l11.797,0l-0,-1.966l-11.797,0Zm-39.32,1.966l-0,1.966l1.966,0l-0,-1.966l-1.966,0Zm-66.846,1.966l0,3.932l5.898,0l0,-3.932l-5.898,0Zm7.864,0l0,3.932l5.899,0l-0,-3.932l-5.899,0Zm670.419,0l0,1.966l-1.966,0l0,-1.966l1.966,0Zm13.762,0l0,1.966l-1.966,0l0,-1.966l1.966,0Zm-741.196,9.831l0,3.932l1.966,-0l0,-3.932l-1.966,-0Zm784.449,19.66l0,1.966l1.966,-0l0,1.966l1.966,0l0,5.898l1.966,0l0,3.932l1.966,0l0,-1.966l1.966,0l0,-1.966l-1.966,0l0,-3.932l-1.966,0l0,-1.966l-1.966,0l0,-3.932l-3.932,-0Zm-64.879,3.932l0,1.966l1.966,0l0,1.966l1.966,0l0,-1.966l-1.966,0l0,-1.966l-1.966,0Zm-119.928,3.932l-0,1.966l1.966,0l-0,-1.966l-1.966,0Zm11.796,0l-0,1.966l3.932,0l0,-1.966l-3.932,0Zm-178.909,5.898l-0,3.932l3.932,0l-0,1.966l3.932,0l-0,-1.966l-1.966,0l-0,-1.966l-1.966,0l-0,-1.966l-3.932,0Zm188.739,0l0,1.966l-1.966,0l0,1.966l7.864,0l0,-3.932l-5.898,0Zm27.525,0l-0,1.966l1.966,0l-0,-1.966l-1.966,0Zm145.486,0l0,5.898l1.966,0l0,1.966l1.967,0l-0,3.932l1.966,0l-0,3.933l1.966,-0l-0,3.932l1.966,-0l-0,1.966l1.966,-0l-0,3.932l1.966,-0l-0,3.932l1.966,-0l-0,1.966l1.966,-0l-0,3.932l1.966,-0l-0,3.932l1.966,-0l-0,1.966l1.966,0l-0,3.932l1.966,0l-0,3.932l3.932,0l0,-3.932l-1.966,0l-0,-1.966l-1.966,0l-0,-3.932l-1.966,-0l-0,-3.932l-1.966,-0l-0,-3.932l-1.966,-0l-0,-1.966l-1.966,-0l-0,-3.932l-1.966,-0l-0,-1.966l-1.966,-0l-0,-3.932l-3.932,-0l-0,-1.966l1.966,-0l-0,-1.966l-1.966,-0l-0,-3.933l-1.966,0l-0,-1.966l-1.966,0l-0,-3.932l-1.966,0l-0,-3.932l-1.967,0l0,-1.966l-1.966,0Zm-202.501,1.966l-0,1.966l-1.966,0l-0,1.966l9.83,0l-0,-1.966l-3.932,0l-0,-1.966l-3.932,0Zm11.796,0l-0,1.966l-1.966,0l-0,1.966l11.796,0l0,-3.932l-9.83,0Zm-257.551,1.966l-0,1.966l-1.966,0l-0,1.966l5.898,0l0,-1.966l-1.966,0l-0,-1.966l-1.966,0Zm210.366,0l-0,1.966l-17.694,0l-0,1.966l-9.831,0l0,-1.966l-3.932,0l0,1.966l-1.966,0l0,1.966l39.321,0l0,-1.966l21.626,0l0,-3.932l-11.796,0l0,1.966l-7.864,0l0,-1.966l-7.864,0Zm94.37,0l-0,1.966l1.966,0l-0,-1.966l-1.966,0Zm-576.049,3.932l-0,1.966l5.898,0l-0,1.966l-23.593,0l0,-1.966l13.763,0l-0,-1.966l3.932,0Zm11.796,0l0,1.966l1.966,0l0,1.966l-1.966,0l0,-1.966l-5.898,0l-0,-1.966l5.898,0Zm418.766,0l-0,1.966l-33.423,0l0,3.932l17.695,0l-0,-1.966l3.932,0l-0,1.966l9.83,0l-0,-1.966l15.728,0l0,-3.932l-13.762,0Zm127.792,0l0,1.966l1.966,0l0,3.932l1.966,0l0,3.933l1.967,-0l-0,3.932l1.966,-0l-0,3.932l1.966,-0l-0,3.932l1.966,-0l-0,3.932l1.966,-0l-0,3.932l1.966,-0l-0,3.932l1.966,0l-0,3.932l1.966,0l-0,5.898l1.966,0l-0,3.932l1.966,0l-0,3.932l1.966,0l-0,3.932l1.966,0l-0,3.932l1.966,0l-0,3.933l1.966,-0l-0,3.932l1.966,-0l0,3.932l1.966,-0l0,5.898l1.966,-0l0,1.966l1.966,-0l0,3.932l1.966,-0l0,3.932l1.966,0l0,3.932l1.966,0l0,3.932l1.966,0l0,3.932l1.966,0l0,3.932l1.966,0l0,3.932l1.966,0l0,3.932l1.966,0l0,3.933l1.966,-0l0,3.932l1.967,-0l-0,3.932l1.966,-0l-0,3.932l1.966,-0l-0,3.932l1.966,-0l-0,3.932l1.966,-0l-0,3.932l1.966,-0l-0,3.932l1.966,0l-0,3.932l1.966,0l-0,3.932l1.966,0l-0,3.932l1.966,0l-0,3.932l1.966,0l-0,3.932l1.966,0l-0,3.933l1.966,-0l-0,3.932l1.966,-0l-0,3.932l1.966,-0l0,3.932l1.966,-0l0,3.932l1.966,-0l0,3.932l1.966,-0l0,3.932l1.966,-0l0,3.932l1.966,0l0,5.898l1.966,0l0,1.966l1.966,0l0,3.932l1.966,0l0,3.932l1.966,0l0,5.898l1.966,0l0,1.966l1.966,0l0,3.933l1.966,-0l0,3.932l1.967,-0l-0,3.932l1.966,-0l-0,5.898l1.966,-0l-0,3.932l1.966,-0l-0,3.932l1.966,-0l-0,3.932l1.966,0l-0,3.932l1.966,0l-0,1.966l1.966,0l-0,5.898l1.966,0l-0,3.932l1.966,0l-0,3.932l1.966,0l-0,3.932l1.966,0l-0,3.933l1.966,-0l-0,3.932l1.966,-0l0,3.932l1.966,-0l0,5.898l1.966,-0l0,3.932l1.966,-0l0,3.932l1.966,-0l0,3.932l1.966,0l0,3.932l1.966,0l0,3.932l1.966,0l0,1.966l1.966,0l0,5.898l1.966,0l0,3.932l1.966,0l0,3.932l1.966,0l0,3.933l1.966,-0l0,3.932l1.966,-0l0,3.932l1.967,-0l-0,5.898l3.932,-0l-0,-9.83l-1.966,-0l-0,-3.932l-1.966,-0l-0,-1.966l-1.967,-0l0,-3.933l-1.966,0l0,-3.932l-1.966,0l0,-5.898l-1.966,0l0,-3.932l-1.966,0l0,-3.932l-1.966,0l0,-3.932l-1.966,0l0,-3.932l-1.966,-0l0,-5.898l-1.966,-0l0,-1.966l-1.966,-0l0,-3.932l-1.966,-0l0,-3.932l-1.966,-0l0,-3.932l-1.966,-0l0,-3.932l-1.966,-0l0,-3.933l-1.966,0l-0,-5.898l-1.966,0l-0,-3.932l-1.966,0l-0,-3.932l-1.966,0l-0,-3.932l-1.966,0l-0,-3.932l-1.966,0l-0,-3.932l-1.966,-0l-0,-3.932l-1.966,-0l-0,-5.898l-1.966,-0l-0,-3.932l-1.966,-0l-0,-3.932l-1.966,-0l-0,-3.932l-1.966,-0l-0,-3.933l-1.966,0l-0,-1.966l-1.967,0l0,-3.932l-1.966,0l0,-3.932l-1.966,0l0,-3.932l-1.966,0l0,-3.932l-1.966,0l0,-3.932l-1.966,0l0,-5.898l-1.966,-0l0,-3.932l-1.966,-0l0,-3.932l-1.966,-0l0,-3.932l-1.966,-0l0,-3.932l-1.966,-0l0,-3.932l-1.966,-0l0,-3.932l-1.966,-0l0,-3.933l-1.966,0l-0,-3.932l-1.966,0l-0,-3.932l-1.966,0l-0,-3.932l-1.966,0l-0,-3.932l-1.966,0l-0,-3.932l-1.966,0l-0,-3.932l-1.966,-0l-0,-3.932l-1.966,-0l-0,-5.898l-1.966,-0l-0,-1.966l-1.966,-0l-0,-3.932l-1.966,-0l-0,-3.932l-1.966,-0l-0,-3.932l-1.966,-0l-0,-3.933l-1.966,0l-0,-3.932l-1.967,0l0,-3.932l-1.966,0l0,-3.932l-1.966,0l0,-3.932l-1.966,0l0,-3.932l-1.966,0l0,-3.932l-1.966,0l0,-3.932l-1.966,-0l0,-3.932l-1.966,-0l0,-3.932l-1.966,-0l0,-3.932l-1.966,-0l0,-3.932l-1.966,-0l0,-3.932l-1.966,-0l0,-3.933l-1.966,0l0,-3.932l-1.966,0l-0,-3.932l-1.966,0l-0,-3.932l-1.966,0l-0,-3.932l-1.966,0l-0,-3.932l-1.966,0l-0,-3.932l-1.966,0l-0,-1.966l-1.966,0l-0,-5.898l-1.966,-0l-0,-3.932l-1.966,-0l-0,-3.932l-1.966,-0l-0,-3.932l-1.966,-0l-0,-3.932l-1.966,-0l-0,-1.966l-1.966,-0l-0,-3.933l-1.966,0l-0,-3.932l-1.967,0l0,-1.966l-3.932,0Zm-578.015,1.966l0,1.966l-3.932,0l0,1.966l-13.762,0l0,-1.966l11.796,0l0,-1.966l5.898,0Zm403.038,0l0,1.966l-1.966,0l0,1.966l13.762,0l0,-1.966l-9.83,0l0,-1.966l-1.966,0Zm194.638,0l-0,3.932l1.966,0l-0,3.933l1.966,-0l-0,3.932l1.966,-0l-0,3.932l1.966,-0l-0,3.932l1.966,-0l-0,3.932l1.966,-0l-0,3.932l1.966,-0l0,3.932l1.966,0l0,3.932l1.966,0l0,3.932l1.966,0l0,1.966l1.966,0l0,3.932l1.966,0l0,1.966l1.966,0l0,7.864l1.966,0l0,3.933l1.966,-0l0,1.966l1.966,-0l0,3.932l1.966,-0l0,1.966l1.966,-0l0,-5.898l-1.966,-0l0,-5.899l-1.966,0l0,-1.966l-1.966,0l0,-3.932l-1.966,0l0,-1.966l-1.966,0l0,-7.864l-1.966,0l0,-1.966l-1.966,0l0,-3.932l-1.966,0l0,-3.932l-1.966,-0l0,-3.932l-1.966,-0l0,-3.932l-1.966,-0l0,-3.932l-1.966,-0l-0,-3.932l-1.966,-0l-0,-3.932l-1.966,-0l-0,-3.932l-1.966,-0l-0,-3.933l-1.966,0l-0,-1.966l-3.932,0Zm-617.336,1.966l0,1.966l-5.898,0l-0,-1.966l5.898,0Zm389.275,0l0,1.966l-13.762,0l0,3.933l11.796,-0l0,-1.966l7.865,-0l-0,1.966l5.898,-0l-0,-1.966l3.932,-0l-0,-1.967l-13.763,0l0,-1.966l-1.966,0Zm15.729,0l-0,1.966l1.966,0l-0,1.967l9.83,-0l-0,-3.933l-11.796,0Zm230.026,0l0,5.899l-1.966,-0l0,1.966l1.966,-0l0,3.932l1.966,-0l0,3.932l1.966,-0l0,3.932l1.966,-0l0,1.966l1.966,-0l0,1.966l3.932,-0l0,1.966l3.932,-0l0,1.966l3.932,-0l0,1.966l9.831,0l-0,-1.966l-5.898,-0l-0,-1.966l-3.933,-0l0,-1.966l-5.898,-0l0,-1.966l-1.966,-0l0,-1.966l-1.966,-0l0,-1.966l-1.966,-0l0,-1.966l-1.966,-0l0,-3.932l-1.966,-0l0,-3.932l-1.966,-0l0,-7.865l-1.966,0Zm-654.69,1.966l-0,1.967l-3.932,-0l-0,-1.967l3.932,0Zm377.479,0l-0,1.967l-19.661,-0l0,1.966l-9.83,-0l0,-1.966l-1.966,-0l0,1.966l-17.694,-0l-0,1.966l-31.457,-0l0,1.966l-29.49,-0l-0,1.966l-31.457,-0l0,1.966l-9.83,-0l-0,-1.966l-3.932,-0l-0,1.966l-15.728,-0l-0,1.966l-27.525,-0l0,1.966l-25.558,-0l-0,1.966l-9.831,-0l0,-1.966l-1.966,-0l0,1.966l-11.796,-0l0,1.966l-3.932,-0l0,1.966l-1.966,-0l0,1.966l3.932,-0l0,-1.966l23.593,-0l-0,-1.966l31.456,-0l0,-1.966l33.423,-0l-0,-1.966l15.728,-0l0,-1.966l25.559,-0l-0,-1.966l1.966,-0l-0,1.966l9.83,-0l-0,-1.966l19.66,-0l0,-1.966l25.559,-0l-0,-1.966l45.219,-0l-0,-1.966l17.694,-0l-0,-1.966l13.762,-0l0,-1.966l-11.796,-0l-0,-1.967l-1.966,0Zm-332.26,7.865l-0,1.966l3.932,-0l-0,-1.966l9.83,-0l-0,1.966l1.966,-0l-0,-1.966l1.966,-0l-0,1.966l13.762,-0l0,1.966l1.966,-0l0,-1.966l5.898,-0l0,1.966l1.966,-0l0,-1.966l3.932,-0l0,-1.966l1.966,-0l0,5.898l1.966,-0l0,9.83l1.967,-0l-0,11.796l1.966,0l-0,11.796l1.966,0l-0,11.797l1.966,-0l-0,11.796l1.966,-0l-0,11.796l1.966,0l-0,11.796l1.966,0l-0,11.796l1.966,0l-0,13.763l1.966,-0l-0,9.83l1.966,-0l-0,13.762l1.966,0l-0,11.796l1.966,0l-0,11.797l1.966,-0l-0,9.83l1.966,-0l0,13.762l1.966,0l0,11.796l1.966,0l0,7.864l1.966,0l0,13.763l1.966,-0l0,11.796l1.966,-0l0,11.796l1.966,0l0,9.83l1.966,0l0,11.797l1.966,-0l0,11.796l1.966,-0l0,11.796l1.966,0l0,11.796l1.966,0l0,9.83l1.966,0l0,11.797l1.966,-0l0,9.83l1.967,-0l-0,11.796l1.966,0l-0,9.83l1.966,0l-0,11.796l1.966,0l-0,11.797l1.966,-0l-0,9.83l1.966,-0l-0,9.83l1.966,0l-0,11.796l1.966,0l-0,9.83l1.966,0l-0,11.797l1.966,-0l-0,9.83l1.966,-0l-0,11.796l1.966,0l-0,11.796l1.966,0l-0,9.831l1.966,-0l0,7.864l1.966,-0l0,5.898l1.966,-0l0,1.966l1.966,-0l0,3.932l1.966,-0l0,1.966l1.966,-0l0,3.932l1.966,0l0,1.966l1.966,0l0,1.966l1.966,0l0,1.966l1.966,0l0,1.966l1.966,0l0,1.966l1.966,0l0,1.966l1.966,0l0,1.966l1.966,0l0,1.966l1.967,0l-0,1.966l1.966,0l-0,1.966l-7.865,0l0,1.966l-13.762,0l0,1.966l-7.864,0l0,1.967l-15.728,-0l-0,1.966l-9.83,-0l-0,1.966l-5.899,-0l0,1.966l-1.966,-0l0,-1.966l-3.932,-0l0,1.966l-5.898,-0l0,1.966l-11.796,-0l-0,1.966l-1.966,-0l-0,-1.966l-3.932,-0l-0,1.966l-3.932,-0l-0,1.966l-1.966,-0l-0,-1.966l-1.966,-0l-0,1.966l-7.864,-0l-0,1.966l-11.797,-0l0,1.966l-9.83,-0l0,1.966l-15.728,-0l-0,1.966l-3.932,-0l-0,1.966l-11.796,-0l-0,1.966l-11.797,-0l0,-1.966l-3.932,-0l0,1.966l-3.932,-0l0,-1.966l-1.966,-0l0,1.966l-13.762,-0l-0,-1.966l-9.83,-0l-0,-1.966l-7.864,-0l-0,-1.966l-5.899,-0l0,-1.966l-3.932,-0l0,-1.966l-5.898,-0l0,-1.966l-5.898,-0l0,3.932l3.932,-0l0,1.966l-5.898,-0l0,-1.966l-5.898,-0l-0,-1.966l-3.932,-0l-0,-1.966l-3.932,-0l-0,-1.966l-1.966,-0l-0,-1.966l-3.932,-0l-0,-1.966l-1.966,-0l-0,-1.966l-1.966,-0l-0,-1.966l-1.966,-0l-0,-1.966l-1.966,-0l-0,-1.967l-1.966,0l-0,-3.932l-1.966,0l-0,-1.966l-1.967,0l0,-3.932l1.967,0l-0,1.966l1.966,0l-0,1.966l3.932,0l-0,3.932l3.932,0l-0,3.933l3.932,-0l-0,-3.933l-3.932,0l-0,-3.932l-3.932,0l-0,-1.966l-1.966,0l-0,-1.966l-1.966,0l-0,-1.966l-3.933,0l0,-1.966l-1.966,0l0,-1.966l-1.966,0l0,-1.966l-1.966,0l0,-3.932l-1.966,0l0,-1.966l-1.966,0l0,-1.966l-1.966,-0l0,-3.932l-1.966,-0l0,-3.932l-1.966,-0l0,-5.898l-1.966,-0l0,-3.932l-1.966,-0l0,-3.932l-1.966,-0l0,-3.933l-1.966,0l0,-11.796l-1.966,0l-0,-17.694l-1.966,-0l-0,-3.932l1.966,-0l-0,-5.898l-1.966,-0l-0,-11.796l1.966,-0l-0,-1.967l-3.932,0l-0,-1.966l3.932,0l-0,-1.966l-3.932,0l-0,-5.898l1.966,0l-0,-3.932l-1.966,0l-0,-1.966l1.966,0l-0,-5.898l-1.966,0l-0,-3.932l3.932,0l-0,-5.898l-1.966,-0l-0,3.932l-1.966,-0l-0,-19.66l-1.966,-0l-0,-1.966l1.966,-0l-0,-1.966l-1.966,-0l-0,-9.831l1.966,0l-0,-1.966l-1.966,0l-0,-1.966l3.932,0l-0,-1.966l-3.932,0l-0,-3.932l1.966,0l-0,-1.966l-1.966,0l-0,-3.932l1.966,0l-0,-5.898l-1.966,-0l-0,-1.966l1.966,-0l-0,-1.966l-1.966,-0l-0,-1.966l-1.966,-0l-0,-1.966l1.966,-0l-0,1.966l1.966,-0l-0,-5.898l-1.966,-0l-0,-1.966l-1.966,-0l-0,-9.831l3.932,0l-0,-7.864l-1.966,0l-0,5.898l-1.966,0l-0,-3.932l-1.966,0l-0,-11.796l1.966,0l-0,-1.966l-1.966,0l-0,-7.864l-1.966,-0l-0,-1.966l1.966,-0l-0,-7.864l-1.966,-0l-0,-3.932l1.966,-0l-0,1.966l3.932,-0l-0,-1.966l-3.932,-0l-0,-11.797l-1.966,0l-0,-9.83l1.966,0l-0,-3.932l-1.966,0l-0,-3.932l1.966,0l-0,-1.966l-3.932,0l-0,-11.796l1.966,-0l-0,3.932l1.966,-0l-0,3.932l1.966,0l-0,-5.898l-1.966,-0l-0,-1.966l1.966,-0l-0,-1.966l-1.966,-0l-0,-1.966l1.966,-0l-0,-1.966l-1.966,-0l-0,-1.966l-1.966,-0l-0,-1.966l-1.966,-0l-0,-3.932l1.966,-0l-0,-3.932l-1.966,-0l-0,-5.899l3.932,0l-0,-7.864l-3.932,0l-0,-1.966l1.966,0l-0,-1.966l1.966,0l-0,-3.932l-1.966,0l-0,-1.966l-1.966,0l-0,-1.966l1.966,0l-0,1.966l1.966,0l-0,-5.898l-1.966,-0l-0,-3.932l-1.966,-0l-0,-3.932l1.966,-0l-0,-5.898l-1.966,-0l-0,-1.966l-1.966,-0l-0,-1.966l1.966,-0l-0,-1.966l1.966,-0l-0,-3.932l-1.966,-0l-0,-33.423l-1.966,-0l-0,-3.932l1.966,-0l-0,-3.932l-1.966,-0l-0,-35.389l-1.966,0l-0,-1.966l1.966,0l-0,-3.932l-1.966,-0l-0,-45.219l-1.966,0l-0,-7.864l-1.966,-0l-0,-5.898l1.966,-0l-0,-1.966l23.592,-0l0,-1.966l7.864,-0l0,-1.966l17.695,-0l-0,-1.966l23.592,-0l-0,-1.966l1.966,-0l0,1.966l1.966,-0l0,-1.966l17.694,-0l0,3.932l3.932,-0l0,-1.966l1.967,-0l-0,1.966l1.966,-0l-0,-1.966l7.864,-0l-0,-1.966l1.966,-0l-0,1.966l5.898,-0l-0,1.966l1.966,-0l-0,-1.966l33.423,-0l-0,-3.932l1.966,-0Zm143.52,-0l0,1.966l5.898,-0l0,-1.966l-5.898,-0Zm-127.792,3.932l-0,3.932l1.966,-0l-0,-3.932l-1.966,-0Zm635.03,-0l-0,3.932l-1.966,-0l-0,3.932l-1.966,-0l-0,1.966l-1.966,-0l-0,1.966l-3.932,-0l-0,3.932l3.932,0l-0,-1.966l3.932,-0l-0,-1.966l1.966,-0l-0,-5.898l3.932,-0l-0,-5.898l-3.932,-0Zm-711.706,3.932l0,1.966l3.932,-0l0,-1.966l-3.932,-0Zm-33.422,5.898l-0,3.932l1.966,-0l-0,-3.932l-1.966,-0Zm-27.525,1.966l0,3.932l1.966,0l0,-3.932l-1.966,-0Zm5.898,-0l0,1.966l1.966,-0l0,-1.966l-1.966,-0Zm11.797,-0l-0,1.966l1.966,-0l-0,-1.966l-1.966,-0Zm-47.185,1.966l-0,1.966l5.898,0l-0,1.966l11.796,0l0,-1.966l1.966,0l0,-1.966l-19.66,-0Zm831.633,-0l0,1.966l-1.966,0l0,1.966l-1.966,0l0,5.898l1.966,0l0,-1.966l1.966,0l0,-1.966l1.966,0l0,-1.966l1.967,0l-0,-3.932l-3.933,-0Zm-5.898,11.796l0,1.966l-1.966,0l0,1.966l1.966,0l0,5.898l1.966,0l0,3.932l1.966,0l0,1.966l1.966,0l0,1.967l1.966,-0l0,1.966l1.967,-0l-0,1.966l3.932,-0l-0,1.966l3.932,-0l-0,1.966l5.898,-0l-0,1.966l5.898,-0l-0,-1.966l3.932,-0l-0,1.966l1.966,-0l0,-3.932l-13.762,-0l-0,-1.966l-1.966,-0l-0,-1.966l-3.932,-0l-0,-1.966l-1.966,-0l-0,-1.967l-1.966,0l-0,-1.966l-1.966,0l-0,-1.966l-1.967,0l0,-1.966l-1.966,0l0,-3.932l-1.966,0l0,-5.898l-3.932,0Zm88.472,0l0,3.932l1.966,0l0,3.932l1.966,0l0,1.966l1.966,0l0,3.932l1.966,0l0,1.966l1.966,0l0,3.933l1.966,-0l0,1.966l1.966,-0l0,5.898l1.966,-0l0,1.966l1.966,-0l0,3.932l1.966,-0l0,1.966l1.966,-0l0,3.932l1.966,-0l0,3.932l1.966,0l0,1.966l1.967,0l-0,3.932l1.966,0l-0,3.932l1.966,0l-0,1.966l1.966,0l-0,3.932l1.966,0l-0,3.932l1.966,0l-0,3.932l1.966,0l-0,1.966l1.966,0l-0,1.967l1.966,-0l-0,5.898l1.966,-0l-0,1.966l1.966,-0l-0,3.932l1.966,-0l-0,3.932l1.966,-0l-0,1.966l1.966,-0l0,3.932l1.966,-0l0,3.932l1.966,0l0,3.932l1.966,0l0,1.966l1.966,0l0,3.932l1.966,0l0,1.966l1.966,0l0,1.966l1.966,0l0,1.966l-1.966,0l0,1.966l1.966,0l0,1.966l1.966,0l0,3.932l1.966,0l0,3.933l1.966,-0l0,1.966l1.966,-0l0,3.932l1.966,-0l0,1.966l1.966,-0l0,3.932l1.967,-0l-0,3.932l1.966,-0l-0,3.932l1.966,-0l-0,3.932l1.966,-0l-0,3.932l1.966,0l-0,1.966l1.966,0l-0,3.932l1.966,0l-0,1.966l1.966,0l-0,3.932l1.966,0l-0,3.932l1.966,0l-0,1.966l1.966,0l-0,1.966l1.966,0l-0,3.933l1.966,-0l-0,3.932l1.966,-0l0,1.966l1.966,-0l0,3.932l1.966,-0l0,3.932l1.966,-0l0,1.966l1.966,-0l0,3.932l1.966,-0l0,3.932l3.932,-0l0,-1.966l-1.966,-0l0,-5.898l-1.966,-0l0,-3.932l-1.966,-0l0,-3.932l-1.966,-0l0,-1.966l-1.966,-0l0,-3.932l-1.966,-0l0,-1.966l-1.966,-0l0,-3.933l-1.966,0l-0,-1.966l-1.966,0l-0,-3.932l-1.966,0l-0,-3.932l-1.966,0l-0,-1.966l-1.966,0l-0,-1.966l-1.966,0l-0,-3.932l-1.966,0l-0,-1.966l-1.966,0l-0,-3.932l-1.966,-0l-0,-3.932l-1.966,-0l-0,-1.966l-1.966,-0l-0,-1.966l-1.966,-0l-0,-5.898l-1.966,-0l-0,-1.966l-1.967,-0l0,-3.932l-1.966,-0l0,-3.932l-1.966,-0l0,-1.966l-1.966,-0l0,-5.899l-1.966,0l0,-1.966l-1.966,0l0,-3.932l-1.966,0l0,-1.966l-1.966,0l0,-3.932l-1.966,0l0,-1.966l-1.966,0l0,-5.898l-1.966,0l0,-1.966l-1.966,-0l0,-3.932l-1.966,-0l0,-1.966l-1.966,-0l0,-5.898l-1.966,-0l-0,-1.966l-1.966,-0l-0,-3.932l-1.966,-0l-0,-1.966l-1.966,-0l-0,-3.932l-1.966,-0l-0,-3.933l-1.966,0l-0,-3.932l-1.966,0l-0,-3.932l-1.966,0l-0,-1.966l-1.966,0l-0,-3.932l-1.966,0l-0,-3.932l-1.966,0l-0,-3.932l-1.966,0l-0,-1.966l-1.966,0l-0,-3.932l-1.967,-0l0,-3.932l-1.966,-0l0,-1.966l-1.966,-0l0,-3.932l-1.966,-0l0,-3.932l-1.966,-0l0,-1.966l-1.966,-0l0,-3.932l-1.966,-0l0,-3.933l-1.966,0l0,-1.966l-1.966,0l0,-3.932l-1.966,0l0,-1.966l-1.966,0l0,-3.932l-1.966,0l0,-3.932l-3.932,0Zm-815.905,9.83l-0,1.966l15.728,0l-0,-1.966l-15.728,0Zm-7.865,1.966l0,1.966l3.932,0l0,-1.966l-3.932,0Zm27.525,0l-0,1.966l1.966,0l-0,-1.966l-1.966,0Zm5.898,0l0,1.966l1.966,0l0,-1.966l-1.966,0Zm-43.253,1.966l0,1.966l1.966,0l0,-1.966l-1.966,0Zm786.415,0l0,1.966l-1.966,0l0,7.865l1.966,-0l0,-1.966l1.966,-0l0,-7.865l-1.966,0Zm23.593,9.831l-0,1.966l1.966,-0l-0,1.966l1.966,-0l-0,-1.966l1.966,-0l-0,-1.966l-5.898,-0Zm-835.566,1.966l-0,1.966l1.966,-0l-0,-1.966l-1.966,-0Zm-3.932,1.966l-0,1.966l1.966,-0l-0,-1.966l-1.966,-0Zm108.132,-0l-0,1.966l1.966,-0l-0,-1.966l-1.966,-0Zm619.301,-0l0,1.966l1.966,-0l0,-1.966l-1.966,-0Zm33.423,-0l0,1.966l-1.966,-0l0,1.966l-1.966,-0l-0,3.932l3.932,-0l0,-1.966l1.966,-0l0,-1.966l1.966,-0l0,-3.932l-3.932,-0Zm76.676,-0l-0,1.966l-1.967,-0l0,9.83l1.967,-0l-0,5.898l1.966,0l-0,1.966l1.966,0l-0,1.966l1.966,0l-0,1.966l1.966,0l-0,1.966l1.966,0l-0,1.966l3.932,0l-0,1.966l3.932,0l-0,1.966l3.932,0l-0,1.966l13.762,0l0,-1.966l1.966,0l0,-1.966l1.966,0l0,-1.966l-7.864,0l0,1.966l-3.932,0l0,-1.966l-7.864,0l-0,-1.966l-1.966,0l-0,-1.966l-3.932,0l-0,-1.966l-1.966,0l-0,-1.966l-1.966,0l-0,-3.932l-3.932,0l-0,-5.898l-1.966,-0l-0,-7.864l-1.966,-0l-0,-1.966l-1.966,-0Zm-843.43,3.932l-0,1.966l1.966,-0l-0,-1.966l-1.966,-0Zm192.671,1.966l0,1.966l3.932,-0l0,-1.966l-3.932,-0Zm-196.604,1.966l0,1.966l3.933,-0l-0,-1.966l-3.933,-0Zm762.823,-0l-0,1.966l-1.966,-0l-0,13.762l1.966,0l-0,3.932l1.966,0l-0,1.966l1.966,0l-0,1.966l1.966,0l0,1.966l1.966,0l0,1.966l1.966,0l0,1.966l1.966,0l0,1.966l3.932,0l0,1.966l5.898,0l0,1.967l13.763,-0l-0,-1.967l1.966,0l-0,-1.966l1.966,0l-0,-1.966l-15.729,0l0,-1.966l-3.932,0l0,-1.966l-3.932,0l0,-1.966l-3.932,0l0,-1.966l-1.966,0l0,-3.932l-1.966,0l0,-1.966l-1.966,0l0,-3.932l-1.966,0l-0,-11.796l-3.932,-0Zm-764.789,1.966l0,1.966l-1.966,-0l0,1.966l-1.966,-0l0,3.932l-1.966,0l0,1.966l-1.966,0l0,3.932l-1.966,0l0,3.932l-1.966,0l0,5.898l-1.966,0l0,19.661l1.966,-0l0,1.966l-1.966,-0l0,3.932l1.966,-0l0,1.966l1.966,-0l0,-7.864l-1.966,-0l0,-11.797l1.966,0l0,-7.864l1.966,0l0,-5.898l1.966,0l0,-3.932l1.966,0l0,-3.932l1.966,0l0,-1.966l1.966,0l0,-3.932l1.966,-0l0,-3.932l-1.966,-0Zm200.536,-0l0,3.932l1.966,-0l0,-3.932l-1.966,-0Zm538.694,7.864l0,3.932l3.933,0l-0,-3.932l-3.933,0Zm-603.573,1.966l0,1.966l1.966,0l0,5.898l1.966,0l0,5.898l1.966,0l0,21.627l1.966,-0l0,-1.966l1.966,-0l0,-17.695l-1.966,0l0,-5.898l-1.966,0l0,-1.966l-1.966,0l0,-1.966l1.966,0l0,-1.966l-1.966,0l0,-3.932l-3.932,0Zm615.37,1.966l-0,1.966l1.966,0l-0,-1.966l-1.966,0Zm57.015,1.966l-0,3.932l-1.966,0l-0,5.898l1.966,0l-0,-1.966l1.966,0l-0,-7.864l-1.966,0Zm-794.279,3.932l-0,1.966l3.932,0l-0,-1.966l-3.932,0Zm-1.966,5.898l-0,5.898l3.932,0l-0,-3.932l-1.966,0l-0,-1.966l-1.966,0Zm821.803,3.932l0,1.966l-3.932,0l0,5.899l-1.966,-0l0,13.762l1.966,-0l0,1.966l1.966,-0l0,3.932l1.966,-0l0,1.966l1.966,-0l0,1.966l1.966,0l0,1.966l3.932,0l0,1.966l1.966,0l0,1.966l3.932,0l0,1.966l7.865,0l-0,1.966l7.864,0l-0,-1.966l1.966,0l-0,-1.966l1.966,0l-0,-1.966l-13.762,0l-0,-1.966l-5.899,0l0,-1.966l-3.932,0l0,-1.966l-1.966,-0l0,-1.966l-1.966,-0l0,-1.966l-1.966,-0l0,-3.932l-1.966,-0l0,-1.966l-1.966,-0l0,-7.864l-1.966,-0l0,-3.932l1.966,-0l0,-1.966l1.966,-0l0,-1.967l1.966,0l0,-3.932l-3.932,0Zm-821.803,11.797l-0,7.864l3.932,-0l-0,-7.864l-3.932,-0Zm843.43,5.898l-0,1.966l1.966,-0l-0,-1.966l-1.966,-0Zm-713.672,1.966l0,3.932l-1.966,-0l0,1.966l3.932,-0l0,-5.898l-1.966,-0Zm66.845,1.966l0,3.932l3.932,-0l0,-3.932l-3.932,-0Zm-90.437,1.966l-0,1.966l1.966,-0l-0,-1.966l-1.966,-0Zm-1.966,1.966l-0,1.966l-1.966,-0l-0,1.966l-1.966,-0l-0,1.966l-1.966,0l-0,1.966l-1.967,0l0,1.966l-1.966,0l0,1.966l-3.932,0l0,1.966l-1.966,0l0,1.966l-1.966,0l0,1.966l5.898,0l0,-1.966l1.966,0l0,-1.966l1.966,0l0,-1.966l1.967,0l-0,-1.966l1.966,0l-0,-1.966l1.966,0l-0,-1.966l1.966,0l-0,-1.966l1.966,-0l-0,-3.932l-1.966,-0Zm754.958,3.932l-0,1.966l-1.966,0l-0,3.932l3.932,0l-0,-5.898l-1.966,-0Zm-660.589,1.966l0,3.932l3.932,0l0,-3.932l-3.932,0Zm-115.996,11.796l0,1.966l1.966,0l0,-1.966l-1.966,0Zm117.962,0l0,1.966l3.933,0l-0,-1.966l-3.933,0Zm-88.471,3.932l-0,1.966l-3.932,0l-0,1.966l-1.966,0l-0,1.966l-1.966,0l-0,1.966l-3.932,0l-0,1.967l-1.966,-0l-0,1.966l-3.933,-0l0,1.966l-3.932,-0l0,1.966l-3.932,-0l0,1.966l-7.864,-0l0,1.966l-7.864,-0l-0,1.966l-35.389,-0l0,-1.966l-7.864,-0l0,-1.966l-5.898,-0l0,-1.966l-5.898,-0l-0,-1.966l-3.932,-0l-0,-1.966l-3.932,-0l-0,-1.966l-1.966,-0l-0,3.932l3.932,-0l-0,1.966l3.932,-0l-0,1.966l3.932,-0l-0,1.966l5.898,-0l0,1.966l7.864,-0l0,1.966l9.83,-0l0,1.966l25.559,-0l-0,-1.966l9.83,-0l0,-1.966l5.898,-0l0,-1.966l5.898,-0l0,-1.966l5.898,-0l0,-1.966l3.933,-0l-0,-1.966l1.966,-0l-0,-1.966l3.932,-0l-0,-1.966l3.932,-0l-0,-1.967l1.966,0l-0,-1.966l1.966,0l-0,-1.966l1.966,0l-0,-1.966l1.966,0l-0,-1.966l-3.932,0Zm90.437,1.966l0,1.966l1.967,0l-0,-1.966l-1.967,0Zm0,3.932l0,3.933l3.933,-0l-0,-3.933l-3.933,0Zm1.967,11.797l-0,1.966l3.932,-0l-0,-1.966l-3.932,-0Zm1.966,3.932l-0,7.864l3.932,-0l-0,-1.966l-1.966,-0l-0,-5.898l-1.966,-0Zm-135.657,27.524l-0,1.966l-19.66,0l-0,1.966l-1.966,0l-0,1.966l-3.932,0l-0,1.966l-1.967,0l0,1.966l-1.966,0l0,3.933l3.933,-0l-0,17.694l1.966,-0l-0,1.966l-1.966,-0l-0,11.796l-3.933,0l0,1.966l-33.422,0l-0,3.932l27.524,0l0,-1.966l9.831,0l-0,-1.966l1.966,0l-0,-1.966l3.932,0l-0,-15.728l-1.966,-0l-0,-1.966l1.966,-0l-0,-9.83l-1.966,-0l-0,-9.831l1.966,0l-0,-1.966l13.762,0l-0,-1.966l21.626,0l0,17.695l1.966,-0l0,17.694l1.966,-0l0,1.966l1.966,0l0,1.966l15.729,0l-0,-1.966l15.728,0l0,-1.966l7.864,-0l0,-1.966l-19.66,-0l-0,1.966l-11.796,-0l-0,1.966l-1.966,0l-0,-1.966l-1.967,-0l0,1.966l-1.966,0l0,-1.966l-1.966,-0l0,-5.898l1.966,-0l0,-9.83l-1.966,-0l0,-13.763l-1.966,0l0,-5.898l-1.966,0l0,-1.966l-1.966,0l0,-1.966l-15.728,0Zm760.856,9.83l0,1.966l1.966,0l0,-1.966l-1.966,0Zm-1.966,3.933l0,1.966l-1.966,-0l0,3.932l1.966,-0l0,7.864l1.966,-0l0,1.966l1.966,-0l0,1.966l1.966,-0l0,1.966l3.933,-0l-0,1.966l1.966,-0l-0,1.966l11.796,-0l-0,-1.966l1.966,-0l-0,-1.966l-9.83,-0l-0,-1.966l-3.932,-0l-0,-1.966l-1.966,-0l-0,-1.966l-1.966,-0l-0,-1.966l-1.967,-0l0,-3.932l-1.966,-0l0,-3.932l-1.966,-0l0,-3.932l-1.966,-0Zm-635.03,9.83l0,3.932l1.966,-0l0,-3.932l-1.966,-0Zm-241.822,3.932l-0,1.966l-1.966,-0l-0,-1.966l1.966,-0Zm902.411,1.966l-0,3.932l3.932,-0l-0,-3.932l-3.932,-0Zm-721.536,5.898l0,3.932l3.932,-0l0,3.932l1.966,0l0,1.966l-1.966,0l0,5.898l1.966,0l0,15.729l1.966,-0l0,3.932l-7.864,-0l0,1.966l-11.796,-0l-0,1.966l-9.83,-0l-0,1.966l-9.83,-0l-0,1.966l-1.966,-0l-0,1.966l-1.966,-0l-0,3.932l-1.967,-0l0,-1.966l-1.966,-0l0,7.864l1.966,-0l0,13.762l1.967,0l-0,15.729l-11.797,-0l0,1.966l-17.694,-0l-0,1.966l-9.83,-0l-0,-15.729l-1.966,0l-0,-15.728l-1.966,-0l-0,-3.932l-1.966,-0l-0,-1.966l-1.966,-0l-0,-1.966l-43.253,-0l-0,-1.966l-1.966,-0l-0,-33.423l-1.966,0l-0,1.966l-3.932,0l-0,1.966l-1.966,0l-0,1.966l-1.966,0l-0,5.898l1.966,0l-0,25.559l1.966,-0l-0,7.864l3.932,0l-0,1.966l3.932,0l-0,-1.966l19.66,0l0,-1.966l11.796,-0l0,-1.966l1.966,-0l0,1.966l1.966,-0l0,-1.966l1.967,-0l-0,1.966l3.932,-0l-0,3.932l1.966,0l-0,19.66l1.966,0l-0,13.763l1.966,-0l-0,1.966l1.966,-0l-0,1.966l11.796,-0l-0,-1.966l11.796,-0l0,-1.966l17.695,-0l-0,-1.966l3.932,-0l-0,-3.932l-1.966,-0l-0,-5.899l1.966,0l-0,1.967l3.932,-0l-0,-3.933l-3.932,0l-0,-1.966l-1.966,0l-0,-1.966l3.932,0l-0,-3.932l-1.966,0l-0,-15.728l-1.966,-0l-0,-3.932l1.966,-0l-0,-3.932l3.932,-0l-0,-1.966l21.626,-0l0,-1.966l13.762,-0l0,-1.966l1.966,-0l0,-7.864l1.966,-0l0,3.932l1.966,-0l0,-13.763l-1.966,0l0,-13.762l-1.966,0l0,-3.932l-1.966,0l0,-3.932l-1.966,-0l0,-1.966l-1.966,-0l0,-1.966l-3.932,-0Zm849.328,3.932l0,1.966l1.966,0l0,5.898l1.966,0l0,1.966l1.966,0l0,1.966l1.966,0l0,3.932l1.966,0l0,-3.932l-1.966,0l0,-3.932l-1.966,0l0,-5.898l-3.932,0l0,-1.966l-1.966,-0Zm-880.784,11.796l-0,3.932l3.932,0l-0,-3.932l-3.932,0Zm892.581,7.864l-0,3.932l1.966,0l-0,3.933l1.966,-0l-0,3.932l1.966,-0l-0,1.966l1.966,-0l-0,3.932l1.966,-0l-0,3.932l1.966,-0l-0,3.932l1.966,-0l-0,3.932l1.966,-0l-0,5.898l1.966,0l-0,3.932l3.932,0l-0,-3.932l-1.966,0l-0,-3.932l-1.966,-0l-0,-3.932l-1.966,-0l-0,-3.932l-1.966,-0l-0,-3.932l-1.966,-0l-0,-3.932l-1.966,-0l-0,-3.932l-1.966,-0l-0,-3.932l-1.966,-0l-0,-3.933l-1.966,0l-0,-1.966l-1.966,0l-0,-1.966l-1.966,0Zm-1040.03,3.932l-0,1.966l1.966,0l-0,-1.966l-1.966,0Zm161.215,3.933l-0,3.932l3.932,-0l-0,-3.932l-3.932,-0Zm743.162,1.966l-0,1.966l-1.966,-0l-0,9.83l1.966,-0l-0,3.932l1.966,-0l-0,1.966l1.966,-0l0,1.966l1.966,-0l0,1.966l1.966,-0l0,1.966l3.932,-0l0,1.966l13.762,0l0,-1.966l-1.966,-0l0,-1.966l-9.83,-0l0,-1.966l-1.966,-0l0,-1.966l-1.966,-0l0,-1.966l-1.966,-0l0,-1.966l-1.966,-0l0,-3.932l-1.966,-0l0,-1.966l-1.966,-0l-0,-7.864l-1.966,-0Zm27.524,17.694l0,1.966l-1.966,-0l0,1.966l3.932,-0l0,-3.932l-1.966,-0Zm-810.007,3.932l0,3.932l3.932,0l0,-3.932l-3.932,-0Zm1.966,7.864l0,3.932l1.966,0l0,-3.932l-1.966,0Zm-121.894,3.932l-0,1.966l1.966,0l-0,-1.966l-1.966,0Zm1.966,17.695l-0,1.966l1.966,-0l-0,-1.966l-1.966,-0Zm914.207,35.388l0,1.966l1.966,0l0,-1.966l-1.966,0Zm1.966,5.898l0,1.966l1.966,0l0,-1.966l-1.966,0Zm-914.207,3.932l-0,1.966l1.966,0l-0,-1.966l-1.966,0Zm281.143,1.966l0,1.966l3.932,0l0,-1.966l-3.932,0Zm723.502,3.932l-0,1.967l1.966,-0l-0,-1.967l-1.966,0Zm-373.547,7.865l-0,3.932l1.966,-0l-0,-3.932l-1.966,-0Zm3.932,-0l-0,1.966l3.932,-0l0,-1.966l-3.932,-0Zm326.362,-0l0,3.932l1.966,-0l0,-3.932l-1.966,-0Zm-342.09,1.966l-0,3.932l3.932,-0l-0,-3.932l-3.932,-0Zm5.898,-0l-0,1.966l1.966,-0l-0,-1.966l-1.966,-0Zm-15.729,1.966l0,1.966l-1.966,-0l0,1.966l3.932,-0l0,-3.932l-1.966,-0Zm3.933,-0l-0,1.966l1.966,-0l-0,-1.966l-1.966,-0Zm-15.729,1.966l0,3.932l1.966,-0l0,-3.932l-1.966,-0Zm5.898,-0l0,1.966l1.966,-0l0,-1.966l-1.966,-0Zm261.483,-0l0,1.966l1.966,-0l0,-1.966l-1.966,-0Zm145.487,1.966l0,1.966l-1.966,-0l0,-1.966l1.966,-0Zm-440.392,3.932l-0,1.966l1.966,-0l-0,-1.966l-1.966,-0Zm296.871,-0l0,5.898l1.966,-0l0,-5.898l-1.966,-0Zm15.729,-0l-0,1.966l1.966,-0l-0,1.966l1.966,-0l-0,-3.932l-3.932,-0Zm-334.227,3.932l0,3.932l1.966,0l0,-3.932l-1.966,-0Zm312.6,-0l0,1.966l3.932,-0l0,-1.966l-3.932,-0Zm-230.026,3.932l-0,1.966l-13.762,0l-0,1.966l-5.899,0l0,1.966l-11.796,0l0,1.966l-1.966,0l0,1.966l-1.966,0l0,1.966l-1.966,0l0,1.966l-1.966,0l0,3.932l-1.966,0l0,13.763l1.966,-0l0,3.932l1.966,-0l0,3.932l1.966,-0l0,1.966l1.966,-0l0,1.966l1.966,-0l0,1.966l1.966,-0l0,1.966l3.932,-0l0,1.966l5.898,-0l0,1.966l9.831,-0l-0,-1.966l11.796,-0l-0,-1.966l7.864,-0l0,-1.966l7.864,-0l0,-1.966l7.864,-0l0,-1.966l3.932,-0l0,-1.966l1.966,-0l0,-1.966l1.967,-0l-0,-3.932l1.966,-0l-0,-13.763l-1.966,0l-0,-5.898l-1.967,0l0,-1.966l-1.966,0l0,3.932l1.966,0l0,15.729l-1.966,-0l0,3.932l-3.932,-0l0,1.966l-5.898,-0l0,1.966l-7.864,-0l0,1.966l-7.864,-0l-0,1.966l-9.83,-0l-0,1.966l-17.695,-0l0,-1.966l-1.966,-0l0,-1.966l-3.932,-0l0,-1.966l-1.966,-0l0,-3.932l-1.966,-0l0,-1.966l-1.966,-0l0,-15.729l1.966,0l0,-3.932l1.966,0l0,-1.966l5.898,0l0,-1.966l9.831,0l-0,-1.966l7.864,0l-0,-1.966l9.83,0l-0,-1.966l9.83,0l0,-1.966l1.966,0l0,-1.966l-13.762,0Zm-127.793,3.932l0,1.966l1.966,0l0,-1.966l-1.966,0Zm5.899,0l-0,1.966l1.966,0l-0,-1.966l-1.966,0Zm-15.729,1.966l0,1.966l1.966,0l0,-1.966l-1.966,0Zm3.932,0l0,1.966l3.932,0l0,-1.966l-3.932,0Zm432.529,0l-0,1.966l-5.899,0l0,-1.966l5.899,0Zm-454.155,1.966l-0,1.966l-5.898,0l-0,1.966l7.864,0l-0,-3.932l-1.966,0Zm5.898,0l0,1.966l3.932,0l0,-1.966l-3.932,0Zm5.898,0l0,1.966l1.966,0l0,-1.966l-1.966,0Zm-23.592,1.966l-0,3.932l3.932,0l-0,-3.932l-3.932,0Zm-9.83,1.966l-0,1.966l-1.967,0l0,1.966l3.933,0l-0,-3.932l-1.966,0Zm5.898,0l-0,1.966l1.966,0l-0,-1.966l-1.966,0Zm-17.695,1.966l0,1.966l-1.966,0l0,1.966l5.898,0l0,-3.932l-3.932,0Zm5.898,0l0,1.966l1.966,0l0,-1.966l-1.966,0Zm-17.694,1.966l0,3.932l1.966,0l0,-3.932l-1.966,0Zm188.74,0l-0,3.932l-1.966,0l-0,1.966l-1.966,0l-0,3.932l3.932,0l-0,-3.932l1.966,0l-0,-3.932l1.966,0l-0,-1.966l-3.932,0Zm9.83,5.898l-0,1.966l1.966,0l-0,1.966l1.966,0l-0,1.967l1.966,-0l-0,1.966l1.966,-0l-0,-5.899l-1.966,0l-0,-1.966l-5.898,0Zm-1.966,1.966l-0,1.966l1.966,0l-0,-1.966l-1.966,0Zm-5.898,3.933l-0,7.864l1.966,-0l-0,1.966l3.932,-0l-0,1.966l1.966,-0l-0,-1.966l9.83,-0l0,-1.966l3.932,-0l0,-3.932l-1.966,-0l0,1.966l-7.864,-0l-0,1.966l-7.864,-0l-0,-5.898l-1.966,-0l-0,-1.966l-1.966,-0Zm-259.517,1.966l-0,1.966l1.966,-0l-0,-1.966l-1.966,-0Zm-292.94,104.2l0,1.966l1.966,-0l0,1.966l5.898,-0l0,-1.966l-3.932,-0l0,-1.966l-3.932,-0Zm86.506,3.932l-0,3.932l3.932,-0l-0,-3.932l-3.932,-0Zm-68.811,1.966l-0,1.966l1.966,-0l-0,1.966l1.966,-0l-0,-3.932l-3.932,-0Zm53.083,-0l-0,1.966l-1.966,-0l-0,1.966l7.864,-0l-0,-3.932l-5.898,-0Zm7.864,-0l-0,3.932l1.966,-0l-0,-3.932l-1.966,-0Zm-43.253,1.966l-0,3.932l1.966,-0l-0,-1.966l1.966,-0l-0,-1.966l-3.932,-0Zm7.864,-0l0,1.966l1.966,-0l0,-1.966l-1.966,-0Zm9.83,-0l0,3.932l1.966,-0l0,-3.932l-1.966,-0Zm3.932,-0l0,3.932l3.932,-0l0,-3.932l-3.932,-0Zm5.898,-0l0,1.966l3.932,-0l0,-1.966l-3.932,-0Zm-15.728,1.966l0,1.966l1.966,-0l0,-1.966l-1.966,-0Zm-243.789,60.947l0,1.966l1.967,-0l-0,-1.966l-1.967,-0Zm1213.05,-0l0,1.966l1.967,-0l-0,-1.966l-1.967,-0Z" style="fill:#fff;"/></svg>