<?xml version="1.0" encoding="UTF-8" standalone="no"?><!DOCTYPE svg PUBLIC "-//W3C//DTD SVG 1.1//EN" "http://www.w3.org/Graphics/SVG/1.1/DTD/svg11.dtd"><svg width="100%" height="100%" viewBox="0 0 1280 1258" version="1.1" xmlns="http://www.w3.org/2000/svg" xmlns:xlink="http://www.w3.org/1999/xlink" xml:space="preserve" xmlns:serif="http://www.serif.com/" style="fill-rule:evenodd;clip-rule:evenodd;stroke-linejoin:round;stroke-miterlimit:2;"><path d="M35.418,28.708l-0,2.212l-2.212,-0l0,6.634l2.212,0l-0,2.212l2.211,-0l0,2.211l4.424,0l-0,2.212l2.211,0l0,2.212l4.423,-0l0,2.211l6.635,0l-0,2.212l4.423,-0l4.423,2.211l0,2.212l2.212,-0l-0,2.211l4.423,0l-0,2.212l4.423,-0l-0,2.212l6.635,-0l-0,2.211l4.423,0l-0,2.212l2.211,-0l0,2.211l2.212,0l4.423,2.212l-0,2.211l4.423,0l0,2.212l4.423,-0l0,2.211l4.423,0l0,2.212l2.212,0l-0,2.212l4.423,-0l-0,2.211l4.423,0l0,2.212l4.423,-0l0,2.211l6.635,0l-0,2.212l2.211,-0l0,2.211l2.212,0l-0,2.212l4.423,-0l0,2.211l6.635,0l-0,2.212l4.423,0l-0,2.212l2.211,-0l0,2.211l4.424,0l-0,2.212l4.423,-0l-0,2.211l4.423,0l-0,2.212l4.423,-0l-0,2.211l4.423,0l0,2.212l2.212,-0l-0,2.212l4.423,-0l-0,2.211l4.423,0l-0,2.212l4.423,-0l-0,2.211l4.423,0l0,2.212l2.212,-0l-0,2.211l4.423,0l-0,2.212l2.211,-0l0,2.211l4.423,0l0,2.212l4.424,-0l-0,4.423l2.211,0l0,2.212l2.212,-0l-0,2.211l2.211,0l0,2.212l6.635,-0l-0,8.846l8.846,0l0,8.846l8.846,0l0,8.846l8.847,0l-0,8.847l2.211,-0l0,-2.212l2.212,0l-0,-2.211l2.211,-0l0,2.211l2.212,0l-0,2.212l2.211,-0l0,2.211l4.424,0l-0,4.423l2.211,0l0,2.212l2.212,-0l-0,2.212l2.211,-0l0,2.211l4.423,0l0,4.423l2.212,0l-0,2.212l2.211,-0l0,2.211l2.212,0l0,2.212l2.212,-0l-0,2.211l2.211,0l0,4.424l2.212,-0l-0,2.211l2.211,0l0,2.212l2.212,-0l-0,2.211l2.211,0l0,2.212l2.212,-0l-0,6.634l2.212,0l-0,6.635l-2.212,0l-0,4.423l-2.212,0l0,2.212l-2.211,-0l-0,2.211l-4.423,0l-0,4.424l-2.212,-0l0,2.211l-4.423,0l0,2.212l-4.423,-0l-0,2.211l-2.212,0l0,2.212l-2.211,-0l-0,2.211l-2.212,0l0,2.212l-2.211,-0l-0,2.211l-2.212,0l0,4.424l-2.211,-0l-0,4.423l-2.212,-0l-0,2.211l-2.212,0l0,4.423l-2.211,0l-0,4.423l-2.212,0l0,6.635l-2.211,0l-0,13.269l-2.212,0l0,6.635l-2.211,0l-0,17.693l-2.212,-0l0,24.327l-2.211,-0l-0,28.75l-2.212,0l-0,72.982l2.212,-0l-0,13.269l2.211,-0l0,8.846l2.212,0l-0,6.635l2.211,-0l0,4.423l2.212,-0l-0,6.635l2.211,-0l0,8.846l2.212,-0l-0,4.423l2.211,-0l0,4.423l2.212,0l-0,4.423l2.212,0l-0,6.635l2.211,-0l0,4.423l2.212,-0l-0,4.423l2.211,0l0,6.635l4.423,-0l0,4.423l2.212,-0l-0,6.635l2.211,-0l0,2.211l2.212,0l0,4.423l2.212,0l-0,4.423l2.211,0l0,4.423l2.212,0l-0,6.635l2.211,0l0,4.423l2.212,0l-0,4.423l2.211,0l0,4.424l2.212,-0l-0,4.423l2.212,-0l-0,6.634l2.211,0l0,4.423l2.212,0l-0,4.424l2.211,-0l0,2.211l2.212,0l-0,4.423l2.211,0l0,6.635l2.212,-0l-0,4.423l2.211,0l0,4.423l2.212,0l-0,4.423l2.212,0l-0,4.423l2.211,0l0,4.424l2.212,-0l-0,4.423l2.211,-0l0,2.211l4.423,0l0,4.423l2.212,0l-0,2.212l2.211,-0l0,2.211l2.212,0l0,2.212l2.212,-0l-0,2.212l2.211,-0l0,4.423l2.212,-0l-0,2.211l2.211,0l0,2.212l2.212,-0l-0,2.211l2.211,0l0,2.212l2.212,-0l-0,4.423l2.211,0l0,2.212l2.212,-0l0,2.211l2.212,0l-0,4.423l2.211,0l0,4.423l2.212,0l-0,4.423l2.211,0l0,6.635l2.212,0l-0,4.423l2.211,0l0,6.635l2.212,-0l-0,4.423l2.212,0l-0,4.423l2.211,0l0,6.635l2.212,-0l-0,4.423l2.211,-0l0,4.423l2.212,0l-0,4.423l2.211,0l0,4.423l2.212,0l-0,4.423l2.211,0l0,4.424l2.212,-0l-0,4.423l2.212,-0l-0,4.423l2.211,-0l0,2.211l2.212,0l-0,6.635l2.211,0l0,4.423l2.212,0l-0,2.212l2.211,-0l0,4.423l2.212,-0l-0,2.211l2.211,0l0,4.424l2.212,-0l0,2.211l2.212,0l-0,2.212l2.211,-0l0,4.423l2.212,-0l-0,2.211l2.211,0l0,4.423l2.212,0l-0,4.424l2.211,-0l0,2.211l2.212,0l-0,2.212l2.211,-0l0,6.634l2.212,0l0,2.212l2.212,-0l-0,2.211l2.211,0l0,4.424l2.212,-0l-0,2.211l2.211,0l0,2.212l2.212,-0l-0,2.211l2.211,0l0,2.212l2.212,-0l-0,4.423l2.212,-0l-0,2.212l2.211,-0l0,2.211l2.212,0l-0,2.212l2.211,-0l0,2.211l2.212,0l-0,2.212l2.211,-0l0,2.211l2.212,0l-0,2.212l2.211,-0l0,2.211l2.212,0l0,2.212l2.212,-0l-0,2.212l2.211,-0l0,2.211l2.212,0l-0,2.212l2.211,-0l0,2.211l2.212,0l-0,2.212l2.211,-0l0,2.211l2.212,0l-0,2.212l2.211,-0l0,2.211l2.212,0l0,2.212l2.212,0l-0,2.212l2.211,-0l0,2.211l2.212,0l-0,2.212l2.211,-0l0,4.423l4.423,-0l0,2.211l2.212,0l-0,2.212l2.212,-0l-0,4.423l2.211,0l0,2.212l2.212,-0l-0,2.211l2.211,0l0,4.423l2.212,0l-0,2.212l-2.212,-0l0,2.211l2.212,0l-0,2.212l2.211,-0l0,2.212l-2.211,-0l-0,2.211l2.211,0l0,2.212l2.212,-0l-0,2.211l6.635,0l-0,4.423l2.211,0l0,2.212l4.423,-0l0,4.423l4.423,0l0,-2.212l6.635,0l0,2.212l4.423,0l0,2.212l2.212,-0l-0,2.211l4.423,0l-0,2.212l2.211,-0l0,2.211l2.212,0l-0,2.212l2.211,-0l0,2.211l2.212,0l0,2.212l2.212,-0l-0,2.211l2.211,0l0,2.212l4.423,0l0,2.212l2.212,-0l-0,2.211l2.211,0l0,2.212l4.424,-0l-0,2.211l4.423,0l-0,2.212l2.211,-0l0,2.211l4.423,0l0,2.212l4.423,-0l0,2.212l2.212,-0l0,2.211l4.423,0l0,2.212l26.539,-0l-0,2.211l4.423,0l-0,2.212l6.635,-0l-0,2.211l6.634,0l0,2.212l4.423,-0l0,2.211l2.212,0l-0,2.212l2.212,-0l-0,2.212l2.211,-0l0,2.211l2.212,0l-0,2.212l4.423,-0l-0,2.211l2.211,0l0,2.212l2.212,-0l-0,2.211l2.211,0l0,2.212l2.212,-0l0,2.211l2.212,0l-0,2.212l2.211,0l0,2.212l4.423,-0l0,2.211l2.212,0l-0,2.212l2.211,-0l0,2.211l4.423,0l0,2.212l2.212,-0l0,2.211l4.423,0l0,2.212l2.212,-0l-0,2.211l4.423,0l-0,2.212l2.211,0l0,2.212l4.424,-0l-0,2.211l4.423,0l-0,2.212l2.211,-0l0,2.211l2.212,0l-0,2.212l4.423,-0l-0,2.211l2.211,0l0,2.212l2.212,-0l0,2.212l6.635,-0l-0,2.211l2.211,0l0,2.212l4.423,-0l0,2.211l8.847,0l-0,2.212l8.846,-0l-0,2.211l6.635,0l-0,2.212l4.423,-0l-0,2.211l6.634,0l0,2.212l6.635,0l-0,2.212l6.635,-0l-0,2.211l8.846,0l-0,2.212l6.635,-0l-0,2.211l2.211,0l0,2.212l8.846,-0l0,2.211l6.635,0l0,2.212l6.635,-0l-0,2.211l6.634,0l0,2.212l2.212,0l-0,2.212l6.635,-0l-0,2.211l4.423,0l-0,2.212l4.423,-0l-0,2.211l6.635,0l-0,2.212l2.211,-0l0,2.211l6.635,0l-0,2.212l4.423,-0l-0,2.212l4.423,-0l0,2.211l6.635,0l-0,2.212l8.846,-0l-0,2.211l4.423,0l0,2.212l4.423,-0l0,2.211l8.846,0l0,2.212l8.847,-0l-0,2.211l13.269,0l0,2.212l6.635,-0l-0,2.212l4.423,-0l-0,2.211l4.423,0l-0,2.212l6.635,-0l-0,2.211l4.423,0l-0,2.212l6.634,-0l0,4.423l4.424,-0l-0,2.211l4.423,0l-0,2.212l4.423,0l-0,2.212l4.423,-0l-0,2.211l2.211,0l0,2.212l2.212,-0l-0,2.211l2.212,0l-0,2.212l2.211,-0l0,2.211l2.212,0l-0,2.212l2.211,-0l0,2.211l2.212,0l-0,37.597l2.211,0l0,4.423l2.212,0l-0,8.846l2.211,0l0,4.423l2.212,0l0,2.212l2.212,0l-0,2.212l2.211,-0l0,2.211l2.212,0l-0,2.212l6.634,-0l0,2.211l6.635,0l0,2.212l15.481,-0l-0,2.211l4.423,0l0,2.212l22.116,-0l-0,2.212l6.634,-0l0,2.211l6.635,0l0,2.212l26.539,-0l-0,-2.212l61.923,0l0,-2.211l4.424,-0l-0,-2.212l6.634,-0l0,-4.423l4.423,-0l0,-2.212l2.212,0l-0,-4.423l2.211,0l0,-11.058l-4.423,0l0,-2.211l-2.211,-0l-0,-2.212l-2.212,0l0,-2.211l-2.211,-0l-0,-2.212l-4.423,0l-0,-2.211l-2.212,-0l-0,-2.212l-2.212,0l0,-8.846l-2.211,-0l-0,-6.635l2.211,0l0,-4.423l2.212,-0l-0,-4.423l2.212,-0l-0,-2.212l2.211,0l0,-2.211l2.212,-0l-0,-2.212l2.211,0l0,-2.211l2.212,-0l-0,-2.212l2.211,0l0,-2.212l2.212,0l-0,-2.211l2.211,-0l0,-2.212l2.212,0l0,-4.423l2.212,0l-0,-2.211l2.211,-0l0,-2.212l2.212,0l-0,-2.211l2.211,-0l0,-4.424l2.212,0l-0,-2.211l2.211,-0l0,-2.212l2.212,0l-0,-2.211l4.423,-0l0,-2.212l2.212,0l-0,-2.211l4.423,-0l-0,-2.212l4.423,0l-0,-2.211l2.211,-0l0,-2.212l2.212,-0l-0,-2.212l4.423,0l0,-6.634l2.212,-0l-0,-11.058l-2.212,-0l0,-8.846l-2.211,-0l-0,-6.635l-2.212,0l-0,-2.212l-2.212,0l0,-4.423l-2.211,0l-0,-6.634l-2.212,-0l0,-2.212l-2.211,0l-0,-4.423l-2.212,0l0,-2.212l-2.211,0l-0,-4.423l-2.212,0l0,-2.211l-2.212,-0l0,-2.212l-2.211,0l-0,-2.211l-2.212,-0l0,-2.212l-2.211,0l-0,-4.423l-2.212,-0l0,-2.212l-4.423,0l0,-2.211l-2.211,-0l-0,-2.212l-2.212,0l0,-2.211l-2.212,-0l0,-2.212l-2.211,0l-0,-2.211l-4.423,-0l-0,-2.212l-2.212,0l0,-2.212l-2.211,0l-0,-2.211l-4.423,-0l-0,-2.212l-4.424,0l0,-2.211l-2.211,-0l-0,-2.212l-4.423,0l-0,-2.211l-2.212,-0l0,-2.212l-2.211,0l-0,-2.211l-4.423,-0l-0,-2.212l-2.212,0l-0,-2.212l-4.423,0l-0,-2.211l-2.212,-0l0,-2.212l-4.423,0l0,-2.211l-2.211,-0l-0,-2.212l-4.424,0l0,-2.211l-4.423,-0l0,-2.212l-4.423,0l0,-2.211l-4.423,-0l0,-2.212l-2.211,-0l-0,-2.212l-4.424,0l0,-2.211l-6.634,-0l-0,-2.212l-4.423,0l-0,-4.423l-4.423,0l-0,-2.211l-2.212,-0l-0,-2.212l-4.423,0l-0,-2.211l-2.212,-0l0,-4.424l-2.211,0l-0,-2.211l-2.212,-0l0,-4.423l-4.423,-0l0,-6.635l-2.212,0l0,-4.423l-2.211,-0l-0,-6.635l-2.212,0l0,-8.846l-2.211,0l-0,-2.212l-2.212,0l0,-11.057l-2.211,-0l-0,-11.058l-2.212,-0l0,-11.058l-2.211,0l-0,-8.846l-2.212,-0l0,-2.212l-2.212,0l0,-8.846l-2.211,0l-0,-6.635l-2.212,0l0,-6.634l-2.211,-0l-0,-4.423l-2.212,-0l0,-4.424l-2.211,0l-0,-6.634l-2.212,-0l0,-4.423l-2.211,-0l-0,-4.423l-2.212,-0l-0,-4.424l-2.212,0l0,-4.423l-2.211,0l-0,-4.423l-2.212,0l0,-4.423l-2.211,0l-0,-4.423l-2.212,-0l0,-2.212l-2.211,0l-0,-2.211l-2.212,-0l0,-6.635l-2.211,0l-0,-4.423l-2.212,0l-0,-2.212l-2.212,0l0,-6.634l-4.423,-0l0,-6.635l-2.211,0l-0,-4.423l-2.212,-0l0,-2.212l-2.211,0l-0,-4.423l-2.212,0l0,-4.423l-2.212,0l0,-2.211l-2.211,-0l-0,-4.424l-2.212,0l0,-2.211l-2.211,-0l-0,-4.423l-4.423,-0l-0,-4.423l-2.212,-0l0,-4.423l-2.211,-0l-0,-2.212l-2.212,0l-0,-2.212l-2.212,0l0,-2.211l-2.211,-0l-0,-4.423l-2.212,-0l0,-4.423l-2.211,-0l-0,-2.212l-2.212,0l0,-4.423l-2.211,-0l-0,-4.423l-2.212,-0l0,-2.212l-2.211,0l-0,-6.634l-2.212,-0l-0,-2.212l-2.212,0l0,-2.211l-2.211,-0l-0,-4.424l-2.212,0l0,-2.211l-2.211,-0l-0,-4.423l-2.212,-0l0,-2.212l-2.211,0l-0,-4.423l-2.212,0l0,-2.212l-2.212,0l0,-4.423l-2.211,0l-0,-2.211l-2.212,-0l0,-6.635l-2.211,0l-0,-2.211l-2.212,-0l0,-2.212l-2.211,0l-0,-4.423l-2.212,-0l0,-4.423l-2.211,-0l-0,-2.212l-2.212,0l0,-2.211l-2.212,-0l0,-2.212l-2.211,0l-0,-4.423l-2.212,-0l0,-2.212l-2.211,0l-0,-2.211l-2.212,-0l0,-2.212l-2.211,0l-0,-4.423l-2.212,0l0,-2.211l-2.211,-0l-0,-2.212l-2.212,0l-0,-2.211l-2.212,-0l0,-2.212l-2.211,-0l-0,-2.212l-2.212,0l0,-4.423l-2.211,0l-0,-2.211l-2.212,-0l0,-2.212l-2.211,0l-0,-2.211l-2.212,-0l0,-2.212l-2.211,0l-0,-4.423l-2.212,-0l-0,-2.212l-2.212,0l0,-4.423l-2.211,0l-0,-2.211l-2.212,-0l0,-2.212l-2.211,0l-0,-2.211l-2.212,-0l0,-4.424l-2.211,0l-0,-2.211l-2.212,-0l0,-2.212l-2.212,0l0,-4.423l-2.211,0l-0,-2.211l-2.212,-0l0,-4.423l-2.211,-0l-0,-2.212l-2.212,-0l0,-2.212l-2.211,0l-0,-2.211l-2.212,-0l0,-4.423l-2.211,-0l-0,-2.212l-2.212,0l0,-2.211l-2.212,-0l0,-2.212l-2.211,0l-0,-2.212l-2.212,0l0,-2.211l-2.211,-0l-0,-2.212l-2.212,0l0,-2.211l-2.211,-0l-0,-4.423l-2.212,-0l0,-2.212l-2.211,0l-0,-2.211l-2.212,-0l-0,-2.212l-2.212,0l0,-2.212l-2.211,0l-0,-2.211l-2.212,-0l0,-2.212l-2.211,0l-0,-2.211l-2.212,-0l0,-2.212l-2.211,0l-0,-2.211l-2.212,-0l0,-2.212l-2.212,0l0,-2.211l-2.211,-0l-0,-2.212l-2.212,-0l0,-2.212l-2.211,0l-0,-2.211l-2.212,-0l0,-2.212l-2.211,0l-0,-2.211l-2.212,-0l0,-2.212l-2.211,0l-0,-2.211l-2.212,-0l0,-2.212l-4.423,0l-0,-4.423l-2.212,-0l0,-2.212l-4.423,0l0,-2.211l-2.211,-0l-0,-2.212l-4.423,0l-0,-2.211l-2.212,-0l-0,-2.212l-2.212,0l0,-2.211l-2.211,-0l-0,-2.212l-4.423,0l-0,-2.212l-2.212,0l0,-2.211l-2.211,-0l-0,-2.212l-4.423,0l-0,-2.211l-2.212,-0l-0,-2.212l-2.212,0l0,-2.211l-2.211,-0l-0,-2.212l-4.423,0l-0,-2.211l-2.212,-0l0,-2.212l-2.211,-0l-0,-2.212l-2.212,0l0,-2.211l-4.423,-0l-0,-2.212l-2.212,0l0,-2.211l-2.211,-0l-0,-2.212l-4.423,0l-0,-2.211l-2.212,-0l0,-2.212l-2.211,0l-0,-2.211l-2.212,-0l0,-2.212l-2.212,-0l0,-2.212l-2.211,0l-0,-2.211l-2.212,-0l0,-2.212l-2.211,0l-0,-2.211l-4.423,-0l-0,-2.212l-2.212,0l0,-2.211l-2.211,-0l-0,-2.212l-2.212,0l-0,-2.212l-2.212,0l0,-2.211l-2.211,-0l-0,-2.212l-4.423,0l-0,-2.211l-2.212,-0l0,-2.212l-2.211,0l-0,-2.211l-4.424,-0l0,-2.212l-2.211,0l-0,-2.211l-4.423,-0l-0,-2.212l-2.212,0l0,-2.212l-2.211,0l-0,-2.211l-4.423,-0l-0,-2.212l-2.212,0l0,-2.211l-2.212,-0l0,-2.212l-4.423,0l0,-2.211l-2.211,-0l-0,-2.212l-4.423,0l-0,-2.211l-2.212,-0l0,-2.212l-4.423,-0l-0,-2.212l-2.212,0l0,-2.211l-4.423,-0l0,-2.212l-2.211,0l-0,-2.211l-2.212,-0l0,-2.212l-2.211,0l-0,-2.211l-6.635,-0l-0,-2.212l-2.212,0l0,-2.211l-4.423,-0l0,-2.212l-2.211,-0l-0,-2.212l-4.423,0l-0,-2.211l-6.635,-0l-0,-2.212l-4.423,0l-0,-2.211l-4.423,-0l-0,-2.212l-2.212,0l0,-2.211l-4.423,-0l0,-2.212l-4.423,0l-0,-2.212l-4.423,0l-0,-2.211l-6.635,-0l0,-2.212l-2.211,0l-0,-2.211l-4.424,-0l0,-2.212l-6.634,0l-0,-2.211l-6.635,-0l0,-2.212l-8.846,0l-0,-2.211l-2.212,-0l0,-2.212l-6.634,-0l-0,-2.212l-4.424,0l0,-2.211l-2.211,-0l-0,-2.212l-4.423,0l-0,-2.211l-2.212,-0l0,-4.423l-2.211,-0l-0,-4.423l-2.212,-0l0,-6.635l-2.211,-0l-0,-6.635l-2.212,0l-0,-4.423l-2.212,0l0,-8.846l-2.211,-0l-0,-6.635l-2.212,0l0,-6.635l-2.211,0l-0,-6.634l-2.212,-0l0,-4.423l-2.211,-0l-0,-6.635l-2.212,-0l0,-6.635l-2.211,0l-0,-4.423l-2.212,0l-0,-6.634l-2.212,-0l0,-2.212l-2.211,-0l-0,-6.635l-2.212,0l0,-6.634l-2.211,-0l-0,-4.424l-2.212,0l0,-4.423l-2.211,0l-0,-4.423l-2.212,0l0,-4.423l-2.212,0l0,-4.423l-2.211,-0l-0,-4.423l-2.212,-0l0,-4.423l-2.211,-0l-0,-2.212l-2.212,0l0,-6.634l-2.211,-0l-0,-4.424l-2.212,0l0,-4.423l-2.211,0l-0,-4.423l-2.212,0l0,-4.423l-2.212,0l0,-4.423l-2.211,-0l-0,-4.423l-2.212,-0l0,-2.212l-2.211,0l-0,-4.423l-2.212,0l0,-2.211l-2.211,-0l-0,-4.424l-2.212,0l0,-4.423l-2.211,0l-0,-4.423l-2.212,0l-0,-2.211l-2.212,-0l0,-2.212l-2.211,0l-0,-4.423l-2.212,-0l0,-2.212l-2.211,0l-0,-2.211l-2.212,-0l0,-2.212l-2.211,0l-0,-2.211l-2.212,-0l0,-2.212l-2.212,0l0,-2.211l-2.211,-0l-0,-2.212l-2.212,0l0,-2.211l-2.211,-0l-0,-2.212l-2.212,-0l0,-4.423l-2.211,-0l-0,-2.212l-4.423,0l-0,-2.211l-2.212,-0l0,-4.423l-2.212,-0l0,-2.212l-4.423,0l0,-2.212l-2.211,0l-0,-2.211l-4.423,-0l-0,-2.212l-2.212,0l0,-2.211l-4.423,-0l-0,-2.212l-2.212,0l0,-2.211l-4.423,-0l0,-2.212l-6.634,0l-0,-2.211l-4.423,-0l-0,-2.212l-4.424,0l0,-2.212l-6.634,0l-0,-2.211l-8.847,-0l0,-2.212l-8.846,0l0,-2.211l-15.481,-0l0,-2.212l-6.634,0l-0,-2.211l-13.27,-0l0,2.211l-6.634,0l-0,2.212l-15.481,-0l-0,2.211l-11.058,0l-0,2.212l-13.269,-0l-0,2.211l-11.058,0l-0,2.212l-26.539,0l0,-2.212l-13.269,0l-0,-2.211l-8.847,-0l-11.057,-4.423l-0,2.211l-2.212,0l0,-2.211l-11.058,-0l0,-2.212l-2.211,0l-0,-2.211l-8.846,-0l-0,-2.212l-4.424,0l0,-2.211l-8.846,-0l0,-2.212l-6.635,-0l0,-2.212l-4.423,0l0,-2.211l-4.423,-0l0,-2.212l-6.634,0l-0,-2.211l-6.635,-0l-0,-2.212l-11.058,0l0,-2.211l-2.211,-0l-0,-2.212l-8.847,0l0,-2.212l-6.634,0l-0,-2.211l-8.847,-0l0,-2.212l-11.057,0l-0,-2.211l-11.058,-0l-0,-2.212l-6.635,0l0,-2.211l-8.846,-0l-0,-2.212l-19.904,0Zm400.292,272.022l0,4.423l-2.212,0l0,-4.423l2.212,-0Zm4.423,19.904l0,4.423l-4.423,0l0,-4.423l4.423,-0Zm6.635,236.637l-0,2.211l-2.212,0l0,-2.211l2.212,-0Zm404.715,333.945l0,2.212l-2.211,-0l-0,-2.212l2.211,0Zm-302.983,11.058l-0,2.212l-2.212,-0l0,-2.212l2.212,0Zm4.423,2.212l-0,4.423l-2.212,-0l0,-4.423l2.212,-0Zm2.211,24.327l0,2.211l2.212,0l-0,4.423l2.211,0l0,2.212l-2.211,0l-0,-2.212l-2.212,0l0,-2.211l-2.211,-0l-0,-4.423l2.211,-0Zm35.385,-0l0,2.211l-4.423,0l0,-2.211l4.423,-0Zm-2.211,26.538l-0,2.212l2.211,0l0,2.212l-2.211,-0l-0,-2.212l-2.212,0l0,-2.212l2.212,0Zm8.846,2.212l-0,2.212l-2.212,-0l0,-2.212l2.212,0Zm8.846,4.423l0,2.212l2.212,-0l-0,2.211l2.211,0l0,2.212l2.212,-0l-0,2.211l2.211,0l0,4.424l-4.423,-0l0,-2.212l-2.211,-0l-0,-2.212l-6.635,0l0,-8.846l4.423,0Zm393.658,126.059l-0,2.212l-2.212,-0l0,-2.212l2.212,0Zm68.558,57.501l0,2.211l-2.212,0l0,-2.211l2.212,-0Zm-55.289,24.327l0,6.634l-2.212,0l0,2.212l-2.211,-0l-0,-8.846l4.423,-0Zm84.039,11.058l0,6.634l2.212,0l-0,2.212l-2.212,-0l0,-2.212l-2.211,0l-0,-6.634l2.211,-0Zm-39.808,35.384l0,2.212l2.212,0l-0,2.212l-4.423,-0l-0,-2.212l-2.212,0l0,-2.212l4.423,0Z" style="fill:#ebebeb;"/><path d="M33.914,28.708l-0,2.212l-2.212,-0l0,6.634l2.212,0l-0,2.212l2.212,-0l-0,2.211l4.423,0l-0,2.212l2.211,0l0,2.212l4.423,-0l0,2.211l6.635,0l-0,2.212l4.423,-0l0,2.211l4.423,0l0,2.212l2.212,-0l-0,2.211l4.423,0l-0,2.212l4.423,-0l0,2.212l6.635,-0l-0,2.211l4.423,0l-0,2.212l2.211,-0l0,2.211l2.212,0l-0,2.212l4.423,-0l0,2.211l4.423,0l0,2.212l4.423,-0l0,2.211l4.423,0l0,2.212l2.212,0l-0,2.212l4.423,-0l0,2.211l4.423,0l0,2.212l4.423,-0l0,2.211l6.635,0l0,2.212l2.212,-0l-0,2.211l2.211,0l0,2.212l4.423,-0l0,2.211l6.635,0l-0,2.212l4.423,0l0,2.212l2.212,-0l-0,2.211l4.423,0l-0,2.212l4.423,-0l-0,2.211l4.423,0l-0,2.212l4.423,-0l0,2.211l4.423,0l0,2.212l2.212,-0l-0,2.212l4.423,-0l-0,2.211l4.423,0l-0,2.212l4.423,-0l0,2.211l4.423,0l0,2.212l2.212,-0l-0,2.211l4.423,0l-0,2.212l2.211,-0l0,2.211l4.424,0l-0,2.212l4.423,-0l-0,2.212l2.211,-0l0,2.211l2.212,0l-0,2.212l2.211,-0l0,2.211l4.424,0l-0,2.212l2.211,-0l0,2.211l2.212,0l-0,2.212l2.211,-0l0,2.211l2.212,0l-0,2.212l2.211,0l0,2.212l2.212,-0l-0,2.211l2.211,0l0,2.212l2.212,-0l-0,2.211l2.212,0l-0,2.212l2.211,-0l0,2.211l4.423,0l0,2.212l2.212,-0l-0,2.211l2.211,0l0,2.212l2.212,0l-0,2.212l2.211,-0l0,2.211l2.212,0l0,2.212l2.212,-0l-0,2.211l4.423,0l-0,4.423l2.211,0l0,2.212l2.212,-0l-0,2.212l2.211,-0l0,2.211l4.423,0l0,4.423l2.212,0l0,2.212l2.212,-0l-0,2.211l2.211,0l0,2.212l2.212,-0l-0,2.211l2.211,0l0,4.424l2.212,-0l-0,2.211l2.211,0l0,2.212l2.212,-0l-0,2.211l2.212,0l-0,2.212l2.211,-0l0,6.634l2.212,0l-0,6.635l-2.212,0l0,4.423l-2.211,0l-0,2.212l-2.212,-0l-0,2.211l-4.423,0l-0,4.424l-2.212,-0l0,2.211l-4.423,0l0,2.212l-4.423,-0l0,2.211l-2.212,0l0,2.212l-2.211,-0l-0,2.211l-2.212,0l0,2.212l-2.211,-0l-0,2.211l-2.212,0l0,4.424l-2.211,-0l-0,4.423l-2.212,-0l0,2.211l-2.211,0l-0,4.423l-2.212,0l0,4.423l-2.212,0l0,6.635l-2.211,0l-0,13.269l-2.212,0l0,6.635l-2.211,0l-0,17.693l-2.212,-0l0,24.327l-2.211,-0l-0,28.75l-2.212,0l0,72.982l2.212,-0l-0,13.269l2.211,-0l0,8.846l2.212,0l-0,6.635l2.211,-0l0,4.423l2.212,-0l-0,6.635l2.211,-0l0,8.846l2.212,-0l0,4.423l2.212,-0l-0,4.423l2.211,0l0,4.423l2.212,0l-0,6.635l2.211,-0l0,4.423l2.212,-0l-0,4.423l2.211,0l0,6.635l4.423,-0l0,4.423l2.212,-0l0,6.635l2.212,-0l-0,2.211l2.211,0l0,4.423l2.212,0l-0,4.423l2.211,0l0,4.423l2.212,0l-0,6.635l2.211,0l0,4.423l2.212,0l-0,4.423l2.212,0l-0,4.424l2.211,-0l0,4.423l2.212,-0l-0,6.634l2.211,0l0,4.423l2.212,0l-0,4.424l2.211,-0l0,2.211l2.212,0l-0,4.423l2.211,0l0,6.635l2.212,-0l-0,4.423l2.212,0l-0,4.423l2.211,0l0,4.423l2.212,0l-0,4.423l2.211,0l0,4.424l2.212,-0l-0,4.423l2.211,-0l0,2.211l4.423,0l0,4.423l2.212,0l0,2.212l2.212,-0l-0,2.211l2.211,0l0,2.212l2.212,-0l-0,2.212l2.211,-0l0,4.423l2.212,-0l-0,2.211l2.211,0l0,2.212l2.212,-0l-0,2.211l2.212,0l-0,2.212l2.211,-0l0,4.423l2.212,0l-0,2.212l2.211,-0l0,2.211l2.212,0l-0,4.423l2.211,0l0,4.423l2.212,0l-0,4.423l2.211,0l0,6.635l2.212,0l-0,4.423l2.212,0l-0,6.635l2.211,-0l0,4.423l2.212,0l-0,4.423l2.211,0l0,6.635l2.212,-0l-0,4.423l2.211,-0l0,4.423l2.212,0l-0,4.423l2.211,0l0,4.423l2.212,0l0,4.423l2.212,0l-0,4.424l2.211,-0l0,4.423l2.212,-0l-0,4.423l2.211,-0l0,2.211l2.212,0l-0,6.635l2.211,0l0,4.423l2.212,0l-0,2.212l2.211,-0l0,4.423l2.212,-0l0,2.211l2.212,0l-0,4.424l2.211,-0l0,2.211l2.212,0l-0,2.212l2.211,-0l0,4.423l2.212,-0l-0,2.211l2.211,0l0,4.423l2.212,0l-0,4.424l2.212,-0l-0,2.211l2.211,0l0,2.212l2.212,-0l-0,6.634l2.211,0l0,2.212l2.212,-0l-0,2.211l2.211,0l0,4.424l2.212,-0l-0,2.211l2.211,0l0,2.212l2.212,-0l-0,2.211l2.212,0l-0,2.212l2.211,-0l0,4.423l2.212,-0l-0,2.212l2.211,-0l0,2.211l2.212,0l-0,2.212l2.211,-0l0,2.211l2.212,0l-0,2.212l2.211,-0l0,2.211l2.212,0l0,2.212l2.212,-0l-0,2.211l2.211,0l0,2.212l2.212,-0l-0,2.212l2.211,-0l0,2.211l2.212,0l-0,2.212l2.211,-0l0,2.211l2.212,0l-0,2.212l2.212,-0l-0,2.211l2.211,0l0,2.212l2.212,-0l-0,2.211l2.211,0l0,2.212l2.212,0l-0,2.212l2.211,-0l0,2.211l2.212,0l-0,2.212l2.211,-0l0,4.423l4.424,-0l-0,2.211l2.211,0l0,2.212l2.212,-0l-0,4.423l2.211,0l0,2.212l2.212,-0l-0,2.211l2.211,0l0,4.423l2.212,0l-0,4.423l2.211,0l0,2.212l2.212,-0l0,6.635l4.423,-0l0,2.211l2.212,0l-0,2.212l4.423,-0l-0,2.211l4.423,0l-0,2.212l4.423,-0l0,2.211l4.423,0l0,2.212l4.423,0l0,2.212l2.212,-0l-0,2.211l4.423,0l-0,2.212l2.212,-0l-0,2.211l2.211,0l0,2.212l2.212,-0l-0,2.211l2.211,0l0,2.212l2.212,-0l-0,2.211l2.211,0l0,2.212l4.423,0l0,2.212l2.212,-0l-0,2.211l2.212,0l-0,2.212l4.423,-0l-0,2.211l4.423,0l-0,2.212l2.211,-0l0,2.211l4.423,0l0,2.212l4.424,-0l-0,2.212l2.211,-0l0,2.211l4.423,0l0,2.212l26.539,-0l-0,2.211l4.423,0l0,2.212l6.635,-0l-0,2.211l6.634,0l0,2.212l4.424,-0l-0,2.211l2.211,0l0,2.212l2.212,-0l-0,2.212l2.211,-0l0,2.211l2.212,0l-0,2.212l4.423,-0l-0,2.211l2.211,0l0,2.212l2.212,-0l0,2.211l2.212,0l-0,2.212l2.211,-0l0,2.211l2.212,0l-0,2.212l2.211,0l0,2.212l4.423,-0l0,2.211l2.212,0l-0,2.212l2.212,-0l-0,2.211l4.423,0l-0,2.212l2.211,-0l0,2.211l4.423,0l0,2.212l2.212,-0l-0,2.211l4.423,0l-0,2.212l2.212,0l-0,2.212l4.423,-0l-0,2.211l4.423,0l-0,2.212l2.211,-0l0,2.211l2.212,0l-0,2.212l4.423,-0l0,2.211l2.212,0l-0,2.212l2.211,-0l0,2.212l6.635,-0l-0,2.211l2.211,0l0,2.212l4.423,-0l0,2.211l8.847,0l-0,2.212l8.846,-0l-0,2.211l6.635,0l-0,2.212l4.423,-0l-0,2.211l6.634,0l0,2.212l6.635,0l0,2.212l6.635,-0l-0,2.211l8.846,0l0,2.212l6.635,-0l-0,2.211l2.211,0l0,2.212l8.847,-0l-0,2.211l6.634,0l0,2.212l6.635,-0l-0,2.211l6.635,0l-0,2.212l2.211,0l0,2.212l6.635,-0l-0,2.211l4.423,0l-0,2.212l4.423,-0l0,2.211l6.635,0l-0,2.212l2.211,-0l0,2.211l6.635,0l-0,2.212l4.423,-0l0,2.212l4.423,-0l0,2.211l6.635,0l-0,2.212l8.846,-0l0,2.211l4.423,0l0,2.212l4.423,-0l0,2.211l8.847,0l-0,2.212l8.846,-0l-0,2.211l13.269,0l0,2.212l6.635,-0l-0,2.212l4.423,-0l-0,2.211l4.423,0l0,2.212l6.635,-0l-0,2.211l4.423,0l-0,2.212l6.635,-0l-0,4.423l4.423,-0l-0,2.211l4.423,0l-0,2.212l4.423,0l-0,2.212l4.423,-0l0,2.211l2.212,0l-0,2.212l2.211,-0l0,2.211l2.212,0l-0,2.212l2.211,-0l0,2.211l2.212,0l-0,2.212l2.211,-0l0,2.211l2.212,0l-0,37.597l2.211,0l0,4.423l2.212,0l0,8.846l2.212,0l-0,4.423l2.211,0l0,2.212l2.212,0l-0,2.212l2.211,-0l0,2.211l2.212,0l-0,2.212l6.635,-0l-0,2.211l6.634,0l0,2.212l15.481,-0l0,2.211l4.423,0l0,2.212l22.116,-0l-0,2.212l6.635,-0l-0,2.211l6.634,0l0,2.212l26.539,-0l-0,-2.212l61.924,0l-0,-2.211l4.423,-0l-0,-2.212l6.634,-0l0,-4.423l4.423,-0l0,-2.212l2.212,0l0,-4.423l2.212,0l-0,-11.058l-4.424,0l0,-2.211l-2.211,-0l-0,-2.212l-2.212,0l0,-2.211l-2.211,-0l-0,-2.212l-4.423,0l-0,-2.211l-2.212,-0l0,-2.212l-2.211,0l-0,-8.846l-2.212,-0l0,-6.635l2.212,0l-0,-4.423l2.211,-0l0,-4.423l2.212,-0l-0,-2.212l2.211,0l0,-2.211l2.212,-0l-0,-2.212l2.211,0l0,-2.211l2.212,-0l-0,-2.212l2.211,0l0,-2.212l2.212,0l0,-2.211l2.212,-0l-0,-2.212l2.211,0l0,-4.423l2.212,0l-0,-2.211l2.211,-0l0,-2.212l2.212,0l-0,-2.211l2.211,-0l0,-4.424l2.212,0l-0,-2.211l2.212,-0l-0,-2.212l2.211,0l0,-2.211l4.423,-0l0,-2.212l2.212,0l-0,-2.211l4.423,-0l-0,-2.212l4.423,0l-0,-2.211l2.212,-0l-0,-2.212l2.211,-0l0,-2.212l4.423,0l0,-6.634l2.212,-0l-0,-11.058l-2.212,-0l0,-8.846l-2.211,-0l-0,-6.635l-2.212,0l0,-2.212l-2.211,0l-0,-4.423l-2.212,0l-0,-6.634l-2.212,-0l0,-2.212l-2.211,0l-0,-4.423l-2.212,0l0,-2.212l-2.211,0l-0,-4.423l-2.212,0l0,-2.211l-2.211,-0l-0,-2.212l-2.212,0l0,-2.211l-2.211,-0l-0,-2.212l-2.212,0l-0,-4.423l-2.212,-0l0,-2.212l-4.423,0l0,-2.211l-2.211,-0l-0,-2.212l-2.212,0l0,-2.211l-2.211,-0l-0,-2.212l-2.212,0l0,-2.211l-4.423,-0l-0,-2.212l-2.212,0l0,-2.212l-2.211,0l-0,-2.211l-4.423,-0l-0,-2.212l-4.423,0l-0,-2.211l-2.212,-0l0,-2.212l-4.423,0l-0,-2.211l-2.212,-0l0,-2.212l-2.211,0l-0,-2.211l-4.423,-0l-0,-2.212l-2.212,0l0,-2.212l-4.423,0l-0,-2.211l-2.212,-0l0,-2.212l-4.423,0l0,-2.211l-2.211,-0l-0,-2.212l-4.423,0l-0,-2.211l-4.424,-0l0,-2.212l-4.423,0l0,-2.211l-4.423,-0l0,-2.212l-2.211,-0l-0,-2.212l-4.423,0l-0,-2.211l-6.635,-0l-0,-2.212l-4.423,0l-0,-4.423l-4.423,0l-0,-2.211l-2.212,-0l0,-2.212l-4.423,0l-0,-2.211l-2.212,-0l0,-4.424l-2.211,0l-0,-2.211l-2.212,-0l0,-4.423l-4.423,-0l0,-6.635l-2.211,0l-0,-4.423l-2.212,-0l0,-6.635l-2.211,0l-0,-8.846l-2.212,0l-0,-2.212l-2.212,0l0,-11.057l-2.211,-0l-0,-11.058l-2.212,-0l0,-11.058l-2.211,0l-0,-8.846l-2.212,-0l0,-2.212l-2.211,0l-0,-8.846l-2.212,0l0,-6.635l-2.212,0l0,-6.634l-2.211,-0l-0,-4.423l-2.212,-0l0,-4.424l-2.211,0l-0,-6.634l-2.212,-0l0,-4.423l-2.211,-0l-0,-4.423l-2.212,-0l0,-4.424l-2.211,0l-0,-4.423l-2.212,0l0,-4.423l-2.212,0l0,-4.423l-2.211,0l-0,-4.423l-2.212,-0l0,-2.212l-2.211,0l-0,-2.211l-2.212,-0l0,-6.635l-2.211,0l-0,-4.423l-2.212,0l0,-2.212l-2.211,0l-0,-6.634l-4.424,-0l0,-6.635l-2.211,0l-0,-4.423l-2.212,-0l0,-2.212l-2.211,0l-0,-4.423l-2.212,0l0,-4.423l-2.211,0l-0,-2.211l-2.212,-0l0,-4.424l-2.212,0l0,-2.211l-2.211,-0l-0,-4.423l-4.423,-0l-0,-4.423l-2.212,-0l0,-4.423l-2.211,-0l-0,-2.212l-2.212,0l0,-2.212l-2.211,0l-0,-2.211l-2.212,-0l0,-4.423l-2.212,-0l0,-4.423l-2.211,-0l-0,-2.212l-2.212,0l0,-4.423l-2.211,-0l-0,-4.423l-2.212,-0l0,-2.212l-2.211,0l-0,-6.634l-2.212,-0l0,-2.212l-2.211,0l-0,-2.211l-2.212,-0l-0,-4.424l-2.212,0l0,-2.211l-2.211,-0l-0,-4.423l-2.212,-0l0,-2.212l-2.211,0l-0,-4.423l-2.212,0l0,-2.212l-2.211,0l-0,-4.423l-2.212,0l0,-2.211l-2.211,-0l-0,-6.635l-2.212,0l-0,-2.211l-2.212,-0l0,-2.212l-2.211,0l-0,-4.423l-2.212,-0l0,-4.423l-2.211,-0l-0,-2.212l-2.212,0l0,-2.211l-2.211,-0l-0,-2.212l-2.212,0l0,-4.423l-2.212,-0l0,-2.212l-2.211,0l-0,-2.211l-2.212,-0l0,-2.212l-2.211,0l-0,-4.423l-2.212,0l0,-2.211l-2.211,-0l-0,-2.212l-2.212,0l0,-2.211l-2.211,-0l-0,-2.212l-2.212,-0l0,-2.212l-2.212,0l0,-4.423l-2.211,0l-0,-2.211l-2.212,-0l0,-2.212l-2.211,0l-0,-2.211l-2.212,-0l0,-2.212l-2.211,0l-0,-4.423l-2.212,-0l0,-2.212l-2.211,0l-0,-4.423l-2.212,0l-0,-2.211l-2.212,-0l0,-2.212l-2.211,0l-0,-2.211l-2.212,-0l0,-4.424l-2.211,0l-0,-2.211l-2.212,-0l0,-2.212l-2.211,0l-0,-4.423l-2.212,0l0,-2.211l-2.212,-0l0,-4.423l-2.211,-0l-0,-2.212l-2.212,-0l0,-2.212l-2.211,0l-0,-2.211l-2.212,-0l0,-4.423l-2.211,-0l-0,-2.212l-2.212,0l0,-2.211l-2.211,-0l-0,-2.212l-2.212,0l0,-2.212l-2.212,0l0,-2.211l-2.211,-0l-0,-2.212l-2.212,0l0,-2.211l-2.211,-0l-0,-4.423l-2.212,-0l0,-2.212l-2.211,0l-0,-2.211l-2.212,-0l0,-2.212l-2.211,0l-0,-2.212l-2.212,0l-0,-2.211l-2.212,-0l0,-2.212l-2.211,0l-0,-2.211l-2.212,-0l0,-2.212l-2.211,0l-0,-2.211l-2.212,-0l0,-2.212l-2.211,0l-0,-2.211l-2.212,-0l0,-2.212l-2.211,-0l-0,-2.212l-2.212,0l-0,-2.211l-2.212,-0l0,-2.212l-2.211,0l-0,-2.211l-2.212,-0l0,-2.212l-2.211,0l-0,-2.211l-2.212,-0l0,-2.212l-4.423,0l0,-4.423l-2.212,-0l0,-2.212l-4.423,0l0,-2.211l-2.211,-0l-0,-2.212l-4.423,0l-0,-2.211l-2.212,-0l0,-2.212l-2.211,0l-0,-2.211l-2.212,-0l0,-2.212l-4.423,0l-0,-2.212l-2.212,0l0,-2.211l-2.211,-0l-0,-2.212l-4.423,0l-0,-2.211l-2.212,-0l0,-2.212l-2.211,0l-0,-2.211l-2.212,-0l-0,-2.212l-4.423,0l-0,-2.211l-2.212,-0l0,-2.212l-2.211,-0l-0,-2.212l-2.212,0l0,-2.211l-4.423,-0l0,-2.212l-2.212,0l0,-2.211l-2.211,-0l-0,-2.212l-4.423,0l-0,-2.211l-2.212,-0l0,-2.212l-2.211,0l-0,-2.211l-2.212,-0l0,-2.212l-2.211,-0l-0,-2.212l-2.212,0l0,-2.211l-2.212,-0l0,-2.212l-2.211,0l-0,-2.211l-4.423,-0l-0,-2.212l-2.212,0l0,-2.211l-2.211,-0l-0,-2.212l-2.212,0l0,-2.212l-2.211,0l-0,-2.211l-2.212,-0l-0,-2.212l-4.423,0l-0,-2.211l-2.212,-0l0,-2.212l-2.211,0l-0,-2.211l-4.423,-0l-0,-2.212l-2.212,0l0,-2.211l-4.423,-0l-0,-2.212l-2.212,0l0,-2.212l-2.211,0l-0,-2.211l-4.423,-0l-0,-2.212l-2.212,0l0,-2.211l-2.211,-0l-0,-2.212l-4.424,0l0,-2.211l-2.211,-0l-0,-2.212l-4.423,0l-0,-2.211l-2.212,-0l0,-2.212l-4.423,-0l0,-2.212l-2.211,0l-0,-2.211l-4.424,-0l0,-2.212l-2.211,0l-0,-2.211l-2.212,-0l0,-2.212l-2.211,0l-0,-2.211l-6.635,-0l0,-2.212l-2.211,0l-0,-2.211l-4.424,-0l0,-2.212l-2.211,-0l-0,-2.212l-4.423,0l-0,-2.211l-6.635,-0l0,-2.212l-4.423,0l-0,-2.211l-4.423,-0l-0,-2.212l-2.212,0l0,-2.211l-4.423,-0l0,-2.212l-4.423,0l0,-2.212l-4.423,0l-0,-2.211l-6.635,-0l0,-2.212l-2.211,0l-0,-2.211l-4.423,-0l-0,-2.212l-6.635,0l-0,-2.211l-6.635,-0l0,-2.212l-8.846,0l-0,-2.211l-2.212,-0l0,-2.212l-6.634,-0l-0,-2.212l-4.423,0l-0,-2.211l-2.212,-0l0,-2.212l-4.423,0l-0,-2.211l-2.212,-0l0,-4.423l-2.211,-0l-0,-4.423l-2.212,-0l0,-6.635l-2.211,-0l-0,-6.635l-2.212,0l0,-4.423l-2.211,0l-0,-8.846l-2.212,-0l0,-6.635l-2.212,0l0,-6.635l-2.211,0l-0,-6.634l-2.212,-0l0,-4.423l-2.211,-0l-0,-6.635l-2.212,-0l0,-6.635l-2.211,0l-0,-4.423l-2.212,0l0,-6.634l-2.211,-0l-0,-2.212l-2.212,-0l-0,-6.635l-2.212,0l0,-6.634l-2.211,-0l-0,-4.424l-2.212,0l0,-4.423l-2.211,0l-0,-4.423l-2.212,0l0,-4.423l-2.211,0l-0,-4.423l-2.212,-0l0,-4.423l-2.211,-0l-0,-4.423l-2.212,-0l-0,-2.212l-2.212,0l0,-6.634l-2.211,-0l-0,-4.424l-2.212,0l0,-4.423l-2.211,0l-0,-4.423l-2.212,0l0,-4.423l-2.211,0l-0,-4.423l-2.212,-0l0,-4.423l-2.212,-0l0,-2.212l-2.211,0l-0,-4.423l-2.212,0l0,-2.211l-2.211,-0l-0,-4.424l-2.212,0l0,-4.423l-2.211,0l-0,-4.423l-2.212,0l0,-2.211l-2.211,-0l-0,-2.212l-2.212,0l-0,-4.423l-2.212,-0l0,-2.212l-2.211,0l-0,-2.211l-2.212,-0l0,-2.212l-2.211,0l-0,-2.211l-2.212,-0l0,-2.212l-2.211,0l-0,-2.211l-2.212,-0l0,-2.212l-2.211,0l-0,-2.211l-2.212,-0l-0,-2.212l-2.212,-0l0,-4.423l-2.211,-0l-0,-2.212l-4.423,0l-0,-2.211l-2.212,-0l0,-4.423l-2.211,-0l-0,-2.212l-4.424,0l0,-2.212l-2.211,0l-0,-2.211l-4.423,-0l-0,-2.212l-2.212,0l0,-2.211l-4.423,-0l0,-2.212l-2.211,0l-0,-2.211l-4.424,-0l0,-2.212l-6.634,0l-0,-2.211l-4.423,-0l-0,-2.212l-4.423,0l-0,-2.212l-6.635,0l-0,-2.211l-8.846,-0l-0,-2.212l-8.847,0l0,-2.211l-15.481,-0l0,-2.212l-6.634,0l-0,-2.211l-13.27,-0l0,2.211l-6.634,0l-0,2.212l-15.481,-0l-0,2.211l-11.058,0l0,2.212l-13.269,-0l-0,2.211l-11.058,0l-0,2.212l-26.539,0l0,-2.212l-13.269,0l-0,-2.211l-13.27,-0l0,-2.212l-11.057,0l-0,-2.211l-8.847,-0l0,-2.212l-2.211,0l-0,-2.211l-8.846,-0l-0,-2.212l-4.423,0l-0,-2.211l-8.847,-0l0,-2.212l-6.634,-0l-0,-2.212l-4.424,0l0,-2.211l-4.423,-0l0,-2.212l-6.634,0l-0,-2.211l-6.635,-0l0,-2.212l-11.058,0l0,-2.211l-2.211,-0l-0,-2.212l-8.847,0l0,-2.212l-6.634,0l-0,-2.211l-8.846,-0l-0,-2.212l-11.058,0l-0,-2.211l-11.058,-0l-0,-2.212l-6.635,0l0,-2.211l-8.846,-0l-0,-2.212l-19.904,0Zm11.058,6.635l-0,2.211l-2.212,0l0,-2.211l2.212,-0Zm26.538,2.211l0,2.212l13.27,-0l-0,2.211l6.635,0l-0,2.212l4.423,0l-0,2.212l6.634,-0l0,2.211l8.847,0l-0,4.423l-2.212,0l-0,-2.211l-8.846,-0l-0,-2.212l-4.423,0l-0,-2.211l-8.847,-0l0,-2.212l-4.423,0l0,-2.212l-13.269,0l-0,2.212l-2.212,0l0,-4.423l2.212,-0l-0,-2.212l2.211,0Zm-15.48,2.212l-0,2.211l2.211,0l0,4.424l-2.211,-0l-0,-2.212l-4.424,0l0,-2.212l2.212,0l-0,-2.211l2.212,-0Zm64.135,11.058l-0,2.211l8.846,0l0,2.212l-13.269,-0l-0,-2.212l-2.212,0l0,-2.211l6.635,-0Zm17.692,6.634l0,2.212l6.635,-0l-0,2.212l8.846,-0l0,2.211l6.635,0l-0,2.212l6.635,-0l-0,4.423l-4.424,-0l0,-2.212l-6.634,0l-0,-2.211l-11.058,-0l-0,-2.212l-2.212,0l0,-2.211l-11.057,-0l-0,-2.212l-2.212,-0l0,-2.212l8.846,0Zm39.808,13.27l0,2.211l6.635,0l-0,2.212l8.846,-0l0,2.211l13.27,0l-0,2.212l15.481,0l-0,2.212l6.634,-0l0,2.211l26.539,0l-0,-2.211l6.635,-0l-0,-2.212l13.269,0l-0,-2.212l8.846,0l0,-2.211l15.481,-0l0,-2.212l42.02,0l-0,2.212l11.058,-0l-0,2.211l8.846,0l-0,2.212l6.634,0l0,2.212l4.424,-0l-0,2.211l4.423,0l-0,2.212l4.423,-0l-0,2.211l6.634,0l0,2.212l4.424,-0l-0,2.211l4.423,0l-0,4.423l4.423,0l-0,2.212l4.423,0l-0,2.212l2.211,-0l0,2.211l2.212,0l0,2.212l2.212,-0l-0,2.211l2.211,0l0,2.212l2.212,-0l-0,2.211l2.211,0l0,2.212l2.212,-0l-0,4.423l2.211,0l0,2.212l4.424,-0l-0,2.211l2.211,0l0,2.212l2.212,-0l-0,2.211l2.211,0l0,4.423l4.423,0l0,4.424l2.212,-0l-0,2.211l2.211,0l0,4.423l2.212,0l-0,2.212l2.212,-0l-0,2.211l2.211,0l0,4.423l2.212,0l-0,4.424l2.211,-0l0,4.423l2.212,-0l-0,2.211l2.211,0l0,4.423l2.212,0l-0,2.212l2.211,-0l0,4.423l2.212,0l0,6.635l2.212,-0l-0,2.211l2.211,0l0,2.212l2.212,-0l-0,6.635l2.211,-0l0,4.423l2.212,-0l-0,6.634l2.211,0l0,4.423l2.212,0l-0,2.212l2.212,-0l-0,4.423l2.211,0l0,4.423l2.212,0l-0,4.423l2.211,0l0,6.635l2.212,0l-0,2.212l2.211,-0l0,4.423l2.212,-0l-0,6.634l2.211,0l0,6.635l2.212,0l-0,4.423l2.212,0l-0,4.423l2.211,0l0,6.635l2.212,-0l-0,6.635l2.211,-0l0,6.634l2.212,0l-0,4.423l2.211,0l0,4.424l2.212,-0l-0,6.634l2.211,0l0,8.846l2.212,0l0,8.847l2.212,-0l-0,6.634l2.211,0l0,4.424l2.212,-0l-0,8.846l2.211,-0l0,2.211l2.212,0l-0,2.212l2.211,-0l0,4.423l2.212,-0l-0,2.212l4.423,-0l0,2.211l11.058,0l-0,2.212l8.846,-0l0,2.211l6.635,0l-0,2.212l4.423,-0l-0,2.211l6.635,0l-0,2.212l2.211,-0l0,2.211l6.635,0l-0,2.212l4.423,0l-0,2.212l4.423,-0l0,2.211l4.423,0l0,2.212l2.212,-0l-0,2.211l4.423,0l-0,2.212l4.423,-0l-0,2.211l6.635,0l-0,2.212l2.211,-0l0,2.212l6.635,-0l-0,2.211l2.211,0l0,2.212l2.212,-0l-0,2.211l6.635,0l-0,2.212l2.211,-0l0,2.211l4.423,0l0,2.212l2.212,-0l-0,2.211l2.211,0l0,2.212l2.212,-0l0,2.212l4.423,-0l0,2.211l4.423,0l0,2.212l2.212,-0l-0,2.211l2.211,0l0,2.212l4.423,-0l0,2.211l2.212,0l0,2.212l4.423,-0l0,2.211l2.212,0l-0,2.212l2.211,0l0,2.212l2.212,-0l-0,2.211l4.423,0l-0,2.212l2.212,-0l-0,2.211l4.423,0l-0,2.212l2.211,-0l0,2.211l2.212,0l-0,2.212l4.423,-0l-0,2.211l2.211,0l0,2.212l2.212,0l-0,2.212l2.212,-0l-0,2.211l2.211,0l0,2.212l4.423,-0l0,2.211l2.212,0l-0,2.212l2.211,-0l0,2.211l2.212,0l-0,2.212l2.211,-0l0,2.212l2.212,-0l0,2.211l2.212,0l-0,2.212l4.423,-0l-0,2.211l2.211,0l0,2.212l2.212,-0l-0,2.211l2.211,0l0,2.212l2.212,-0l-0,2.211l4.423,0l0,2.212l4.423,-0l0,2.212l2.212,-0l-0,4.423l4.423,-0l-0,2.211l2.211,0l0,2.212l4.424,-0l-0,2.211l2.211,0l0,2.212l2.212,-0l-0,2.211l2.211,0l0,2.212l4.423,0l0,2.212l2.212,-0l-0,2.211l2.211,0l0,2.212l2.212,-0l0,2.211l4.423,0l0,2.212l2.212,-0l-0,2.211l2.211,0l0,2.212l4.423,-0l0,2.212l2.212,-0l-0,4.423l4.423,-0l0,2.211l4.423,0l0,2.212l2.212,-0l-0,2.211l2.211,0l0,4.423l4.423,0l0,2.212l2.212,-0l-0,2.212l2.212,-0l-0,2.211l2.211,0l0,2.212l2.212,-0l-0,2.211l2.211,0l0,2.212l2.212,-0l-0,2.211l2.211,0l0,2.212l2.212,-0l-0,2.211l2.211,0l0,2.212l2.212,0l-0,2.212l2.212,-0l-0,4.423l2.211,-0l0,2.211l2.212,0l-0,2.212l2.211,-0l0,2.211l2.212,0l-0,2.212l2.211,-0l0,2.211l2.212,0l-0,4.424l2.211,-0l0,2.211l2.212,0l0,2.212l2.212,-0l-0,2.211l2.211,0l0,2.212l2.212,-0l-0,2.211l2.211,0l0,4.424l2.212,-0l-0,2.211l2.211,0l0,2.212l2.212,-0l-0,2.211l2.211,0l0,4.423l2.212,0l0,2.212l2.212,-0l-0,2.211l2.211,0l0,4.424l2.212,-0l-0,4.423l2.211,-0l0,2.211l2.212,0l-0,2.212l2.211,-0l0,2.211l2.212,0l-0,4.423l2.212,0l-0,2.212l2.211,0l0,2.212l2.212,-0l-0,2.211l2.211,0l0,2.212l2.212,-0l-0,4.423l2.211,-0l0,2.211l2.212,0l-0,2.212l2.211,-0l0,2.212l2.212,-0l0,2.211l2.212,0l-0,4.423l2.211,0l0,2.212l2.212,-0l-0,2.211l2.211,0l0,2.212l2.212,-0l-0,2.211l2.211,0l0,4.424l2.212,-0l-0,2.211l2.211,0l0,2.212l2.212,-0l0,4.423l4.423,-0l0,4.423l2.212,-0l-0,4.423l2.211,0l0,4.423l2.212,0l-0,4.423l2.211,0l0,2.212l2.212,-0l-0,4.423l2.212,-0l-0,2.211l2.211,0l0,4.424l2.212,-0l-0,4.423l4.423,-0l-0,4.423l2.211,-0l0,4.423l2.212,-0l-0,4.423l2.211,0l0,2.212l2.212,-0l-0,2.211l2.212,0l-0,4.423l2.211,0l0,4.423l2.212,0l-0,4.424l2.211,-0l0,2.211l2.212,0l-0,2.212l2.211,-0l0,4.423l2.212,-0l-0,2.211l2.211,0l0,6.635l2.212,0l0,2.212l4.423,-0l0,4.423l2.212,-0l-0,4.423l2.211,-0l0,2.211l2.212,0l-0,2.212l2.211,-0l0,2.211l2.212,0l-0,4.424l2.211,-0l0,4.423l2.212,-0l0,2.211l2.212,0l-0,4.423l2.211,0l0,2.212l2.212,-0l-0,4.423l2.211,0l0,6.635l2.212,-0l-0,4.423l2.211,-0l0,2.211l2.212,0l-0,2.212l2.212,0l-0,4.423l2.211,0l0,4.423l2.212,0l-0,6.635l2.211,-0l0,2.211l2.212,0l-0,2.212l2.211,0l0,4.423l2.212,0l-0,6.635l2.211,-0l0,4.423l2.212,-0l0,4.423l2.212,0l-0,2.212l2.211,-0l0,4.423l2.212,-0l-0,6.634l2.211,0l0,4.424l2.212,-0l-0,6.634l2.211,0l0,2.212l2.212,-0l-0,8.846l2.211,0l0,4.423l2.212,0l0,8.846l2.212,0l-0,6.635l2.211,0l0,6.635l2.212,-0l-0,11.058l2.211,-0l0,13.269l2.212,-0l-0,11.058l2.211,-0l0,11.057l2.212,0l-0,4.424l2.212,-0l-0,4.423l2.211,-0l0,2.211l-2.211,0l-0,2.212l-2.212,-0l-0,6.635l2.212,-0l-0,2.211l4.423,0l-0,2.212l13.269,-0l-0,2.211l4.423,0l0,2.212l2.212,-0l-0,4.423l4.423,-0l-0,2.211l4.423,0l-0,2.212l4.423,-0l0,2.212l4.423,-0l0,2.211l4.423,0l0,2.212l2.212,-0l-0,2.211l6.634,0l0,2.212l4.424,-0l-0,2.211l2.211,0l0,2.212l4.423,-0l0,2.211l2.212,0l-0,2.212l4.423,0l-0,2.212l4.423,-0l0,2.211l2.212,0l-0,2.212l2.211,-0l0,2.211l2.212,0l-0,2.212l4.423,-0l-0,2.211l4.423,0l0,2.212l2.212,-0l-0,2.211l4.423,0l-0,2.212l2.211,0l0,2.212l2.212,-0l-0,2.211l2.211,0l0,2.212l6.635,-0l0,2.211l2.212,0l-0,2.212l2.211,-0l0,4.423l4.423,-0l0,2.212l2.212,-0l-0,2.211l2.211,0l0,2.212l2.212,-0l-0,2.211l2.212,0l-0,4.423l2.211,0l0,2.212l2.212,-0l-0,2.211l2.211,0l0,4.424l2.212,-0l-0,4.423l4.423,-0l-0,4.423l2.211,-0l0,6.634l2.212,0l-0,4.424l2.212,-0l-0,4.423l2.211,-0l0,4.423l2.212,-0l-0,17.692l-2.212,0l0,2.212l-2.211,-0l-0,2.211l-2.212,0l-0,2.212l-2.212,-0l0,2.212l-17.692,-0l-0,2.211l-4.423,0l-0,13.269l-2.212,0l0,2.212l-2.211,0l-0,2.212l-2.212,-0l0,4.423l-2.211,-0l-0,2.211l-2.212,0l0,2.212l-2.212,-0l0,2.211l-2.211,0l-0,2.212l-2.212,-0l0,2.211l-2.211,0l-0,2.212l-2.212,0l0,2.212l-2.211,-0l-0,2.211l-2.212,0l0,2.212l-2.211,-0l-0,2.211l-4.424,0l0,6.635l-2.211,-0l-0,13.269l2.211,0l0,2.212l-2.211,-0l-0,11.058l6.635,-0l-0,2.211l4.423,0l-0,4.423l6.634,0l0,2.212l4.423,-0l0,6.635l-13.269,-0l0,2.211l-2.211,0l-0,2.212l2.211,-0l0,2.211l6.635,0l-0,2.212l-2.212,-0l0,2.211l-4.423,0l0,-2.211l-11.058,-0l0,4.423l-6.634,-0l-0,-2.212l-2.212,0l0,-2.211l-2.211,-0l-0,-2.212l-4.424,0l0,-2.211l-4.423,-0l0,-2.212l2.212,0l-0,-4.423l-2.212,0l0,-2.212l-2.211,0l-0,-2.211l-4.423,-0l-0,-4.423l-2.212,-0l0,-2.212l-2.212,0l0,11.058l2.212,0l0,4.423l2.212,0l-0,4.423l-8.847,0l0,2.212l-2.211,-0l-0,2.211l-6.635,0l0,-2.211l2.212,-0l-0,-4.423l2.211,-0l0,-13.27l-2.211,0l-0,-4.423l-2.212,0l0,-19.904l-2.211,0l-0,-4.423l-2.212,0l0,-2.211l2.212,-0l-0,-2.212l6.634,-0l0,6.635l2.212,-0l-0,4.423l2.211,-0l0,2.211l6.635,0l0,-13.269l8.846,-0l0,2.212l2.212,-0l-0,-2.212l4.423,-0l-0,-2.212l6.635,0l-0,-4.423l-13.27,0l0,-2.211l-30.962,-0l0,-2.212l-8.846,0l0,2.212l-2.211,-0l-0,-2.212l-2.212,0l0,2.212l-6.635,-0l0,-2.212l-4.423,0l0,-2.211l-8.846,-0l0,4.423l2.212,-0l-0,4.423l2.211,-0l0,22.115l2.212,0l-0,2.212l4.423,0l-0,4.423l4.423,0l-0,2.212l2.212,-0l-0,-8.847l-4.424,0l0,-2.211l4.424,-0l-0,-4.423l2.211,-0l0,-13.27l4.423,0l0,2.212l2.212,-0l-0,2.212l2.211,-0l0,-2.212l2.212,-0l-0,6.635l2.211,-0l0,19.904l2.212,-0l0,15.481l2.212,-0l-0,2.211l-2.212,0l0,4.423l2.212,0l-0,2.212l-2.212,-0l0,-2.212l-4.423,0l-0,2.212l-2.212,-0l0,6.635l-4.423,-0l0,2.211l-11.058,0l0,-2.211l-2.211,-0l-0,-2.212l-2.212,-0l0,-2.212l-2.211,0l-0,-2.211l-8.846,-0l-0,-2.212l-2.212,0l-0,-2.211l-2.212,-0l0,-4.423l-2.211,-0l-0,-2.212l-2.212,0l0,-2.212l2.212,0l-0,-6.634l-2.212,-0l0,-2.212l-2.211,0l-0,-4.423l2.211,0l0,-17.692l-2.211,-0l-0,-2.212l-4.423,0l-0,8.846l-2.212,0l0,8.847l-8.846,-0l-0,2.211l-4.423,0l-0,6.635l-2.212,-0l0,4.423l-2.211,-0l-0,4.423l2.211,0l0,4.423l4.423,0l0,4.423l-6.634,0l-0,-2.211l-4.424,-0l0,-4.423l-2.211,-0l-0,-2.212l-2.212,0l0,-2.212l-2.211,0l-0,-15.48l-2.212,-0l0,-6.635l2.212,-0l-0,-2.212l-4.423,0l-0,4.423l-2.212,0l0,8.847l2.212,-0l-0,4.423l-2.212,-0l0,2.211l-2.211,0l-0,2.212l-2.212,-0l-0,-2.212l-6.635,0l0,2.212l-2.211,-0l-0,-2.212l-2.212,0l0,-6.634l-2.211,-0l-0,-4.423l2.211,-0l0,-11.058l2.212,-0l-0,-8.846l2.211,-0l0,-2.212l-2.211,-0l-0,-2.212l2.211,0l0,-4.423l-2.211,0l-0,-6.634l-2.212,-0l0,-11.058l-4.423,-0l0,-2.212l-4.423,0l-0,-2.211l-4.423,-0l-0,-2.212l-4.423,0l-0,-2.211l-2.212,-0l0,-2.212l-4.423,0l0,-2.212l-4.423,0l-0,-2.211l-4.423,-0l-0,-2.212l-2.212,0l0,-2.211l-4.423,-0l0,-2.212l-4.423,0l-0,-2.211l-4.423,-0l-0,-2.212l-4.423,0l-0,-2.211l-4.423,-0l-0,-2.212l-4.423,-0l-0,-2.212l-6.635,0l-0,-2.211l-11.058,-0l0,-2.212l-13.269,0l-0,-2.211l-8.847,-0l0,-2.212l-6.634,0l-0,-2.211l-2.212,-0l0,-2.212l-8.846,0l-0,-2.211l-4.423,-0l-0,-2.212l-6.635,-0l0,-2.212l-4.423,0l0,-2.211l-2.212,-0l0,-2.212l-6.634,0l-0,-2.211l-4.423,-0l-0,-2.212l-6.635,0l0,-2.211l-4.423,-0l-0,-2.212l-4.423,0l-0,-2.212l-4.423,0l-0,-2.211l-6.635,-0l-0,-2.212l-6.635,0l0,-2.211l-6.634,-0l-0,-2.212l-6.635,0l-0,-2.211l-2.212,-0l0,-2.212l-8.846,0l0,-2.211l-6.635,-0l0,-2.212l-8.846,0l0,-2.212l-6.634,0l-0,-2.211l-2.212,-0l0,-2.212l-6.635,0l0,-2.211l-6.634,-0l-0,-2.212l-6.635,0l-0,-2.211l-2.212,-0l0,-4.423l-4.423,-0l0,-2.212l-4.423,-0l0,2.212l-2.211,-0l-0,-11.058l-6.635,-0l-0,2.211l-2.212,0l0,6.635l2.212,-0l-0,2.212l-2.212,-0l0,-2.212l-4.423,-0l0,-2.212l-2.211,0l-0,-2.211l-2.212,-0l0,-2.212l-4.423,0l0,-2.211l-2.212,-0l0,-2.212l-2.211,0l-0,-4.423l-2.212,0l0,-2.212l-11.057,0l-0,-2.211l-2.212,-0l-0,-2.212l-2.212,0l0,-2.211l-2.211,-0l-0,-2.212l-4.423,0l-0,-2.211l-4.423,-0l-0,-2.212l-4.423,0l-0,-4.423l2.211,0l0,-4.423l-2.211,-0l-0,-2.212l-2.212,0l-0,-2.211l-2.212,-0l0,4.423l2.212,-0l-0,2.211l-4.423,0l-0,-2.211l-2.212,-0l0,-4.423l2.212,-0l-0,-6.635l-2.212,0l0,-2.211l-2.211,-0l-0,-2.212l-2.212,-0l0,6.635l2.212,-0l-0,2.211l-6.635,0l0,-2.211l-2.212,-0l0,-2.212l-2.211,0l-0,-2.211l-2.212,-0l0,-2.212l-2.211,-0l-0,-2.212l-2.212,0l0,-2.211l-2.211,-0l-0,-2.212l-4.423,0l-0,-2.211l-2.212,-0l0,-2.212l-4.423,0l-0,-4.423l-2.212,0l0,-2.211l-6.634,-0l-0,-2.212l-2.212,-0l0,-4.423l6.635,-0l-0,-6.635l-8.846,0l-0,2.212l-4.424,-0l0,-6.635l-2.211,0l-0,-2.212l-2.212,0l0,-2.211l-2.211,-0l-0,-2.212l-4.423,0l-0,-11.057l-4.424,-0l0,2.211l-2.211,0l-0,2.212l-2.212,-0l0,-2.212l-4.423,0l0,-2.211l-2.211,-0l-0,-2.212l-4.423,0l-0,-4.423l-2.212,-0l0,-4.423l-2.212,-0l0,-2.212l-2.211,0l-0,-2.211l-4.423,-0l-0,-2.212l-4.423,0l-0,2.212l-4.423,-0l-0,-2.212l-2.212,0l-0,-6.635l-2.212,0l0,-2.211l-4.423,-0l0,-2.212l-2.211,0l-0,-2.211l2.211,-0l0,-2.212l-6.634,0l-0,2.212l-2.212,-0l0,2.211l-2.211,0l-0,-8.846l-4.424,0l0,-2.212l2.212,0l-0,-2.211l-4.423,-0l-0,-4.423l-4.423,-0l-0,2.211l-2.212,0l0,-2.211l-4.423,-0l0,-2.212l-6.635,0l0,2.212l-2.211,-0l-0,2.211l-2.212,0l0,6.635l4.423,0l0,-2.212l2.212,0l-0,6.635l6.635,0l-0,2.212l-4.424,-0l0,2.211l-2.211,0l-0,-2.211l-4.423,-0l-0,2.211l-2.212,0l0,-2.211l-2.211,-0l-0,2.211l2.211,0l0,8.847l2.212,-0l-0,2.211l2.211,0l0,2.212l2.212,-0l-0,4.423l2.211,-0l0,2.211l-2.211,0l-0,-2.211l-4.423,-0l-0,-2.212l-4.423,0l-0,-2.211l-2.212,-0l0,-4.423l-2.211,-0l-0,-8.847l-2.212,0l0,-4.423l2.212,0l-0,-2.211l-2.212,-0l0,-2.212l-6.635,0l0,-2.212l-2.211,0l-0,-4.423l-2.212,0l0,-2.211l-2.211,-0l-0,-4.423l-2.212,-0l0,-2.212l-4.423,0l-0,-2.211l-2.212,-0l0,-2.212l-2.211,0l-0,-2.212l-2.212,0l0,-2.211l-4.423,-0l0,-2.212l-2.211,0l-0,-2.211l-2.212,-0l0,-2.212l-2.211,0l-0,-2.211l-2.212,-0l-0,-2.212l-2.212,0l0,-2.211l-2.211,-0l-0,-2.212l-2.212,-0l0,-2.212l-2.211,0l-0,-4.423l-4.423,0l-0,-2.211l-2.212,-0l0,-4.423l-2.212,-0l0,-2.212l-2.211,0l-0,-2.211l-2.212,-0l0,-4.424l-2.211,0l-0,-2.211l-2.212,-0l0,-2.212l-2.211,0l-0,-2.211l-2.212,-0l0,-2.212l-2.211,0l-0,-2.211l-2.212,-0l-0,-2.212l-2.212,0l0,-4.423l-2.211,-0l-0,-2.212l-2.212,0l0,-2.211l-2.211,-0l-0,-4.423l-2.212,-0l0,-4.423l-2.211,-0l-0,-2.212l-2.212,0l0,-2.212l-2.211,0l-0,-4.423l-2.212,0l-0,-4.423l-2.212,0l0,-2.211l-2.211,-0l-0,-2.212l-2.212,0l0,-2.211l-2.211,-0l-0,-4.424l-2.212,0l0,-4.423l-2.211,0l-0,-4.423l-2.212,0l0,-2.211l-2.212,-0l0,-2.212l-2.211,0l-0,-4.423l-2.212,-0l0,-6.635l-2.211,0l-0,-2.211l-2.212,-0l0,-4.423l-2.211,-0l-0,-4.424l-2.212,0l0,-4.423l-2.211,0l-0,-4.423l-2.212,0l0,-4.423l-2.212,0l0,-4.423l-2.211,-0l-0,-4.423l-2.212,-0l0,-4.423l-2.211,-0l-0,-6.635l-2.212,0l0,-6.635l-2.211,0l-0,-4.423l-2.212,0l0,-4.423l-2.211,0l-0,-4.423l-2.212,0l-0,-6.635l-2.212,0l0,-4.423l-2.211,0l-0,-4.423l-2.212,0l0,-2.211l-2.211,-0l-0,-6.635l-2.212,-0l0,-4.423l-2.211,-0l-0,-6.635l-2.212,0l0,-4.423l-2.211,-0l-0,-4.423l-2.212,-0l-0,-2.212l-2.212,0l0,-4.423l-2.211,0l-0,-4.423l-4.423,0l-0,-2.211l-2.212,-0l0,4.423l-4.423,-0l0,-4.423l-4.423,-0l-0,-2.212l-2.212,-0l0,-4.423l-2.211,-0l-0,-2.212l-2.212,0l0,-6.634l-2.211,-0l-0,-4.424l-2.212,0l0,-4.423l-2.211,0l-0,-4.423l-2.212,0l-0,-4.423l-2.212,0l0,-4.423l-2.211,-0l-0,-4.423l-2.212,-0l0,-2.212l-2.211,0l-0,-6.634l-2.212,-0l0,-6.635l-2.211,-0l-0,-6.635l-2.212,0l0,-2.211l-2.211,-0l-0,-2.212l-2.212,0l-0,-6.635l-2.212,0l0,-4.423l-2.211,0l-0,-4.423l-2.212,0l0,-4.423l-2.211,0l-0,-2.211l-2.212,-0l0,-6.635l-2.211,-0l-0,-4.423l-2.212,-0l0,-4.423l-2.212,-0l0,-2.212l-2.211,0l-0,-4.423l-2.212,-0l0,-4.423l-2.211,-0l-0,-6.635l-2.212,0l0,-4.423l-2.211,0l-0,-6.635l-2.212,0l0,-2.211l-2.211,-0l-0,-6.635l-2.212,0l0,-6.635l-2.212,0l0,-6.634l-2.211,-0l-0,-6.635l-2.212,0l0,-4.423l-2.211,-0l-0,-11.058l-2.212,0l0,-90.674l2.212,0l-0,-30.962l2.211,0l0,-11.057l2.212,-0l-0,-15.481l2.211,-0l0,-15.481l2.212,-0l0,-6.635l2.212,0l-0,-8.846l2.211,-0l0,-2.212l2.212,0l-0,-2.211l2.211,-0l0,-6.635l2.212,0l-0,-2.211l2.211,-0l0,-2.212l2.212,-0l-0,-2.212l2.211,0l0,-2.211l2.212,-0l0,-2.212l2.212,0l-0,-2.211l2.211,-0l0,-2.212l4.423,0l0,-2.211l2.212,-0l-0,-2.212l4.423,0l-0,-2.211l2.212,-0l-0,-2.212l4.423,-0l-0,-2.212l2.211,0l0,-2.211l17.693,-0l-0,2.211l4.423,0l-0,2.212l2.211,-0l0,2.212l2.212,-0l-0,4.423l2.211,-0l0,2.211l2.212,0l0,2.212l2.212,-0l-0,2.211l2.211,0l0,2.212l4.423,-0l0,6.635l4.423,-0l0,2.211l2.212,0l-0,2.212l2.212,-0l-0,2.211l2.211,0l0,2.212l2.212,-0l-0,2.211l2.211,0l0,8.847l2.212,-0l-0,2.211l4.423,0l-0,-2.211l6.635,-0l-0,-4.424l-2.212,0l-0,-4.423l-2.212,0l0,-2.211l-2.211,-0l-0,-4.423l4.423,-0l-0,-2.212l-2.212,0l0,-2.211l2.212,-0l-0,-2.212l4.423,-0l0,-2.212l2.212,0l-0,4.424l-4.423,-0l-0,6.634l-2.212,0l-0,4.423l2.212,0l-0,-2.211l2.211,-0l0,2.211l6.635,0l-0,-2.211l4.423,-0l-0,2.211l2.211,0l0,-4.423l4.424,0l-0,-2.211l2.211,-0l0,-2.212l-2.211,0l-0,-4.423l4.423,-0l-0,-6.635l-6.635,0l0,2.212l-2.212,-0l0,4.423l-4.423,-0l0,2.212l2.212,-0l-0,2.211l-2.212,0l0,-2.211l-2.211,-0l-0,-4.424l2.211,0l0,-4.423l-4.423,0l0,-2.211l-8.846,-0l-0,-2.212l-4.423,0l-0,2.212l-2.212,-0l0,2.211l2.212,0l-0,2.212l-2.212,-0l0,-2.212l-2.211,0l-0,-4.423l-4.423,0l-0,-2.211l-4.423,-0l-0,-2.212l-4.424,0l0,-4.423l2.212,-0l-0,2.212l11.058,-0l-0,-4.424l8.846,0l-0,-6.634l-2.212,-0l0,2.211l-4.423,0l0,-4.423l-4.423,0l0,2.212l-2.211,-0l-0,-4.423l-2.212,-0l0,2.211l-2.211,0l-0,-2.211l-2.212,-0l-0,-4.424l-2.212,0l0,-2.211l-4.423,-0l0,-4.423l-4.423,-0l0,2.211l-2.211,0l-0,-2.211l-2.212,-0l0,2.211l-2.212,0l0,15.481l-4.423,0l0,-2.211l-2.211,-0l-0,-2.212l-4.423,0l-0,-2.211l-6.635,-0l-0,-2.212l-4.423,0l-0,-2.212l-2.212,0l0,-2.211l-4.423,-0l0,-4.423l-2.211,-0l-0,-4.423l-2.212,-0l0,-2.212l-2.211,0l-0,-2.211l-2.212,-0l-0,-2.212l-2.212,-0l0,-2.212l-2.211,0l-0,-4.423l-2.212,0l0,-2.211l-4.423,-0l0,-2.212l-2.211,0l-0,-2.211l-2.212,-0l0,-4.423l-2.212,-0l0,-2.212l-4.423,-0l0,-2.212l-2.211,0l-0,-2.211l-2.212,-0l0,-4.423l-2.211,-0l-0,-2.212l-4.423,0l-0,-2.211l-2.212,-0l0,-2.212l-2.212,0l0,-4.423l-2.211,-0l-0,-2.212l-4.423,0l-0,-2.211l-2.212,-0l0,-2.212l-2.211,0l-0,-2.211l-2.212,-0l0,-2.212l-2.211,0l-0,-2.211l-2.212,-0l-0,-2.212l-2.212,0l0,-2.212l-2.211,0l-0,-2.211l-2.212,-0l0,-2.212l-2.211,0l-0,-2.211l-2.212,-0l0,-2.212l-2.211,0l-0,-2.211l-2.212,-0l0,-2.212l-2.211,0l-0,-2.211l-4.424,-0l0,-2.212l-2.211,-0l-0,-4.423l4.423,-0l-0,2.211l6.635,0l-0,2.212l4.423,-0l-0,2.212l2.211,-0l0,2.211l2.212,0l-0,2.212l6.635,-0l-0,-2.212l-2.212,0l-0,-2.211l2.212,-0l-0,2.211l2.211,0l0,2.212l2.212,-0l-0,2.211l4.423,0l-0,2.212l11.058,-0l-0,-2.212l-2.212,0l0,-2.211l4.423,-0l0,2.211l2.212,0l-0,2.212l2.211,-0l0,2.211l2.212,0l-0,2.212l2.211,-0l0,2.211l2.212,0l-0,2.212l2.211,0l0,2.212l-4.423,-0l0,-4.424l-2.211,0l-0,-2.211l-2.212,-0l0,6.635l4.423,-0l0,4.423l4.423,-0l0,-2.212l2.212,0l0,2.212l6.635,-0l-0,-4.423l2.211,-0l0,-6.635l-2.211,-0l-0,-2.212l-2.212,0l0,-2.211l-2.211,-0l-0,-2.212l-2.212,0l0,-2.211l-2.212,-0l0,-2.212l-2.211,0l-0,-6.635l-6.635,0l0,-2.211l-2.211,-0l-0,-2.212l-2.212,0l0,-4.423l-6.635,0l0,-2.211l-2.211,-0l-0,-2.212l-2.212,0l0,-2.211l-2.211,-0l-0,-2.212l-6.635,-0l0,2.212l2.212,-0l-0,4.423l2.211,-0l0,2.211l2.212,0l-0,4.423l4.423,0l-0,2.212l4.423,-0l0,2.211l-6.635,0l0,-2.211l-2.211,-0l-0,-2.212l-2.212,0l0,-2.211l-4.423,-0l0,-2.212l-2.211,0l-0,-2.211l-2.212,-0l-0,-2.212l-4.423,0l-0,-2.211l-4.423,-0l-0,-2.212l-11.058,-0l-0,-2.212l-2.212,0l0,-2.211l2.212,-0l-0,-6.635l-2.212,0l0,-4.423l-2.211,0l-0,-2.212l-2.212,0l0,-2.211l-8.846,-0l0,2.211l-4.423,0l-0,-4.423l6.635,0l-0,-2.211l2.211,-0l0,-2.212l-2.211,0l-0,-2.211l-17.693,-0l0,-2.212l-4.423,0l-0,-2.211l-2.212,-0l0,-2.212l-2.211,0l-0,-4.423l-4.423,-0l-0,-2.212l-2.212,0l0,-2.211l4.423,-0Zm-30.962,2.211l0,2.212l-6.634,-0l-0,-2.212l6.634,0Zm39.809,17.693l-0,2.211l4.423,0l-0,-2.211l2.211,-0l0,2.211l2.212,0l-0,4.423l-4.423,0l-0,2.212l-4.423,0l-0,-2.212l-6.635,0l-0,-2.211l-2.212,-0l0,-2.212l-2.211,0l-0,-2.211l11.058,-0Zm2.211,22.115l0,2.212l4.423,-0l0,2.212l-4.423,-0l0,-2.212l-2.211,-0l-0,-2.212l2.211,0Zm88.462,50.866l0,2.212l4.424,-0l-0,-2.212l-4.424,0Zm37.597,42.02l-0,4.423l6.635,-0l-0,-4.423l-6.635,-0Zm6.635,8.846l-0,2.212l-2.212,-0l0,2.211l2.212,0l-0,2.212l6.634,-0l0,-2.212l2.212,0l-0,-4.423l-4.423,0l-0,2.212l-2.212,-0l0,-2.212l-2.211,0Zm6.634,8.846l0,2.212l2.212,-0l-0,-2.212l-2.212,0Zm11.058,2.212l0,2.211l-2.211,0l-0,-2.211l2.211,-0Zm30.962,22.116l-0,2.211l2.212,0l-0,-2.211l-2.212,-0Zm66.347,4.423l-0,2.211l4.423,0l-0,-2.211l-4.423,-0Zm-46.443,2.211l0,2.212l2.212,-0l-0,-2.212l-2.212,0Zm8.846,8.846l0,4.424l-2.211,-0l-0,2.211l4.423,0l-0,-2.211l2.211,-0l0,-4.424l-4.423,0Zm17.693,0l-0,2.212l-2.212,-0l0,4.423l6.635,0l-0,-2.211l2.211,-0l0,-4.424l-6.634,0Zm8.846,2.212l-0,11.058l2.212,-0l-0,4.423l-2.212,-0l-0,-2.212l-2.212,0l0,2.212l2.212,-0l-0,2.211l-2.212,0l0,2.212l-2.211,0l-0,8.846l-2.212,0l0,4.423l-4.423,0l0,-4.423l2.212,0l-0,-2.211l-2.212,-0l0,-2.212l-2.211,0l-0,-4.423l-2.212,0l0,2.212l-6.635,-0l0,-2.212l2.212,0l-0,-2.212l-4.423,0l-0,8.847l-2.212,-0l0,4.423l2.212,-0l-0,-2.212l2.211,0l0,-2.211l6.635,-0l0,8.846l11.058,-0l-0,2.211l4.423,0l-0,2.212l-2.212,0l0,2.212l-2.211,-0l-0,-4.424l-4.423,0l-0,2.212l-2.212,0l0,2.212l2.212,-0l-0,2.211l2.211,0l0,6.635l4.423,-0l0,-2.212l-2.211,0l-0,-2.211l2.211,-0l0,2.211l6.635,0l0,2.212l-2.211,-0l-0,8.846l2.211,0l0,2.212l2.212,-0l-0,2.211l4.423,0l-0,2.212l-2.212,-0l0,4.423l6.635,-0l-0,-2.212l4.423,0l-0,-2.211l-2.212,-0l0,-2.212l4.424,0l-0,2.212l2.211,-0l0,8.846l-2.211,-0l-0,2.212l2.211,-0l0,2.211l2.212,0l-0,2.212l-2.212,-0l0,8.846l4.423,-0l0,-2.212l2.212,0l-0,-2.211l2.211,-0l0,-2.212l-2.211,0l-0,-4.423l4.423,0l-0,-2.211l2.211,-0l0,-4.424l-2.211,0l-0,-4.423l-2.212,0l0,-2.211l2.212,-0l-0,-2.212l-2.212,0l0,-2.211l2.212,-0l-0,-4.423l-2.212,-0l0,-4.424l-2.211,0l-0,-2.211l-6.635,-0l0,-2.212l-4.423,0l-0,-2.211l4.423,-0l0,-4.423l-2.211,-0l-0,-6.635l-2.212,-0l-0,-6.635l-2.212,0l0,-2.211l2.212,-0l-0,-4.423l-6.635,-0l0,-2.212l-4.423,0l0,-4.423l2.212,-0l-0,-2.212l-4.423,0l-0,-2.211l-2.212,-0l0,-11.058l-4.423,-0Zm11.058,-0l-0,2.212l-2.212,-0l0,2.211l2.212,0l-0,2.212l-2.212,-0l0,4.423l2.212,-0l-0,2.211l2.211,0l0,-2.211l2.212,-0l-0,4.423l2.211,-0l0,2.211l2.212,0l-0,-11.057l-2.212,-0l0,-4.423l-4.423,-0l0,-2.212l-2.211,-0Zm-57.501,6.635l0,2.211l-2.211,0l-0,-2.211l2.211,-0Zm-15.481,8.846l0,2.211l-2.211,0l-0,-2.211l2.211,-0Zm26.539,-0l0,2.211l2.212,0l-0,-2.211l-2.212,-0Zm24.327,2.211l0,6.635l4.423,0l0,-6.635l-4.423,0Zm-30.962,2.212l0,2.212l4.423,-0l0,-2.212l-4.423,0Zm44.232,0l-0,2.212l-2.212,-0l-0,-2.212l2.212,0Zm-42.02,6.635l-0,2.211l2.211,0l0,-2.211l-2.211,-0Zm46.443,-0l-0,2.211l-2.212,0l0,-2.211l2.212,-0Zm4.423,4.423l-0,2.211l-2.212,0l0,-2.211l2.212,-0Zm6.634,-0l0,6.634l-2.211,0l-0,-6.634l2.211,-0Zm-8.846,4.423l0,4.423l-2.211,0l-0,-4.423l2.211,-0Zm-66.347,4.423l0,2.212l2.212,-0l-0,-2.212l-2.212,0Zm6.635,0l0,2.212l-2.211,-0l-0,2.211l4.423,0l-0,-4.423l-2.212,0Zm6.635,8.846l-0,2.212l4.423,-0l-0,-2.212l-4.423,0Zm57.5,6.635l0,4.423l-4.423,0l0,-4.423l4.423,-0Zm-59.712,2.212l0,2.211l2.212,0l-0,-2.211l-2.212,-0Zm6.635,-0l-0,2.211l2.211,0l0,-2.211l-2.211,-0Zm-24.327,2.211l-0,4.423l2.211,0l0,4.423l2.212,0l-0,-2.211l2.211,-0l0,-2.212l-2.211,0l-0,-4.423l-4.423,0Zm35.385,0l-0,4.423l2.211,0l0,-4.423l-2.211,0Zm-13.27,4.423l0,2.212l2.212,-0l-0,-2.212l-2.212,0Zm6.635,2.212l0,2.211l-2.212,0l0,13.27l4.424,-0l-0,8.846l2.211,-0l0,-4.423l2.212,-0l-0,-2.212l-2.212,0l0,-2.211l-2.211,-0l-0,-15.481l-2.212,-0Zm19.904,-0l0,6.634l4.423,0l0,-6.634l-4.423,-0Zm-8.846,4.423l-0,2.211l-2.212,0l0,4.424l2.212,-0l-0,-2.212l2.211,-0l0,-4.423l-2.211,-0Zm-19.904,11.058l-0,4.423l4.423,-0l-0,-4.423l-4.423,-0Zm26.538,-0l0,4.423l4.424,-0l-0,-4.423l-4.424,-0Zm37.597,2.211l-0,2.212l2.212,-0l-0,-2.212l-2.212,0Zm28.75,0l0,2.212l2.212,-0l-0,-2.212l-2.212,0Zm-39.808,4.423l0,2.212l2.212,-0l-0,-2.212l-2.212,0Zm26.539,0l-0,2.212l-4.423,-0l-0,2.211l-4.423,0l-0,2.212l-2.212,0l0,-2.212l-6.635,0l0,2.212l-2.211,0l-0,2.212l13.269,-0l0,4.423l2.212,-0l-0,2.211l-2.212,0l0,2.212l-4.423,-0l0,2.211l-2.211,0l-0,-2.211l-2.212,-0l-0,2.211l-8.846,0l-0,2.212l-2.212,-0l0,2.212l-4.423,-0l0,2.211l-2.211,0l-0,2.212l-4.424,-0l0,6.634l-2.211,0l-0,2.212l2.211,-0l0,2.211l6.635,0l0,-2.211l6.635,-0l-0,-2.212l4.423,0l-0,-2.211l17.692,-0l0,-2.212l4.423,0l0,-2.211l2.212,-0l0,-6.635l-6.635,-0l0,-2.212l-2.211,0l-0,-2.211l8.846,-0l0,-6.635l2.212,0l-0,-8.846l-2.212,-0l0,-2.212l-4.423,0Zm-68.558,4.423l-0,2.212l4.423,0l-0,-2.212l-4.423,0Zm8.846,2.212l-0,2.212l6.634,-0l0,-2.212l-6.634,0Zm19.904,0l-0,4.423l4.423,0l-0,-4.423l-4.423,0Zm53.077,4.423l0,2.212l2.212,-0l-0,-2.212l-2.212,0Zm-161.444,2.212l0,6.634l-2.211,0l-0,2.212l2.211,-0l0,2.212l-2.211,-0l-0,2.211l2.211,0l0,2.212l6.635,-0l0,8.846l2.212,-0l-0,6.635l2.211,-0l0,2.211l6.635,0l-0,2.212l4.423,-0l0,4.423l-4.423,-0l-0,2.211l-2.212,0l0,2.212l2.212,-0l-0,4.423l2.211,0l0,2.212l4.424,-0l-0,2.211l4.423,0l-0,-2.211l2.211,-0l0,-2.212l4.423,0l0,-2.212l2.212,0l-0,2.212l4.423,0l0,2.212l-2.211,-0l-0,4.423l2.211,-0l0,6.634l-2.211,0l-0,8.847l2.211,-0l0,4.423l6.635,-0l-0,-2.212l2.211,0l0,-4.423l-2.211,0l-0,-2.212l-2.212,0l0,-2.211l2.212,-0l-0,-2.212l2.211,0l0,2.212l2.212,-0l-0,2.211l6.635,0l-0,-11.057l8.846,-0l-0,-2.212l2.211,0l0,-4.423l2.212,0l-0,-2.212l2.211,0l0,-2.211l2.212,-0l0,-2.212l2.212,0l-0,-2.211l2.211,-0l0,-2.212l4.423,0l0,-2.211l4.423,-0l0,-2.212l4.423,0l0,-6.635l-4.423,0l0,2.212l-4.423,-0l0,-2.212l-6.634,0l-0,2.212l-2.212,-0l0,4.423l-2.212,0l0,2.212l-2.211,-0l-0,-2.212l-2.212,0l0,2.212l-6.634,-0l-0,2.211l-8.847,0l0,2.212l-6.634,-0l-0,4.423l2.211,-0l0,4.423l-2.211,0l-0,2.212l-4.423,-0l-0,-2.212l2.211,0l0,-4.423l-2.211,-0l-0,-2.212l2.211,0l0,-2.211l-2.211,-0l-0,-2.212l2.211,0l0,-2.211l-8.846,-0l-0,2.211l-2.212,0l0,-4.423l-2.211,0l-0,-2.211l-2.212,-0l0,-2.212l-4.423,-0l0,2.212l-4.423,-0l0,-8.847l-2.212,0l0,-2.211l-2.211,-0l-0,-2.212l-6.635,0l0,-2.211l2.212,-0l-0,-2.212l-2.212,0l0,-2.211l-4.423,-0l0,2.211l-2.211,0l-0,-4.423l2.211,-0l0,-4.423l-2.211,-0l-0,-4.423l-4.424,-0Zm101.732,-0l0,2.211l4.423,0l0,-2.211l-4.423,-0Zm53.078,-0l-0,11.058l6.634,-0l0,-2.212l-2.211,-0l-0,-4.423l2.211,-0l0,-4.423l-6.634,-0Zm-79.617,6.634l0,2.212l2.212,-0l0,-2.212l-2.212,0Zm8.847,4.424l-0,2.211l2.211,0l0,-2.211l-2.211,-0Zm17.692,8.846l0,2.211l-2.211,0l-0,2.212l-2.212,-0l0,6.635l6.635,-0l-0,-2.212l2.211,-0l0,-6.635l-2.211,0l-0,-2.211l-2.212,-0Zm17.693,148.174l-0,4.423l4.423,0l-0,-2.211l-2.212,-0l0,-2.212l-2.211,0Zm2.211,6.635l0,2.211l-2.211,0l-0,6.635l2.211,0l0,2.212l4.423,-0l0,8.846l6.635,-0l-0,2.211l2.212,0l-0,4.424l2.211,-0l0,2.211l4.423,0l0,-6.635l-2.211,0l-0,-4.423l-2.212,0l0,-6.634l-4.423,-0l-0,-2.212l-2.212,0l0,-2.211l-4.423,-0l0,-2.212l2.212,0l-0,-2.212l-2.212,0l0,-2.211l-4.423,-0Zm8.846,2.211l0,4.424l2.212,-0l-0,-4.424l-2.212,0Zm-134.905,8.847l0,2.211l2.212,0l-0,-2.211l-2.212,-0Zm-4.423,2.211l0,4.423l2.212,0l-0,2.212l2.211,-0l0,-4.423l-2.211,-0l-0,-2.212l-2.212,0Zm13.27,2.212l-0,4.423l-2.212,-0l-0,6.635l4.423,-0l0,-2.212l2.212,0l-0,-6.635l-2.212,0l0,-2.211l-2.211,-0Zm128.27,-0l-0,2.211l-2.212,0l0,-2.211l2.212,-0Zm-139.328,6.634l-0,4.424l2.211,-0l0,-2.212l2.212,0l-0,-2.212l-4.423,0Zm15.481,4.424l-0,6.634l2.211,0l0,2.212l2.212,-0l-0,6.635l-6.635,-0l0,-4.424l-2.211,0l-0,-2.211l-6.635,-0l-0,6.635l2.211,-0l0,4.423l2.212,-0l-0,2.211l2.212,0l-0,8.846l4.423,0l-0,2.212l2.211,-0l0,2.212l2.212,-0l-0,2.211l4.423,0l-0,6.635l2.211,-0l0,4.423l2.212,-0l0,2.211l2.212,0l-0,2.212l2.211,0l0,-22.116l-2.211,0l-0,-4.423l-2.212,0l0,-6.634l-2.212,-0l0,-6.635l-2.211,-0l-0,-4.423l-2.212,-0l0,-6.635l-2.211,0l-0,-2.211l-4.423,-0Zm123.847,-0l-0,2.211l2.212,0l-0,-2.211l-2.212,-0Zm4.423,4.423l0,2.211l2.212,0l-0,-2.211l-2.212,-0Zm6.635,2.211l-0,4.423l-2.212,0l0,4.424l2.212,-0l-0,-2.212l6.634,-0l0,-4.423l-4.423,-0l0,-2.212l-2.211,0Zm2.211,8.847l0,2.211l2.212,0l-0,2.212l-2.212,-0l0,8.846l2.212,-0l-0,-4.423l4.423,-0l0,-4.423l-2.212,-0l0,-2.212l-2.211,0l-0,-2.211l-2.212,-0Zm-4.423,4.423l0,4.423l2.212,-0l-0,-4.423l-2.212,-0Zm11.058,26.538l0,6.635l4.423,0l0,-2.212l2.212,0l-0,-2.211l-2.212,-0l0,-2.212l-4.423,0Zm-128.27,8.847l-0,6.634l4.423,0l-0,-6.634l-4.423,-0Zm139.328,2.211l-0,2.212l2.211,-0l0,-2.212l-2.211,0Zm-4.423,4.423l-0,4.423l2.211,0l0,2.212l6.635,-0l-0,-4.423l-6.635,-0l0,-2.212l-2.211,0Zm11.058,8.847l-0,2.211l-2.212,0l-0,2.212l6.635,-0l-0,-2.212l-2.212,0l0,-2.211l-2.211,-0Zm-0,6.634l-0,4.423l2.211,0l0,-4.423l-2.211,0Zm4.423,13.27l-0,2.211l-2.212,0l0,6.635l2.212,-0l-0,4.423l4.423,-0l-0,-6.635l-2.212,0l0,-6.634l-2.211,-0Zm4.423,-0l-0,6.634l4.423,0l-0,2.212l2.211,-0l0,-4.423l-2.211,-0l-0,-4.423l-4.423,-0Zm17.692,6.634l0,2.212l4.423,-0l0,-2.212l-4.423,0Zm-15.481,4.423l0,6.635l4.423,0l0,-4.423l-2.211,-0l-0,-2.212l-2.212,0Zm6.635,0l-0,6.635l2.212,0l-0,2.212l4.423,-0l-0,-2.212l-4.423,0l-0,-2.212l2.211,0l0,-4.423l-4.423,0Zm22.116,0l-0,2.212l2.211,-0l0,-2.212l-2.211,0Zm-15.481,2.212l-0,2.211l2.211,0l0,-2.211l-2.211,-0Zm15.481,2.211l-0,2.212l2.211,0l0,-2.212l-2.211,0Zm8.846,0l-0,2.212l4.423,0l-0,-2.212l-4.423,0Zm-24.327,8.847l-0,2.211l4.423,0l-0,-2.211l-4.423,-0Zm8.846,2.211l-0,2.212l-2.212,-0l0,2.211l2.212,0l-0,2.212l2.211,-0l0,-2.212l2.212,0l0,-4.423l-4.423,0Zm-13.269,2.212l-0,2.211l6.634,0l0,-2.211l-6.634,-0Zm6.634,11.058l0,2.211l4.423,0l0,-2.211l-4.423,-0Zm132.694,28.75l-0,2.211l2.211,0l0,-2.211l-2.211,-0Zm-30.962,11.058l-0,4.423l2.211,-0l0,-4.423l-2.211,-0Zm81.828,13.269l-0,2.212l4.423,-0l-0,-2.212l-4.423,0Zm-4.423,6.635l-0,2.211l2.211,0l0,-2.211l-2.211,-0Zm13.269,-0l-0,4.423l4.423,-0l-0,-4.423l-4.423,-0Zm6.635,4.423l-0,2.211l-2.212,0l-0,2.212l2.212,-0l-0,4.423l-2.212,0l-0,4.423l-4.423,0l-0,2.212l6.635,-0l-0,-2.212l6.634,0l0,11.058l6.635,-0l-0,2.212l-2.212,-0l0,2.211l6.635,0l0,-2.211l2.212,-0l-0,2.211l6.634,0l0,6.635l6.635,-0l-0,-11.058l-2.212,-0l0,2.212l-2.211,-0l-0,-8.847l-2.212,0l0,-2.211l-4.423,-0l0,-4.423l-2.211,-0l-0,4.423l2.211,-0l0,6.634l-4.423,0l0,-2.211l2.212,-0l-0,-2.212l-6.635,0l-0,-4.423l2.211,0l0,-4.423l-4.423,0l0,2.212l-2.211,-0l-0,2.211l-2.212,0l0,-8.846l-2.211,-0l-0,-2.212l-2.212,0l0,-2.211l-2.211,-0Zm-108.367,2.211l0,2.212l2.212,-0l-0,-2.212l-2.212,0Zm-4.423,2.212l0,2.211l2.212,0l-0,-2.211l-2.212,-0Zm-168.078,2.211l-0,2.212l2.211,0l0,-2.212l-2.211,0Zm176.924,2.212l0,2.212l2.212,-0l-0,-2.212l-2.212,0Zm-6.634,2.212l-0,4.423l4.423,-0l-0,-4.423l-4.423,-0Zm13.269,-0l-0,2.211l4.423,0l0,-2.211l-4.423,-0Zm46.443,-0l-0,2.211l2.211,0l0,2.212l2.212,-0l-0,-4.423l-4.423,-0Zm-30.962,2.211l-0,2.212l-2.212,-0l0,4.423l2.212,-0l-0,2.211l2.211,0l0,-2.211l2.212,-0l-0,-4.423l-2.212,-0l0,-2.212l-2.211,0Zm-22.116,2.212l0,4.423l4.423,-0l0,-2.212l-2.211,0l-0,-2.211l-2.212,-0Zm106.155,-0l0,4.423l2.212,-0l-0,-4.423l-2.212,-0Zm28.75,2.211l0,2.212l2.212,-0l-0,2.211l2.211,0l0,-2.211l2.212,-0l0,-2.212l-6.635,0Zm-291.925,8.847l-0,2.211l2.211,0l0,-2.211l-2.211,-0Zm300.772,-0l-0,2.211l-2.212,0l0,2.212l6.635,-0l-0,4.423l-4.423,-0l-0,-2.212l-4.424,0l0,4.423l6.635,0l0,2.212l2.212,-0l-0,-2.212l2.211,0l0,2.212l2.212,-0l-0,2.211l2.211,0l0,2.212l2.212,0l-0,-4.423l-2.212,-0l0,-4.423l-4.423,-0l0,-4.423l-2.211,-0l-0,-2.212l-2.212,0l0,-2.211l-2.211,-0Zm-108.367,2.211l0,2.212l2.212,-0l-0,-2.212l-2.212,0Zm-81.827,15.481l-0,4.423l4.423,0l-0,-2.211l-2.212,-0l0,-2.212l-2.211,0Zm210.098,0l-0,2.212l4.423,-0l-0,-2.212l-4.423,0Zm8.846,4.423l-0,2.212l4.423,-0l0,-2.212l-4.423,0Zm-296.349,2.212l-0,4.423l2.212,-0l-0,-4.423l-2.212,-0Zm13.269,-0l0,2.211l-2.211,0l-0,2.212l4.423,-0l-0,-4.423l-2.212,-0Zm6.635,-0l-0,6.634l4.423,0l0,-6.634l-4.423,-0Zm278.656,2.211l0,2.212l-2.211,-0l-0,2.211l2.211,0l0,2.212l2.212,-0l0,2.211l-2.212,0l0,2.212l6.635,0l0,2.212l-2.211,-0l-0,4.423l4.423,-0l-0,4.423l2.211,-0l0,2.211l8.846,0l0,2.212l2.212,-0l0,2.212l-4.423,-0l-0,2.211l2.211,0l0,4.423l2.212,0l0,2.212l2.212,-0l-0,-2.212l2.211,0l0,2.212l2.212,-0l-0,2.211l2.211,0l0,2.212l2.212,-0l-0,2.211l2.211,0l0,2.212l2.212,-0l-0,2.212l2.212,-0l-0,4.423l6.634,-0l0,6.634l2.212,0l-0,6.635l4.423,0l-0,2.212l6.635,-0l-0,2.211l-4.424,0l0,2.212l2.212,-0l-0,6.634l8.846,0l0,2.212l2.212,-0l-0,6.635l2.211,-0l0,6.634l2.212,0l-0,8.847l2.211,-0l0,2.211l6.635,0l0,6.635l-2.211,-0l-0,-2.212l-2.212,0l0,4.423l4.423,0l0,2.212l6.635,-0l-0,2.211l2.211,0l0,2.212l4.423,0l0,2.212l2.212,-0l0,4.423l2.212,-0l-0,2.211l2.211,0l0,2.212l2.212,-0l-0,2.211l2.211,0l0,2.212l2.212,-0l-0,2.211l2.211,0l0,2.212l2.212,0l-0,2.212l2.212,-0l-0,2.211l2.211,0l0,2.212l2.212,-0l-0,2.211l4.423,0l-0,4.423l2.211,0l0,2.212l4.423,-0l0,2.212l2.212,-0l0,2.211l2.212,0l-0,2.212l6.634,-0l0,2.211l2.212,0l-0,2.212l2.211,-0l0,-6.635l-2.211,0l-0,-2.211l-2.212,-0l0,-6.635l-4.423,-0l0,-2.212l-2.211,0l-0,-2.211l-2.212,-0l0,-2.212l-2.212,0l0,-4.423l-4.423,0l0,-2.212l-4.423,0l0,-2.211l-2.211,-0l-0,-2.212l-2.212,0l0,-4.423l-2.211,0l-0,-2.211l-2.212,-0l-0,-2.212l-2.212,0l0,-2.211l-2.211,-0l-0,-2.212l-2.212,0l0,-2.212l-2.211,0l-0,-2.211l-2.212,-0l0,-4.423l-2.211,-0l-0,-2.212l-2.212,0l0,-2.211l-4.423,-0l-0,-6.635l-2.212,-0l0,-2.212l-2.211,0l-0,-2.211l-2.212,-0l0,-6.635l-4.423,0l0,-2.211l-4.423,-0l0,-6.635l-2.212,-0l0,-8.846l-4.423,-0l0,-2.212l-2.211,0l-0,-2.211l-2.212,-0l0,-2.212l-4.423,0l0,-4.423l-6.635,-0l0,-8.846l-2.211,-0l-0,-2.212l-2.212,0l0,-2.211l-4.423,-0l0,-6.635l-2.211,-0l-0,-2.212l-2.212,0l0,-4.423l-4.423,0l-0,-4.423l-2.212,0l0,-6.635l-2.211,0l-0,-2.211l-4.423,-0l-0,-6.635l-2.212,0l0,2.212l-2.211,-0l-0,-2.212l-2.212,0l0,-4.423l-6.635,0l0,-6.635l-6.634,0l-0,-2.211l-2.212,-0l0,-2.212l-6.635,0Zm-103.943,4.423l0,2.212l2.212,-0l-0,-2.212l-2.212,0Zm-176.925,2.212l0,2.211l2.212,0l-0,2.212l4.423,0l0,-4.423l-6.635,-0Zm163.656,-0l-0,2.211l6.634,0l0,-2.211l-6.634,-0Zm-174.713,2.211l-0,4.424l6.634,-0l0,-4.424l-6.634,0Zm22.115,2.212l0,4.423l2.212,0l-0,-2.211l2.211,-0l0,-2.212l-4.423,0Zm13.27,2.212l-0,2.211l-2.212,0l0,2.212l11.058,-0l-0,-2.212l-2.212,0l0,-2.211l-6.634,-0Zm148.174,-0l0,4.423l2.212,-0l-0,-4.423l-2.212,-0Zm61.924,-0l-0,2.211l-2.212,0l0,4.423l4.423,0l0,2.212l6.635,-0l-0,-4.423l-2.212,-0l0,-2.212l-2.211,0l-0,-2.211l-4.423,-0Zm-218.945,4.423l0,2.211l2.212,0l-0,2.212l2.211,-0l0,-4.423l-4.423,-0Zm170.29,-0l0,2.211l2.212,0l-0,-2.211l-2.212,-0Zm8.847,4.423l-0,4.423l4.423,-0l-0,-4.423l-4.423,-0Zm-152.598,2.211l0,4.424l2.212,-0l-0,-4.424l-2.212,0Zm-35.385,4.424l0,2.211l4.423,0l0,-2.211l-4.423,-0Zm72.982,-0l-0,2.211l2.211,0l0,-2.211l-2.211,-0Zm230.002,-0l-0,2.211l-2.212,0l0,-2.211l2.212,-0Zm-311.83,2.211l-0,4.423l6.635,0l-0,-4.423l-6.635,0Zm37.596,2.212l0,2.211l2.212,0l-0,2.212l2.211,-0l0,-4.423l-4.423,-0Zm-26.538,4.423l-0,6.634l2.211,0l0,-6.634l-2.211,-0Zm15.481,8.846l-0,2.212l-2.212,-0l0,2.211l-4.423,0l-0,4.423l4.423,0l0,-2.211l4.423,-0l0,-2.212l2.212,0l-0,-2.211l-2.212,-0l0,-2.212l-2.211,-0Zm15.48,-0l0,4.423l4.424,0l-0,-4.423l-4.424,-0Zm30.962,-0l0,2.212l2.212,-0l-0,-2.212l-2.212,-0Zm11.058,-0l0,2.212l2.212,-0l-0,2.211l2.211,0l0,-4.423l-4.423,-0Zm-4.423,8.846l-0,2.212l4.423,-0l0,-2.212l-4.423,0Zm-11.058,2.212l0,4.423l2.212,-0l-0,-4.423l-2.212,-0Zm-35.385,6.634l0,2.212l-2.211,0l-0,6.635l4.423,-0l-0,-4.423l2.211,-0l0,-2.212l2.212,0l-0,-2.212l-6.635,0Zm8.846,0l0,4.424l4.424,-0l-0,-2.212l2.211,0l0,2.212l4.423,-0l0,-2.212l-4.423,0l0,-2.212l-6.635,0Zm57.501,0l0,2.212l2.212,0l-0,-2.212l-2.212,0Zm-8.846,2.212l-0,2.212l2.211,-0l0,-2.212l-2.211,0Zm-72.982,8.846l0,2.212l2.212,-0l-0,-2.212l-2.212,0Zm57.501,0l-0,4.423l2.211,0l0,-2.211l4.424,-0l-0,-2.212l-6.635,0Zm278.656,0l0,2.212l-2.211,-0l-0,-2.212l2.211,0Zm-274.233,6.635l-0,2.211l4.423,0l0,-2.211l-4.423,-0Zm17.692,-0l0,2.211l2.212,0l0,-2.211l-2.212,-0Zm-4.423,2.211l0,2.212l2.212,0l-0,-2.212l-2.212,0Zm-42.019,2.212l-0,2.212l-2.212,-0l0,-2.212l2.212,0Zm108.366,0l0,2.212l2.212,-0l-0,-2.212l-2.212,0Zm-103.943,2.212l-0,4.423l-2.212,-0l0,-4.423l2.212,-0Zm44.231,-0l0,4.423l2.212,-0l-0,-4.423l-2.212,-0Zm-50.866,13.269l0,2.212l2.212,-0l-0,2.211l2.211,0l0,4.423l-2.211,0l-0,-4.423l-2.212,0l0,-2.211l-4.423,-0l0,-2.212l4.423,-0Zm8.846,11.058l0,2.211l2.212,0l-0,4.423l2.212,0l-0,2.212l-2.212,0l-0,-2.212l-2.212,0l0,-2.211l-2.211,-0l-0,-4.423l2.211,-0Zm35.385,-0l0,2.211l-4.423,0l0,-2.211l4.423,-0Zm201.252,17.692l0,6.635l6.635,-0l-0,-2.212l-2.212,0l0,-2.211l-2.211,-0l-0,-2.212l-2.212,0Zm79.616,0l0,2.212l6.635,-0l0,-2.212l-6.635,0Zm-139.328,4.423l0,2.212l4.423,-0l0,-2.212l-4.423,0Zm139.328,2.212l0,2.211l2.212,0l-0,4.424l2.211,-0l0,2.211l2.212,0l0,2.212l4.423,-0l0,4.423l2.212,-0l-0,2.211l2.211,0l0,6.635l2.212,0l-0,2.212l6.635,-0l-0,-4.423l-2.212,-0l-0,-6.635l-2.212,-0l0,-2.212l-2.211,0l-0,-4.423l-2.212,0l0,-2.211l-2.211,-0l-0,-4.424l-6.635,0l0,-2.211l-6.635,-0Zm-283.079,2.211l-0,2.212l2.211,0l0,2.212l-2.211,-0l-0,-2.212l-2.212,0l0,-2.212l2.212,0Zm8.846,2.212l0,2.212l-2.212,-0l0,-2.212l2.212,0Zm176.925,0l-0,4.423l2.211,0l0,-4.423l-2.211,0Zm11.058,0l-0,4.423l2.211,0l0,-4.423l-2.211,0Zm-134.906,2.212l0,2.211l2.212,0l0,-2.211l-2.212,-0Zm-44.231,2.211l0,2.212l2.212,-0l-0,2.211l2.211,0l0,2.212l2.212,-0l-0,2.211l2.211,0l0,4.424l-4.423,-0l0,-2.212l-2.211,-0l-0,-2.212l-6.635,0l0,-8.846l4.423,0Zm42.02,0l-0,2.212l2.211,-0l0,-2.212l-2.211,0Zm6.635,2.212l-0,4.423l2.211,-0l0,2.211l2.212,0l-0,-2.211l2.211,-0l0,-2.212l-2.211,0l-0,-2.211l-4.423,-0Zm11.057,-0l0,2.211l-2.211,0l-0,4.423l6.634,0l0,-4.423l-2.211,0l-0,-2.211l-2.212,-0Zm64.136,-0l-0,2.211l2.211,0l0,-2.211l-2.211,-0Zm13.269,6.634l-0,4.424l4.423,-0l0,-4.424l-4.423,0Zm11.058,2.212l-0,2.212l4.423,-0l-0,-2.212l-4.423,-0Zm55.289,-0l-0,4.423l4.423,0l-0,-2.211l-2.212,-0l0,-2.212l-2.211,-0Zm-141.54,6.635l-0,2.211l-2.212,0l0,2.212l2.212,-0l-0,2.211l8.846,0l0,2.212l11.058,-0l-0,2.211l4.423,0l0,-6.634l-11.058,-0l0,-2.212l-6.634,0l-0,-2.211l-6.635,-0Zm97.309,2.211l-0,4.423l2.211,0l0,-4.423l-2.211,0Zm53.077,0l-0,2.212l2.212,-0l-0,-2.212l-2.212,0Zm115.001,0l0,2.212l4.423,-0l0,-2.212l-4.423,0Zm6.635,0l-0,4.423l2.211,0l0,2.212l2.212,-0l-0,-2.212l2.211,0l0,6.635l2.212,-0l-0,-6.635l-2.212,0l0,-2.211l-2.211,-0l-0,-2.212l-4.423,0Zm-39.808,4.423l-0,2.212l-2.212,-0l0,6.635l4.423,-0l0,2.211l2.212,0l-0,-4.423l-2.212,-0l0,-2.212l2.212,0l-0,-2.211l-2.212,-0l0,-2.212l-2.211,0Zm-88.463,4.423l0,4.424l4.423,-0l0,-2.212l-2.211,-0l-0,-2.212l-2.212,0Zm-37.596,4.424l-0,4.423l2.211,-0l0,-4.423l-2.211,-0Zm132.693,-0l0,4.423l-2.211,-0l-0,2.211l-2.212,0l0,2.212l2.212,-0l-0,4.423l4.423,-0l-0,2.211l-2.212,0l0,4.424l2.212,-0l-0,-2.212l2.211,0l0,2.212l2.212,-0l0,4.423l2.212,-0l-0,2.211l4.423,0l-0,4.423l2.211,0l0,2.212l2.212,-0l-0,2.211l2.211,0l0,2.212l2.212,0l-0,2.212l2.211,-0l0,2.211l2.212,0l0,4.423l2.212,0l-0,2.212l2.211,-0l0,2.211l2.212,0l-0,2.212l2.211,-0l0,2.212l4.423,-0l0,4.423l2.212,-0l-0,2.211l2.212,0l-0,2.212l2.211,-0l0,4.423l4.423,-0l0,2.211l6.635,0l-0,2.212l2.211,0l0,2.212l2.212,-0l-0,2.211l2.212,0l-0,2.212l4.423,-0l-0,4.423l2.211,-0l0,2.211l2.212,0l-0,2.212l4.423,-0l-0,2.211l4.423,0l0,4.424l2.212,-0l-0,2.211l4.423,0l-0,2.212l2.211,-0l0,2.211l4.423,0l0,2.212l2.212,-0l-0,6.635l2.211,-0l0,2.211l2.212,0l0,2.212l4.423,-0l0,2.211l2.212,0l-0,4.423l6.634,0l0,-4.423l6.635,0l0,2.212l-2.211,-0l-0,4.423l4.423,-0l-0,4.423l8.846,-0l-0,2.212l4.423,-0l0,2.211l-4.423,0l-0,4.423l6.635,0l-0,4.423l4.423,0l-0,2.212l4.423,-0l-0,2.211l2.211,0l0,2.212l2.212,0l-0,2.212l2.211,-0l0,2.211l-2.211,0l-0,2.212l13.269,-0l0,4.423l2.212,-0l-0,-2.212l6.635,0l-0,-2.211l2.211,-0l0,4.423l2.212,-0l-0,2.211l2.211,0l0,2.212l6.635,-0l-0,2.211l4.423,0l-0,2.212l4.423,0l0,2.212l2.212,-0l-0,-6.635l-2.212,-0l0,-2.212l-2.211,0l-0,-2.211l-2.212,-0l-0,-4.423l-11.058,-0l0,-2.212l-4.423,0l0,-2.211l-8.846,-0l-0,-4.424l-6.635,0l0,-2.211l4.423,-0l0,-2.212l-4.423,0l0,-2.211l-6.635,-0l0,-2.212l-2.211,0l-0,-4.423l-4.423,0l-0,-2.211l-4.423,-0l-0,-2.212l-6.635,-0l0,-2.212l2.212,0l-0,-4.423l-2.212,0l0,-2.211l-8.846,-0l-0,-2.212l-2.212,0l0,-2.211l-2.211,-0l-0,-2.212l-4.423,0l-0,-4.423l-4.424,-0l0,-4.423l-2.211,-0l-0,-2.212l-2.212,0l0,2.212l-4.423,-0l0,-2.212l-2.211,0l-0,-6.634l-4.424,-0l0,2.211l-4.423,0l0,-6.635l-2.211,0l-0,-2.211l-4.423,-0l-0,-2.212l-2.212,0l0,2.212l-2.211,-0l-0,-6.635l-4.424,0l0,-4.423l-2.211,0l-0,-2.211l-2.212,-0l0,-2.212l-2.211,0l-0,-2.212l-4.423,0l-0,-2.211l-2.212,-0l0,-4.423l-4.423,-0l-0,-2.212l-6.635,0l0,-6.634l-2.211,-0l-0,-2.212l-4.423,-0l-0,-2.212l-2.212,0l0,-2.211l-2.211,-0l-0,-2.212l-2.212,0l-0,-2.211l-2.212,-0l0,-2.212l-4.423,0l0,-4.423l-2.211,0l-0,-2.212l-2.212,0l0,-4.423l-2.211,0l-0,-2.211l-2.212,-0l0,-2.212l-6.635,0l0,-2.211l-2.211,-0l-0,-2.212l2.211,0l0,-2.211l-2.211,-0l-0,-2.212l-4.423,0l-0,-6.635l-2.212,0l0,-2.211l-2.211,-0l-0,-2.212l-2.212,0l0,-2.211l-2.212,-0l0,-4.423l-4.423,-0Zm44.232,-0l-0,2.211l4.423,0l-0,-2.211l-4.423,-0Zm-254.33,2.211l0,2.212l2.212,-0l-0,-2.212l-2.212,0Zm86.251,2.212l0,2.211l-2.212,0l0,4.423l4.424,0l-0,-4.423l2.211,0l0,-2.211l-4.423,-0Zm-37.597,2.211l0,2.212l2.212,-0l0,-2.212l-2.212,0Zm-53.077,4.423l0,2.212l2.212,-0l-0,4.423l2.211,0l0,2.212l6.635,-0l-0,2.211l2.211,0l0,4.423l4.424,0l-0,4.423l2.211,0l0,2.212l4.423,-0l0,-4.423l-2.211,-0l-0,-2.212l-2.212,0l0,-2.211l-2.211,-0l-0,-4.423l-4.424,-0l0,-4.424l-6.634,0l-0,-2.211l-2.212,-0l0,-2.212l-4.423,0Zm75.193,0l0,4.423l2.212,0l-0,-4.423l-2.212,0Zm57.501,2.212l-0,2.211l2.211,0l0,-2.211l-2.211,-0Zm13.269,2.211l-0,4.424l2.212,-0l-0,-2.212l2.211,0l0,-2.212l-4.423,0Zm77.405,0l-0,2.212l-2.212,0l0,-2.212l2.212,0Zm-143.752,2.212l0,4.423l2.212,0l-0,-4.423l-2.212,0Zm30.962,2.212l0,6.634l-2.212,0l0,2.212l2.212,-0l0,2.211l2.212,0l-0,-4.423l2.211,0l0,-2.211l2.212,-0l-0,-2.212l-4.423,0l-0,-2.211l-2.212,-0Zm35.385,2.211l-0,2.212l2.212,-0l-0,4.423l2.211,-0l0,2.211l4.423,0l0,-4.423l-4.423,0l0,-4.423l-4.423,0Zm13.269,6.635l0,2.211l2.212,0l-0,-2.211l-2.212,-0Zm8.847,2.211l-0,4.423l2.211,0l0,2.212l2.212,0l-0,-4.423l-2.212,-0l0,-2.212l-2.211,0Zm-4.424,4.423l0,2.212l2.212,0l0,-2.212l-2.212,0Zm33.174,15.481l-0,2.212l2.211,-0l0,2.212l2.212,-0l-0,-4.424l-4.423,0Zm139.328,19.904l0,2.212l4.423,0l0,-2.212l-4.423,0Zm-2.211,6.635l-0,2.212l2.211,-0l0,-2.212l-2.211,0Zm-130.482,13.269l-0,4.424l2.211,-0l0,4.423l6.635,-0l-0,-4.423l-6.635,-0l0,-4.424l-2.211,0Zm95.097,0l-2.212,0l0,-2.211l2.212,-0l-0,2.211Zm8.846,2.212l-0,2.212l-2.212,-0l0,-2.212l2.212,0Zm-88.463,4.423l0,2.212l2.212,-0l0,-2.212l-2.212,0Zm108.367,13.27l-0,2.211l-2.212,0l0,-4.423l4.423,-0l0,2.212l-2.211,-0Zm48.654,39.808l0,2.211l-2.211,0l-0,-2.211l2.211,-0Zm-55.289,24.327l0,6.634l-2.211,0l-0,2.212l-2.212,-0l0,-8.846l4.423,-0Zm30.962,2.211l0,2.212l2.212,-0l-0,-2.212l-2.212,0Zm-4.423,2.212l-0,13.269l4.423,0l0,-2.211l2.212,-0l-0,-8.847l-2.212,0l0,-2.211l-4.423,-0Zm57.5,6.635l0,6.634l2.212,0l-0,2.212l-2.212,-0l0,-2.212l-2.211,0l-0,-6.634l2.211,-0Zm-42.019,4.423l-0,2.211l-2.212,0l0,6.635l6.635,-0l-0,-8.846l-4.423,-0Zm8.846,17.692l0,6.635l-4.423,-0l-0,-4.423l2.211,-0l0,-2.212l2.212,0Zm37.597,6.635l-0,2.211l4.423,0l-0,-2.211l-4.423,-0Zm-13.27,4.423l0,2.211l2.212,0l-0,-2.211l-2.212,-0Zm-66.347,2.211l0,-2.211l2.212,-0l-0,2.211l-2.212,0Zm35.385,0l0,2.212l2.212,0l-0,2.212l-4.423,-0l-0,-2.212l-2.212,0l0,-2.212l4.423,0Z" style="fill:#60abbb;"/></svg>